<svg xmlns="http://www.w3.org/2000/svg" xmlns:xlink="http://www.w3.org/1999/xlink" viewBox="0 0 639 290"><defs><style>.a{fill:#011625;}.b,.e,.i{fill:#fff;}.b{font-size:18px;}.b,.g,.i{font-family:Lato-Regular, Lato;}.b,.i{letter-spacing:0.02em;}.c,.d,.f,.h{fill:none;}.c{stroke:rgba(112,218,92,0.5);stroke-width:4px;}.f,.h{stroke:#fff;}.f{stroke-linecap:round;stroke-linejoin:round;stroke-miterlimit:10;}.g{fill:#3cb458;letter-spacing:0.1em;}.g,.i{font-size:12px;}.j{fill:#f39124;}.k{fill:#834819;}.l{fill:#e8811f;}.m{fill:#dbc7b9;}.n{fill:#070503;}.o{fill:#d46d1a;}.p{stroke:none;}.q{filter:url(#a);}</style><filter id="a" x="0" y="0" width="639" height="290" filterUnits="userSpaceOnUse"><feOffset dx="40" dy="50" input="SourceAlpha"/><feGaussianBlur stdDeviation="32.5" result="b"/><feFlood flood-opacity="0.2"/><feComposite operator="in" in2="b"/><feComposite in="SourceGraphic"/></filter></defs><g transform="translate(-179.5 -4441.5)"><g transform="translate(-9688 1010)"><g class="q" transform="matrix(1, 0, 0, 1, 9867.5, 3431.5)"><rect class="a" width="444" height="95" rx="10" transform="translate(57.5 47.5)"/></g><g transform="translate(8458 3477)"><text class="b" transform="translate(1557 46)"><tspan x="0" y="0">0x5554e04e76...</tspan></text><g transform="translate(-343)"><g class="c" transform="translate(1843 30)"><circle class="p" cx="20" cy="20" r="20"/><circle class="d" cx="20" cy="20" r="22"/></g><g transform="translate(1843 30)"><path class="d" d="M20,0A20,20,0,1,1,0,20,20,20,0,0,1,20,0Z"/><path class="e" d="M20,1a19.005,19.005,0,0,0-7.4,36.507A19.005,19.005,0,0,0,27.4,2.493,18.881,18.881,0,0,0,20,1m0-1A20,20,0,1,1,0,20,20,20,0,0,1,20,0Z"/></g><g transform="translate(1851.5 40.5)"><g transform="translate(1.5 10.286)"><path class="f" d="M11.593,25.412H1.5a6.158,6.158,0,0,1,3.033-4.654A13.573,13.573,0,0,1,11.8,18.3" transform="translate(-1.5 -18.3)"/><path class="f" d="M7.3,20.758A13.7,13.7,0,0,1,14.569,18.3" transform="translate(-4.267 -18.3)"/><g transform="translate(9.936)"><path class="f" d="M20.709,25.412H30.8a6.158,6.158,0,0,0-3.033-4.654A13.573,13.573,0,0,0,20.5,18.3" transform="translate(-20.5 -18.3)"/><path class="f" d="M27.769,20.758A13.7,13.7,0,0,0,20.5,18.3" transform="translate(-20.5 -18.3)"/></g></g><circle class="f" cx="4.341" cy="4.341" r="4.341" transform="translate(7.305 1.5)"/></g></g><text class="g" transform="translate(1557 67)"><tspan x="0" y="0">METAMASK CONNECTED</tspan></text><rect class="d" width="421" height="70" rx="5" transform="translate(1479 15)"/><g transform="translate(-96)"><g class="h" transform="translate(1802 32)"><rect class="p" width="14" height="14" rx="1"/><rect class="d" x="0.5" y="0.5" width="13" height="13" rx="0.5"/></g><g transform="translate(0 -0.5)"><line class="h" x2="9" transform="translate(1804.5 36.5)"/><line class="h" x2="9" transform="translate(1804.5 39.5)"/><line class="h" x2="9" transform="translate(1804.5 42.5)"/></g></g><g transform="translate(52)"><g class="h" transform="translate(1759 37)"><rect class="p" width="71" height="27" rx="5"/><rect class="d" x="0.5" y="0.5" width="70" height="26" rx="4.5"/></g><text class="i" transform="translate(1768 55)"><tspan x="0" y="0">Etherscan</tspan></text></g></g></g><g transform="translate(663.804 4483.003)"><path class="j" d="M0,115.025V114.4c.969.281.688-.656.782-.969,1.532-4.377,2.97-8.785,4.471-13.193,1.282-3.72,2.6-7.409,3.877-11.1a15.181,15.181,0,0,0,3.908-.938q10.036-2.767,20.073-5.565c-.719,1.438-1.845,2.626-2.689,3.97-1.188,1.876-2.97,3.345-3.564,5.565-.625.188-.563.469-.156.844.281.219.5.469.782.719a5.281,5.281,0,0,0,.625,2.063c2,3.908,4,7.847,6.034,11.754.782,1.5,1.72,2.97,2.6,4.439.625-3.032-.156-5.971.094-8.91.125-.031.281-.063.406-.094.344.094.688.156,1.063.25,3.908.938,7.723,2.22,11.662,2.97.094.031.219.063.313.094.969,3.533,1.97,7.1,3,10.754a1.387,1.387,0,0,0,.438-1.376c.063-4.721-.344-9.441-.406-14.162a24.538,24.538,0,0,0-.844-6.878c0-.625,0-1.25-.031-1.844a29.742,29.742,0,0,0-.25-3.72c-.375-5.158-.532-10.316-1.032-15.475-.188-1.938.063-3.939-.563-5.846v-.375a.42.42,0,0,0-.188-.219.42.42,0,0,1-.188-.219,3.273,3.273,0,0,0-.375-1.626C47.9,60.16,45.492,55.221,43.71,50c6.785,0,13.569.031,20.323.031H74.319c-.344,2.595-1.657,4.877-2.47,7.315-1.063,3.22-2.626,6.284-3.408,9.629a.828.828,0,0,1-.156.188c-.063.094-.156.156-.219.25v.344c-.5,2.845-.219,5.721-.375,8.566-.281,5.5-.563,10.973-.844,16.475a11.974,11.974,0,0,0,.25,2.782c-.75.25-.594.907-.594,1.438-.188,6.5.25,13.005.313,19.507,0,.25-.031.531.5.657.563-3.095,1.157-6.19,1.626-9.285a2.231,2.231,0,0,1,.969-1.657c3.94-1.094,7.879-2.157,11.85-3.251.219.031.469.031.688.063.281,2.939-.75,5.877-.125,8.91.594-.25.688-.688.875-1.063,1.845-3.6,3.752-7.159,5.534-10.785,1.094-2.22,2.533-4.283,3.1-6.753.125-.219.219-.406.344-.625.938-.438.188-.813-.063-1.157-1.845-2.376-3.689-4.752-5.565-7.1a2.881,2.881,0,0,1-.688-1.688c7.723,2.157,15.445,4.345,23.168,6.5.688,2.063,1.407,4.1,2.095,6.159,2.032,6.252,4.065,12.536,6.1,18.788-1,1.282-2.407.657-3.6.563-5.784-.406-11.568-1-17.384-1.188-4.1-.406-8.223-.281-12.319-.313-.625,0-1.251-.156-1.813.313-2.032.563-3.564,2-5.378,3-2.564,1.438-4.878,3.314-7.535,4.564-1.532-1.407-3.345-1.594-5.347-1.5a71.393,71.393,0,0,1-7.316,0,6.068,6.068,0,0,0-5.034,1.844c-.188,0-.406.031-.594.031a1.363,1.363,0,0,0-.688-.969c-2.939-1.626-5.815-3.345-8.817-4.877-1.407-.719-2.626-1.907-4.315-2.063a2.713,2.713,0,0,0-1.97-.281c-4.252.094-8.5.219-12.757.313-2.126.125-4.252.188-6.378.344-5.253.375-10.537.813-15.789,1.188C.281,115.213.375,114.837,0,115.025Z" transform="translate(0 -34.369)"/><path class="k" d="M35.839,48.269c-6.691,1.844-13.382,3.72-20.073,5.565a15.18,15.18,0,0,1-3.908.938c-1.407-1.657-2.814-3.314-4.252-4.971-.594-.688-.938-1.344.188-1.907,1.188-.594.938-1.344.156-2.063-.594-.563-1.282-1.063-1.876-1.626-.406-.344-.563-.625,0-1.094C8.263,41.2,8.231,41.2,5.949,39.484a2.584,2.584,0,0,0-.406-.219c-.688-.469-.594-1,.063-1.313C6.887,37.358,6.918,36.3,6.7,35.17c-.75-4.283-1.563-8.566-2.345-12.849-.5-2.595-.75-5.064.313-7.722C6.606,9.848,8.169,4.877,9.888,0h.625c-.125.344.125.5.344.657.281.719.969,1.063,1.563,1.5Q26.678,12.942,40.967,23.7c4,3,8,5.94,12.037,8.91a.42.42,0,0,0,.188.219c.063.063.125.156.188.219v.375C47.5,38.39,41.686,43.329,35.839,48.269Z" transform="translate(-2.697)"/><path class="l" d="M269.662,254.525c.5.156-.031.907.594.969v.625c-.719-.219-.563.375-.657.719-2.095,7.753-4.19,15.506-6.222,23.259-.344,1.282-.75,1.438-2,1.032-8.317-2.782-16.665-5.44-25.013-8.128-4.846-3.751-9.693-7.472-14.539-11.223-.031-.094-.094-.187-.125-.281,2.658-1.25,4.971-3.126,7.535-4.564,1.782-1,3.314-2.47,5.378-3,.688,6.19,1.344,12.38,2.032,18.538a21.918,21.918,0,0,0,3-4q4.549-7.268,9.1-14.568c5.815.156,11.568.75,17.384,1.188C267.255,255.182,268.63,255.807,269.662,254.525Z" transform="translate(-152.383 -174.526)"/><path class="k" d="M259.865,4.413c1.126-.625,1.72-.313,2.126.938,1.563,4.908,3.22,9.754,4.846,14.631a4.116,4.116,0,0,1,.156,2.126c-1.094,5.533-2.126,11.1-3.283,16.6-.344,1.719,1,2.063,1.938,2.845-.563.938-1.594,1.313-2.314,2.032s-.813,1.157.125,1.813c1.626,1.125,1.594,1.188.125,2.657a4.44,4.44,0,0,1-.782.75c-1.219.813-1.282,1.5.094,2.22.907.469.688,1.032.094,1.719-1.407,1.657-2.72,3.376-4.065,5.1-7.723-2.157-15.445-4.345-23.168-6.5a9.773,9.773,0,0,1-1.939-1.25C228.568,45.46,223.284,40.864,218,36.237v-.344c.063-.094.156-.156.219-.25a.32.32,0,0,0,.156-.188,4.717,4.717,0,0,0,.563-.281Q238.682,20.5,258.4,5.757c.344-.25,1.063-.375.844-1.125h0C259.584,4.882,259.74,4.663,259.865,4.413Z" transform="translate(-149.84 -2.818)"/><path class="l" d="M35.186,273.326c-6.159,2.032-12.319,4.033-18.478,6.065-2.564.844-5.128,1.657-7.691,2.5-.657.219-1.094.344-1.313-.594Q4.373,268.684.981,256.1a2.527,2.527,0,0,1,.031-.469c5.253-.406,10.537-.813,15.789-1.188,2.126-.156,4.252-.25,6.378-.344Z" transform="translate(-0.668 -174.663)"/><path class="m" d="M160.344,290.392c-3.314,3.032-7.379,4.814-11.318,6.909a14.133,14.133,0,0,1-6.941,1.657,115.78,115.78,0,0,0-12.757.156c-2,.188-3.6-1.094-5.378-1.782a54.045,54.045,0,0,1-12.85-6.69c3.721-2.532,7.473-5.064,11.193-7.628a35.332,35.332,0,0,0,5.128-3.751c.188,0,.406-.031.594-.031-.031,3.282-.875,6.5-1,10.223.938-1.25,2-1.157,3.033-1.157,4.69,0,9.349-.031,14.038-.062a3.284,3.284,0,0,1,2.72.875c-.344-3.564-.657-6.721-.969-9.91C150.652,282.92,155.5,286.672,160.344,290.392Z" transform="translate(-76.363 -191.917)"/><path class="l" d="M92.253,121.818c5.847-4.939,11.662-9.879,17.509-14.818.625,1.907.375,3.908.563,5.846.5,5.127.657,10.316,1.032,15.475a24.792,24.792,0,0,1,.25,3.72c-7.222.188-14.414-.438-21.6-.344a15.622,15.622,0,0,1-4-.313c.594-2.22,2.376-3.689,3.564-5.565C90.409,124.444,91.534,123.287,92.253,121.818Z" transform="translate(-59.111 -73.55)"/><path class="l" d="M215.251,107q7.926,6.893,15.821,13.849a10.765,10.765,0,0,0,1.939,1.25,2.881,2.881,0,0,0,.688,1.688c1.876,2.345,3.752,4.721,5.565,7.1.25.344,1.032.719.063,1.157a2.5,2.5,0,0,0-1.938-.313q-11.678.141-23.387.344c.281-5.5.563-10.973.844-16.475C215.032,112.721,214.75,109.845,215.251,107Z" transform="translate(-147.091 -73.55)"/><path class="l" d="M260.165,5.9c.219.75-.5.844-.844,1.125q-19.7,14.724-39.458,29.418a3.15,3.15,0,0,1-.563.281c.782-3.345,2.314-6.377,3.408-9.629.813-2.438,2.126-4.721,2.47-7.315,4.659-1.844,9.349-3.658,14.007-5.565q10.083-4.08,20.1-8.159A5.558,5.558,0,0,1,260.165,5.9Z" transform="translate(-150.733 -4.056)"/><path class="l" d="M26.1,2.1Q43.875,9.6,61.681,17.106c1.782,5.189,4.19,10.16,6.128,15.318a3.273,3.273,0,0,1,.375,1.626c-4-2.97-8.035-5.909-12.037-8.91Q41.936,14.4,27.663,3.6C27.1,3.163,26.413,2.85,26.1,2.1Z" transform="translate(-17.94 -1.443)"/><path class="n" d="M180.722,275.06c.313,3.189.625,6.346.969,9.91a3.284,3.284,0,0,0-2.72-.875c-4.69.031-9.349.063-14.038.063a3.152,3.152,0,0,0-3.033,1.157c.125-3.72.969-6.94,1-10.223a5.973,5.973,0,0,1,5.034-1.844,63.508,63.508,0,0,0,7.316,0c1.97-.094,3.814.094,5.346,1.5A.938.938,0,0,0,180.722,275.06Z" transform="translate(-111.28 -187.808)"/><path class="o" d="M84.966,185a15.623,15.623,0,0,0,4,.313c7.222-.125,14.414.531,21.6.344,0,.625,0,1.25.031,1.876-1.032,3.814-1.5,7.753-2.22,11.629-.094-.031-.219-.063-.313-.094-.688-2.689-2.251-4.971-3.439-7.44-.25-.5-.688-.281-1.094-.094-2.5,1.157-5,2.313-7.5,3.439-.407.188-.782.344-.688.875-.125.031-.281.063-.406.094A2.253,2.253,0,0,0,94,194.566c-1.344-1.282-2.72-2.532-4.1-3.814-1.469-1.375-2.908-2.782-4.346-4.189a8.51,8.51,0,0,0-.782-.719C84.4,185.469,84.34,185.188,84.966,185Z" transform="translate(-58.077 -127.165)"/><path class="o" d="M214.011,186.289q11.678-.188,23.387-.344c.657,0,1.376-.156,1.939.313-.125.219-.219.406-.344.625-3.158,2.782-6,5.908-8.973,8.847a2.207,2.207,0,0,0-.406.813c-.219-.031-.469-.031-.688-.063.219-.75-.438-.875-.876-1.063-2.251-1.063-4.534-2.063-6.753-3.189-.938-.469-1.376-.188-1.782.688a41.334,41.334,0,0,1-3.033,6.127,1.962,1.962,0,0,1-.375-1c-.719-3-.938-6.065-1.876-9A13.427,13.427,0,0,1,214.011,186.289Z" transform="translate(-147.07 -127.798)"/><path class="l" d="M126.84,261.772a35.339,35.339,0,0,1-5.128,3.752q-5.581,3.845-11.193,7.628l-.125.031-.094-.094c.907-6.44,1.813-12.849,2.689-19.289,1.688.156,2.908,1.344,4.315,2.063,2.97,1.532,5.878,3.251,8.817,4.877A1.553,1.553,0,0,1,126.84,261.772Z" transform="translate(-75.813 -174.457)"/><path class="o" d="M86.726,253.222c-.907,6.44-1.813,12.849-2.689,19.289h0Q77.987,262.9,72,253.253c4.252-.094,8.5-.219,12.757-.312A3.067,3.067,0,0,1,86.726,253.222Z" transform="translate(-49.488 -173.848)"/><path class="o" d="M277.032,253.311q-4.549,7.268-9.1,14.568a22.672,22.672,0,0,1-3,4c-.688-6.19-1.345-12.38-2.032-18.538a2.608,2.608,0,0,1,1.813-.313A115.988,115.988,0,0,1,277.032,253.311Z" transform="translate(-180.702 -173.906)"/><path class="l" d="M88,190c1.438,1.407,2.908,2.814,4.346,4.189,1.344,1.282,2.72,2.532,4.1,3.814a2.253,2.253,0,0,1,.938,1.375c-.281,2.939.532,5.846-.094,8.91-.875-1.469-1.813-2.907-2.6-4.439-2.032-3.908-4.033-7.847-6.034-11.755A5.124,5.124,0,0,1,88,190Z" transform="translate(-60.486 -130.602)"/><path class="l" d="M263.275,198.66a2.209,2.209,0,0,1,.406-.813c3-2.939,5.847-6.065,8.973-8.847-.531,2.47-2,4.533-3.1,6.753-1.751,3.626-3.658,7.19-5.534,10.785a1.832,1.832,0,0,1-.875,1.063C262.524,204.569,263.556,201.63,263.275,198.66Z" transform="translate(-180.732 -129.915)"/><path class="n" d="M119.268,209.646c-.094-.531.281-.719.688-.875,2.5-1.157,5-2.282,7.5-3.439.375-.188.844-.406,1.094.094,1.188,2.47,2.751,4.752,3.439,7.44-3.94-.75-7.754-2.032-11.662-2.97C119.987,209.8,119.643,209.739,119.268,209.646Z" transform="translate(-81.968 -140.994)"/><path class="n" d="M222.077,212.521a44.65,44.65,0,0,0,3.033-6.127c.407-.875.813-1.157,1.782-.688,2.22,1.094,4.5,2.095,6.753,3.189.438.219,1.063.313.875,1.063-3.94,1.094-7.879,2.157-11.85,3.251C222.233,213.146,222.014,212.958,222.077,212.521Z" transform="translate(-152.635 -141.243)"/><path class="l" d="M161,204.629c.719-3.876,1.188-7.816,2.22-11.629a24.54,24.54,0,0,1,.844,6.878c.063,4.721.438,9.441.407,14.162a1.478,1.478,0,0,1-.438,1.375C162.97,211.726,161.969,208.162,161,204.629Z" transform="translate(-110.662 -132.664)"/><path class="l" d="M215.781,206c-.031.438.188.625.594.657a2.328,2.328,0,0,0-.969,1.657c-.469,3.1-1.094,6.19-1.626,9.285-.531-.125-.5-.438-.5-.656-.094-6.5-.532-13.005-.313-19.508.031-.563-.156-1.188.594-1.438.938,2.939,1.157,6.034,1.876,9C215.5,205.379,215.468,205.723,215.781,206Z" transform="translate(-146.339 -134.727)"/><path class="l" d="M205,50.2a.235.235,0,0,1,.281,0Z" transform="translate(-140.905 -34.472)"/><path class="l" d="M161.588,105.319c-.062-.063-.125-.156-.187-.219A.42.42,0,0,1,161.588,105.319Z" transform="translate(-110.937 -72.244)"/><path class="l" d="M218.219,105.1c-.062.094-.156.156-.219.25A1.787,1.787,0,0,1,218.219,105.1Z" transform="translate(-149.84 -72.244)"/><path class="l" d="M350.525,5.06c-.125.25-.281.469-.625.281C350.025,5,350.275,5.029,350.525,5.06Z" transform="translate(-240.5 -3.466)"/></g></g></svg>