<svg xmlns="http://www.w3.org/2000/svg" xmlns:xlink="http://www.w3.org/1999/xlink" viewBox="0 0 616 549"><defs><style>.a{opacity:0.5;}.b,.e,.f,.m{fill:none;}.b{stroke:#424d63;stroke-miterlimit:10;stroke-width:3px;}.c{fill:#011625;}.d,.k,.l{fill:#fff;}.d{font-size:20px;}.d,.h,.i,.k,.l,.n{font-family:Lato-Regular, Lato;letter-spacing:0.02em;}.e{stroke:#fff;opacity:0.15;}.g,.h{fill:#3cb458;}.h{font-size:18px;}.i,.n{fill:#6e8492;}.i{font-size:15px;}.j{fill:#0e283b;}.k{font-size:16px;}.l,.n{font-size:12px;}.l{text-decoration:underline;}.m{stroke:#6e8492;}.o{stroke:none;}.p{filter:url(#a);}</style><filter id="a" x="0" y="0" width="616" height="549" filterUnits="userSpaceOnUse"><feOffset dx="40" dy="50" input="SourceAlpha"/><feGaussianBlur stdDeviation="32.5" result="b"/><feFlood flood-opacity="0.2"/><feComposite operator="in" in2="b"/><feComposite in="SourceGraphic"/></filter></defs><g transform="translate(-321.5 -2277.5)"><g transform="translate(216 -133)"><g class="a" transform="translate(480.901 2414.573)"><g transform="translate(1.5 1.5)"><g transform="translate(0 61.744)"><path class="b" d="M30.747,55.373V114.15L19.161,101.858a10.236,10.236,0,0,0-14.412-.424,10.661,10.661,0,0,0-3.25,7.347A9.842,9.842,0,0,0,4.326,115.7l29.388,31.084a10.661,10.661,0,0,0,7.347,3.25,9.858,9.858,0,0,0,7.347-3.25l29.106-30.8a9.842,9.842,0,0,0,2.826-6.923,9.639,9.639,0,0,0-3.25-7.347,10.517,10.517,0,0,0-7.206-2.826,10.343,10.343,0,0,0-7.065,3.25L51.234,114.432V55.373A10.131,10.131,0,0,0,41.061,45.2,10.251,10.251,0,0,0,30.747,55.373Z" transform="translate(-1.5 -45.2)"/></g><g transform="translate(124.053 61.744)"><path class="b" d="M118.547,55.373V114.15l-11.586-12.292a10.236,10.236,0,0,0-14.412-.424,10.661,10.661,0,0,0-3.25,7.347,9.842,9.842,0,0,0,2.826,6.923l29.388,31.084a10.661,10.661,0,0,0,7.347,3.25,9.858,9.858,0,0,0,7.347-3.25l29.106-30.8a9.842,9.842,0,0,0,2.826-6.923,9.639,9.639,0,0,0-3.25-7.347,10.517,10.517,0,0,0-7.206-2.826,10.343,10.343,0,0,0-7.065,3.25l-11.586,12.292V55.373A10.131,10.131,0,0,0,128.861,45.2,10.251,10.251,0,0,0,118.547,55.373Z" transform="translate(-89.3 -45.2)"/></g><g transform="translate(62.027 0)"><path class="b" d="M94.993,96.165V37.388L106.579,49.68a10.237,10.237,0,0,0,14.412.424,10.661,10.661,0,0,0,3.25-7.347,9.842,9.842,0,0,0-2.826-6.923L92.026,4.75A10.661,10.661,0,0,0,84.679,1.5a9.858,9.858,0,0,0-7.347,3.25l-29.106,30.8A9.842,9.842,0,0,0,45.4,42.474a9.639,9.639,0,0,0,3.25,7.347,10.517,10.517,0,0,0,7.206,2.826A10.343,10.343,0,0,0,62.92,49.4L74.506,37.105V96.165a10.244,10.244,0,0,0,20.487,0Z" transform="translate(-45.4 -1.5)"/></g></g></g></g><g transform="translate(-10019 -1476)"><g class="p" transform="matrix(1, 0, 0, 1, 10340.5, 3753.5)"><path class="c" d="M4.73,0H416.27C418.882,0,421,2.615,421,5.842V348.158c0,3.226-2.118,5.842-4.73,5.842H4.73C2.118,354,0,351.385,0,348.158V5.842C0,2.615,2.118,0,4.73,0Z" transform="translate(57.5 47.5)"/></g><text class="d" transform="translate(10413 3839)"><tspan x="0" y="0">Market Maker</tspan></text><line class="e" x2="420.5" transform="translate(10398.5 3859.5)"/><g transform="translate(10361 3215)"><g transform="translate(52 860)"><path class="f" d="M5,0H385a5,5,0,0,1,5,5V55a5,5,0,0,1-5,5H5a5,5,0,0,1-5-5V5A5,5,0,0,1,5,0Z"/><path class="g" d="M5,1A4,4,0,0,0,1,5V55a4,4,0,0,0,4,4H385a4,4,0,0,0,4-4V5a4,4,0,0,0-4-4H5M5,0H385a5,5,0,0,1,5,5V55a5,5,0,0,1-5,5H5a5,5,0,0,1-5-5V5A5,5,0,0,1,5,0Z"/></g><text class="h" transform="translate(195.021 897)"><tspan x="0" y="0">Start Trading</tspan></text></g><text class="i" transform="translate(10415 3989)"><tspan x="0" y="0">Amount of Portfolio</tspan></text><g transform="translate(10359 3567)"><rect class="j" width="390" height="45" rx="3" transform="translate(54 436)"/><text class="k" transform="translate(71.583 464)"><tspan x="0" y="0">25</tspan></text></g><text class="i" transform="translate(10413 3895)"><tspan x="0" y="0">Spread</tspan></text><text class="i" transform="translate(10618 3895)"><tspan x="0" y="0">Refresh Time</tspan></text><g transform="translate(10359 3473)"><rect class="j" width="185" height="45" rx="3" transform="translate(54 436)"/><text class="k" transform="translate(71.492 464)"><tspan x="0" y="0">0.75</tspan></text></g><g transform="translate(10564 3473)"><rect class="j" width="185" height="45" rx="3" transform="translate(54 436)"/><text class="k" transform="translate(71.492 464)"><tspan x="0" y="0">75</tspan></text></g><text class="i" transform="translate(10575.977 3938)"><tspan x="0" y="0">%</tspan></text><text class="i" transform="translate(10733.987 3938)"><tspan x="0" y="0">seconds</tspan></text><text class="i" transform="translate(10779.977 4032)"><tspan x="0" y="0">%</tspan></text><text class="l" transform="translate(10742.548 3836)"><tspan x="0" y="0">Learn more</tspan></text><g transform="translate(8911 3677)"><g class="m" transform="translate(1645 142)"><rect class="o" width="44" height="27" rx="5"/><rect class="f" x="0.5" y="0.5" width="43" height="26" rx="4.5"/></g><text class="n" transform="translate(1658.256 160)"><tspan x="0" y="0">idle</tspan></text></g></g></g></svg>