<svg preserveAspectRatio="none" xmlns="http://www.w3.org/2000/svg" xmlns:xlink="http://www.w3.org/1999/xlink" width="1210" height="412" viewBox="0 0 1210 412">
  <defs>
    <path id="bg-metamask-a" d="M715.763,61.23 C1011.527,65.306 1209.097,144.385 1209.097,246.961 L1209.097,250.885 C1209.097,353.462 980.397,413.754 682.846,460.185 C385.295,506.616 -8.293,420.685 0.134,274.175 C0.133,274.177 419.999,57.154 715.763,61.23 Z"/>
  </defs>
  <g fill="none" fill-rule="evenodd" transform="translate(0 -61)">
    <mask id="bg-metamask-b" fill="#fff">
      <use xlink:href="#bg-metamask-a"/>
    </mask>
    <use fill="#1E2A41" fill-rule="nonzero" xlink:href="#bg-metamask-a"/>
    <g mask="url(#bg-metamask-b)">
      <g transform="translate(627.779 .684)">
        <g transform="translate(49.461 .816)">
          <path stroke="#011625" d="M0,359.792 L0,357.003 C4.324,358.258 3.068,354.074 3.487,352.68 C10.321,333.157 16.737,313.493 23.432,293.83 C29.15,277.23 35.008,260.779 40.727,244.324 C46.864,244.324 52.443,241.674 58.161,240.14 C88.0083333,231.912 117.855333,223.637667 147.702,215.317 C144.494,221.732 139.473,227.031 135.707,233.028 C130.407,241.395 122.457,247.95 119.807,257.851 C117.018,258.688 117.296,259.943 119.107,261.616 C120.362,262.592 121.339,263.708 122.594,264.823 C122.733,268.17 123.989,271.098 125.383,274.023 C134.309,291.455 143.236,309.023 152.301,326.458 C155.788,333.152 159.972,339.706 163.877,346.258 C166.666,332.731 163.177,319.622 164.295,306.514 C164.853,306.375 165.55,306.235 166.108,306.096 C167.642,306.514 169.176,306.796 170.85,307.212 C188.284,311.396 205.3,317.112 222.873,320.46 C223.291,320.599 223.849,320.739 224.268,320.878 C228.592,336.636 233.055,352.534 237.657,368.85 C240.307,366.479 239.61,364.527 239.61,362.714 C239.889,341.656 238.076,320.599 237.797,299.541 C237.658,289.361 237.097,278.902 234.031,268.861 C234.031,266.072 234.031,263.283 233.891,260.633 C234.309,255.055 233.054,249.616 232.775,244.033 C231.101,221.023 230.404,198.013 228.175,175.003 C227.338,166.357 228.454,157.432 225.665,148.925 L225.665,147.252 C225.509752,146.838186 225.213312,146.492516 224.828,146.276 C224.442688,146.059484 224.146248,145.713814 223.991,145.3 C224.409,142.65 223.154,140.419 222.317,138.048 C213.672,115.05 202.933,93.016 194.983,69.727 C225.249,69.727 255.514,69.866 285.64,69.866 L331.526,69.866 C329.992,81.441 324.134,91.621 320.508,102.498 C315.766,116.862 308.792,130.528 305.308,145.45 C305.11741,145.76213 304.881501,146.04421 304.608,146.287 C304.329,146.705 303.908,146.987 303.632,147.403 L303.632,148.937 C301.4,161.627 302.656,174.457 301.958,187.148 C300.703,211.692 299.448,236.097 298.192,260.64 C297.492,264.824 299.029,268.868 299.308,273.051 C295.961,274.167 296.658,277.095 296.658,279.466 C295.821,308.473 297.774,337.479 298.053,366.486 C298.053,367.602 297.914,368.857 300.285,369.415 C302.796,355.609 305.445,341.803 307.538,327.997 C308.096,324.65 309.212,322.419 311.862,320.606 C329.435,315.725 347.009,310.984 364.722,306.106 C365.698,306.245 366.814,306.245 367.791,306.385 C369.046,319.494 364.444,332.602 367.233,346.129 C369.883,345.013 370.301,343.061 371.138,341.388 C379.367,325.351 387.875,309.453 395.825,293.276 C400.706,283.376 407.125,274.171 409.633,263.154 C410.191,262.178 410.609,261.341 411.167,260.365 C415.351,258.413 412.004,256.739 410.888,255.205 C402.659,244.605 394.43,234.005 386.062,223.549 C384.251039,221.43698 383.174442,218.794265 382.994,216.018 C417.444,225.64 451.894,235.402 486.343,245.025 C489.411,254.225 492.619,263.293 495.688,272.498 C504.754,300.389 513.82,328.419 522.888,356.31 C518.425,362.028 512.149,359.238 506.849,358.82 C481.049,357.007 455.249,354.357 429.302,353.52 C411.031,351.707 392.621,352.265 374.35,352.125 C371.561,352.125 368.771,351.425 366.261,353.52 C357.195,356.03 350.361,362.445 342.272,366.908 C330.835,373.323 320.514,381.69 308.659,387.268 C301.825,380.993 293.735,380.156 284.809,380.574 C273.937153,381.131932 263.043847,381.131932 252.172,380.574 C243.106,380.016 235.854,382.526 229.717,388.802 C228.88,388.802 227.904,388.942 227.067,388.942 C226.759573,387.107512 225.62919,385.514733 223.999,384.619 C210.889,377.367 198.057,369.697 184.668,362.864 C178.392,359.657 172.952,354.357 165.421,353.664 C162.771,351.572 159.563,352.27 156.634,352.409 C137.666,352.827 118.697,353.385 99.734,353.804 C90.25,354.362 80.766,354.641 71.282,355.338 C47.851,357.011 24.282,358.964 0.848,360.638 C1.255,360.627 1.674,358.955 0,359.792 Z"/>
          <path stroke="#011625" d="M147.841 215.318C117.994 223.546 88.147 231.918 58.3 240.141 52.582 241.675 47 244.325 40.866 244.325 34.59 236.934 28.313 229.543 21.898 222.152 19.248 219.084 17.714 216.152 22.735 213.645 28.035 210.995 26.919 207.645 23.435 204.445 20.785 201.935 17.717 199.704 15.067 197.193 13.254 195.659 12.556 194.404 15.067 192.312 24.83 183.805 24.691 183.805 14.509 176.135 13.934994 175.756231 13.3282403 175.429594 12.696 175.159 9.628 173.067 10.046 170.696 12.975 169.302 18.693 166.652 18.833 161.911 17.857 156.891 14.505 137.781 10.879 118.676 7.392 99.57 5.16 88 4.049 76.979 8.787 65.125 17.434 43.928 24.408 21.755 32.079 0L34.868 0C34.31 1.534 35.426 2.231 36.402 2.929 37.657 6.136 40.726 7.67 43.376 9.623 85.776 41.6976667 128.222333 73.7256667 170.715 105.707 188.568 119.095 206.42 132.207 224.415 145.452 224.570248 145.865814 224.866688 146.211484 225.252 146.428 225.531 146.707 225.81 147.128 226.089 147.404L226.089 149.077C199.864 171.25 173.922 193.284 147.841 215.318zM523.162 356.865C525.393 357.565 523.022 360.909 525.812 361.188L525.812 363.975C522.604 362.998 523.301 365.648 522.883 367.182 513.538 401.767 504.194 436.351 495.128 470.936 493.594 476.653 491.781 477.351 486.202 475.536 449.102 463.125 411.863 451.271 374.624 439.278 353.005 422.543 331.387 405.948 309.769 389.214 309.63 388.796 309.35 388.378 309.211 387.959 321.066 382.381 331.387 374.013 342.824 367.599 350.774 363.137 357.608 356.582 366.813 354.211 369.882 381.823 372.813 409.435 375.879 436.911 381.008614 431.491122 385.500863 425.501792 389.268 419.06 402.796667 397.445333 416.325667 375.783333 429.855 354.074 455.797 354.774 481.46 357.421 507.402 359.374 512.422 359.793 518.559 362.582 523.162 356.865zM490.804 7.113C495.825 4.324 498.475 5.718 500.288 11.297 507.262 33.191 514.654 54.807 521.906 76.562 522.96781 79.6067302 523.209236 82.8773623 522.606 86.045 517.725 110.728 513.122 135.551 507.962 160.095 506.427 167.765 512.425 169.295 516.609 172.785 514.099 176.969 509.496 178.642 506.288 181.85 503.08 185.058 502.662 187.01 506.846 189.938 514.098 194.958 513.959 195.238 507.404 201.792 506.38252 203.045704 505.211487 204.169722 503.917 205.139 498.477 208.765 498.199 211.833 504.335 215.039 508.38 217.131 507.404 219.639 504.754 222.709 498.478 230.1 492.62 237.77 486.623 245.44 452.173 235.818 417.723 226.056 383.274 216.433 380.181592 214.921507 377.279049 213.049137 374.627 210.855 351.196 190.216 327.627 169.716 304.054 149.077L304.054 147.543C304.333 147.125 304.754 146.843 305.031 146.427 305.365928 146.251659 305.61766 145.95066 305.731 145.59 306.594975 145.227967 307.433837 144.808703 308.242 144.335 366.954667 100.686333 425.624 56.9443333 484.25 13.109 485.784 11.993 488.992 11.436 488.016 8.089L488.016 8.089C489.55 9.204 490.25 8.228 490.804 7.113zM153.978 440.119C126.502 449.184 99.026 458.108 71.55 467.173 60.113 470.938 48.676 474.564 37.24 478.33 34.311 479.306 32.358 479.864 31.382 475.68 21.4793333 438.167333 11.4836667 400.700667 1.395 363.28 1.37622761 362.579862 1.42276226 361.879499 1.534 361.188 24.965 359.375 48.534 357.562 71.968 355.888 81.452 355.188 90.936 354.772 100.42 354.354L153.978 440.119zM374.623 439.282C359.839 452.809 341.707 460.758 324.134 470.101 314.615123 475.172621 303.9543 477.717404 293.171 477.492 274.203 477.213 255.234 476.377 236.271 478.192 227.345 479.029 220.232 473.311 212.282 470.243 192.059 462.433 172.532 453.369 154.959 440.399 171.559 429.099 188.293 417.808 204.89 406.372 212.7 401.072 220.929 396.332 227.763 389.638 228.6 389.638 229.576 389.498 230.413 389.498 230.274 404.14 226.508 418.504 225.95 435.098 230.134 429.52 234.876 429.938 239.479 429.938 260.4 429.938 281.179 429.798 302.102 429.659 306.007 429.659 309.913 429.38 314.236 433.559 312.702 417.659 311.307 403.576 309.913 389.352 331.387 405.957 353.005 422.687 374.623 439.282z"/>
          <path stroke="#011625" d="M147.842 215.316C173.923 193.282 199.865 171.248 225.942 149.216 228.731 157.723 227.616 166.648 228.453 175.294 230.685 198.165 231.382 221.314 233.053 244.324 233.471 249.902 234.587 255.341 234.169 260.919 201.951 261.756 169.869 258.967 137.794 259.385 131.809766 259.689245 125.811281 259.220377 119.947 257.99 122.597 248.09 130.547 241.535 135.847 233.167 139.613 227.032 144.634 221.872 147.842 215.316zM304.051 149.216C327.621667 169.716 351.146 190.308667 374.624 210.994 377.274 213.365 380.342 214.894 383.271 216.572 383.451585 219.348232 384.528164 221.990904 386.339 224.103 394.708 234.562 403.076 245.161 411.165 255.759 412.281 257.293 415.765 258.967 411.444 260.919 408.794 258.688 405.726 259.385 402.797 259.524 368.068333 259.942667 333.293 260.454 298.471 261.058 299.726 236.514 300.982 212.109 302.237 187.565 303.072 174.736 301.819 161.906 304.051 149.216zM488.155 8.228C489.132 11.575 485.924 11.993 484.389 13.248 425.811 57.0346667 367.139333 100.777 308.374 144.475 307.581279 144.975992 306.740426 145.396418 305.864 145.73 309.351 130.808 316.185 117.281 321.064 102.778 324.69 91.901 330.548 81.72 332.082 70.146 352.864 61.918 373.787 53.828 394.564 45.323 424.550667 33.1896667 454.444333 21.0563333 484.245 8.923 485.527651 8.58714718 486.835178 8.35473502 488.155 8.228L488.155 8.228zM36.402 2.929C89.262 25.2416667 142.168667 47.5543333 195.122 69.867 203.072 93.016 213.811 115.19 222.459 138.2 223.296 140.571 224.551 142.8 224.133 145.452 206.281 132.204 188.289 119.095 170.433 105.707 128.173 73.7736667 85.8196667 41.7456667 43.373 9.623 40.865 7.67 37.797 6.276 36.402 2.929zM309.768 389.217C311.163 403.441 312.558 417.526 314.092 433.424 309.768 429.24 305.863 429.519 301.958 429.519 281.037 429.658 260.258 429.798 239.335 429.798 234.735 429.798 230.13 429.379 225.806 434.958 226.364 418.363 230.13 403.999 230.269 389.358 236.406 383.082 243.658 380.433 252.724 381.13 263.593952 381.75748 274.491048 381.75748 285.361 381.13 294.147 380.711 302.377 381.548 309.211 387.824 309.311224 388.3181 309.499923 388.790018 309.768 389.217L309.768 389.217z"/>
          <path stroke="#011625" d="M119.947 257.991C125.813239 259.22187 131.813771 259.69074 137.8 259.386 170.018 258.828 202.1 261.757 234.176 260.92 234.176 263.709 234.176 266.498 234.316 269.287 229.716 286.3 227.621 303.872 224.416 321.164 223.998 321.024 223.44 320.885 223.021 320.745 219.953 308.752 212.979 298.572 207.679 287.555 206.563 285.324 204.611 286.3 202.798 287.137 191.64 292.297 180.482 297.457 169.325 302.477 167.512 303.314 165.838 304.011 166.256 306.377 165.698 306.516 165.001 306.656 164.443 306.795 164.164 304.006 162.072 302.332 160.259 300.659 154.259 294.941 148.125 289.359 141.988 283.645 135.433 277.509 129.017 271.234 122.601 264.958 121.50658 263.817433 120.341979 262.746347 119.114 261.751 117.436 260.083 117.153 258.828 119.947 257.991zM298.611 260.92C333.339667 260.362 368.114667 259.850667 402.936 259.386 405.865 259.386 409.073 258.686 411.584 260.781 411.026 261.757 410.608 262.594 410.05 263.57 395.963 275.981 383.271 289.927 370.021 303.036 369.044 303.873 368.766 305.407 368.208 306.662 367.232 306.523 366.116 306.523 365.14 306.383 366.116 303.036 363.187 302.483 361.234 301.642 351.192 296.9 341.011 292.442 331.108 287.417 326.924 285.325 324.971 286.58 323.158 290.485 318.974 299.685 315.348 309.311 309.629 317.818 308.374 316.563 308.374 314.889 307.955 313.355 304.747 299.967 303.77 286.301 299.586 273.192 299.448 269.147 297.914 265.103 298.611 260.92zM227.619 389.496C220.785 396.19 212.556 400.931 204.746 406.231 188.146 417.665667 171.502333 429.007667 154.815 440.257L154.257 440.396 153.838 439.978C157.883 411.25 161.928 382.662 165.833 353.935 173.365 354.635 178.804 359.935 185.08 363.135 198.33 369.968 211.301 377.635 224.412 384.89 226.082969 385.904103 227.247725 387.576964 227.619 389.496z"/>
          <path stroke="#011625" d="M166.112 354.074C162.067 382.802 158.023 411.39 154.117 440.117L154.117 440.117C136.125 411.529 118.225 382.895667 100.417 354.217 119.385 353.799 138.354 353.241 157.317 352.823 160.254 352.819 163.462 352.122 166.112 354.074zM429.715 354.219C416.186333 375.834333 402.657667 397.496333 389.129 419.205 385.363 425.205 381.457 431.198 375.74 437.056 372.671 409.444 369.74 381.831 366.674 354.356 369.044 352.404 371.974 352.961 374.763 352.961 393.034 352.819 411.305 352.402 429.715 354.219zM122.736 264.963C129.152 271.239 135.707 277.514 142.123 283.65 148.123 289.367 154.257 294.95 160.394 300.664 162.207 302.337 164.299 304.01 164.578 306.8 163.323 319.909 166.949 332.878 164.159 346.544 160.254 339.99 156.07 333.575 152.583 326.744 143.517 309.312 134.591 291.744 125.665 274.309 124.131 271.239 122.875 268.31 122.736 264.963zM368.208 306.661C368.766 305.406 369.045 303.872 370.021 303.035 383.411 289.926 396.103 275.981 410.049 263.569 407.679 274.586 401.123 283.79 396.242 293.691 388.432 309.868 379.923 325.766 371.555 341.803 370.719 343.337 370.3 345.289 367.65 346.544 364.86 333.018 369.463 319.909 368.208 306.661zM166.391 306.242C165.973 303.871 167.646 303.034 169.459 302.337 180.617 297.177 191.774 292.157 202.932 286.997 204.606 286.16 206.698 285.184 207.814 287.415 213.114 298.432 220.088 308.615 223.156 320.605 205.582 317.258 188.567 311.54 171.133 307.357 169.599 306.939 168.065 306.66 166.391 306.242zM309.769 317.956C315.487 309.449 318.969 299.827 323.298 290.623 325.111 286.723 326.924 285.463 331.248 287.555 341.148 292.436 351.332 296.898 361.374 301.779 363.327 302.755 366.116 303.174 365.279 306.52 347.705 311.401 330.132 316.142 312.419 321.02 310.467 320.745 309.49 319.908 309.769 317.956zM224.551 321.024C227.759 303.732 229.851 286.16 234.451 269.147 237.519 279.188 238.077 289.647 238.217 299.827 238.496 320.885 240.17 341.942 240.03 363 240.03 364.673 240.588 366.765 238.077 369.136 233.338 352.68 228.875 336.782 224.551 321.024z"/>
          <path stroke="#011625" d="M309.769 317.955C309.63 319.907 310.606 320.744 312.419 320.884 309.982343 322.611507 308.40729 325.304364 308.096 328.275 306.004 342.081 303.214 355.887 300.843 369.693 298.472 369.135 298.612 367.741 298.612 366.764 298.193 337.757 296.241 308.751 297.217 279.744 297.356 277.234 296.517 274.444 299.867 273.329 304.051 286.438 305.027 300.244 308.235 313.492 308.514 315.166 308.374 316.7 309.769 317.955zM285.919 70.145C286.29087 69.8661667 286.80213 69.8661667 287.174 70.145L285.919 70.145zM225.946 147.543C225.667 147.264 225.388 146.843 225.11 146.567 225.494881 146.783765 225.790929 147.12939 225.946 147.543L225.946 147.543zM305.026 146.567C304.747 146.985 304.326 147.267 304.05 147.683 304.339975 147.281501 304.666719 146.907887 305.026 146.567L305.026 146.567z"/>
        </g>
        <g transform="translate(.925 194.029)">
          <path d="M0,112.875 L0,112 C1.356,112.394 0.963,111.081 1.094,110.644 C3.238,104.519 5.251,98.35 7.351,92.182 C9.145,86.976 10.983,81.813 12.777,76.651 C14.702,76.651 16.452,75.82 18.246,75.339 C27.61,72.7576667 36.9736667,70.162 46.337,67.552 C45.331,69.564 43.755,71.227 42.574,73.108 C40.911,75.733 38.417,77.789 37.586,80.895 C36.711,81.158 36.798,81.551 37.367,82.076 C37.761,82.382 38.067,82.732 38.461,83.082 C38.5509499,84.0945978 38.8488241,85.0777529 39.336,85.97 C42.136,91.439 44.936,96.951 47.781,102.42 C48.875,104.52 50.188,106.576 51.413,108.632 C52.288,104.388 51.194,100.276 51.544,96.163 C51.719,96.119 51.938,96.075 52.113,96.032 C52.594,96.163 53.076,96.251 53.601,96.382 C59.07,97.695 64.409,99.488 69.922,100.538 C70.053,100.582 70.228,100.626 70.36,100.669 C71.716,105.613 73.117,110.6 74.56,115.719 C75.1084777,115.242613 75.3450133,114.499821 75.173,113.794 C75.261,107.188 74.692,100.582 74.604,93.975 C74.6675786,90.7269557 74.2699486,87.4863214 73.423,84.35 C73.423,83.475 73.423,82.6 73.379,81.769 C73.3713289,80.0280545 73.2544326,78.2893054 73.029,76.563 C72.504,69.344 72.285,62.126 71.585,54.907 C71.322,52.194 71.673,49.394 70.797,46.726 L70.797,46.201 C70.7481695,46.0711724 70.6550147,45.9627869 70.534,45.895 C70.4129853,45.8272131 70.3198305,45.7188276 70.271,45.589 C70.2954759,44.7980461 70.1145986,44.0142444 69.746,43.314 C67.034,36.094 63.665,29.181 61.17,21.875 C70.665,21.875 80.16,21.919 89.611,21.919 L104.011,21.919 C103.53,25.55 101.692,28.744 100.554,32.156 C99.066,36.662 96.879,40.95 95.785,45.631 C95.7253484,45.7286758 95.6515462,45.8169689 95.566,45.893 C95.478,46.024 95.347,46.112 95.26,46.243 L95.26,46.724 C94.56,50.705 94.954,54.73 94.735,58.711 C94.341,66.411 93.947,74.067 93.554,81.767 C93.335,83.079 93.817,84.348 93.904,85.661 C92.854,86.011 93.073,86.93 93.073,87.673 C92.81,96.773 93.423,105.873 93.511,114.973 C93.511,115.323 93.467,115.717 94.211,115.892 C94.999,111.561 95.83,107.23 96.486,102.898 C96.5653198,101.960115 97.0635387,101.108073 97.842,100.579 C103.355,99.048 108.868,97.56 114.425,96.029 C114.731,96.073 115.081,96.073 115.388,96.116 C115.782,100.228 114.338,104.341 115.213,108.585 C116.044,108.235 116.176,107.622 116.438,107.098 C119.02,102.067 121.689,97.079 124.183,92.004 C125.714,88.898 127.727,86.01 128.515,82.554 C128.69,82.248 128.821,81.985 128.996,81.679 C130.309,81.066 129.259,80.541 128.908,80.06 C126.326,76.735 123.745,73.41 121.119,70.129 C120.550588,69.4663945 120.21265,68.6371652 120.156,67.766 C130.964,70.785 141.771,73.847 152.579,76.866 C153.542,79.753 154.548,82.597 155.511,85.485 C158.355,94.235 161.199,103.029 164.043,111.779 C162.643,113.573 160.674,112.698 159.011,112.567 C150.916,111.998 142.821,111.167 134.683,110.905 C128.951,110.336 123.175,110.511 117.443,110.467 C116.568,110.467 115.693,110.248 114.905,110.905 C112.061,111.692 109.917,113.705 107.379,115.105 C103.791,117.117 100.553,119.742 96.834,121.492 C94.69,119.523 92.152,119.261 89.352,119.392 C85.9412441,119.567032 82.5237559,119.567032 79.113,119.392 C76.4913287,119.112025 73.8883278,120.065658 72.068,121.973 C71.805,121.973 71.499,122.017 71.237,122.017 C71.1403957,121.441459 70.7855756,120.941837 70.274,120.661 C66.161,118.386 62.135,115.98 57.935,113.836 C55.966,112.83 54.26,111.167 51.897,110.948 C51.066,110.292 50.059,110.511 49.14,110.554 C43.189,110.685 37.24,110.86 31.288,110.992 C28.313,111.167 25.337,111.254 22.362,111.473 C15.011,111.998 7.616,112.61 0.262,113.136 C0.394,113.137 0.525,112.612 0,112.875 Z"/>
          <path d="M46.381 67.55C37.017 70.131 27.654 72.756 18.29 75.337 16.496 75.818 14.746 76.65 12.821 76.65 10.852 74.331 8.883 72.012 6.87 69.694 6.039 68.732 5.557 67.813 7.133 67.025 8.796 66.194 8.446 65.144 7.352 64.138 6.521 63.35 5.558 62.65 4.727 61.863 4.158 61.382 3.939 60.988 4.727 60.332 7.79 57.663 7.746 57.663 4.552 55.257 4.37184357 55.1382267 4.18141705 55.0358181 3.983 54.951 3.02 54.295 3.152 53.551 4.071 53.113 5.865 52.282 5.909 50.794 5.602 49.219 4.551 43.225 3.413 37.231 2.319 31.237 1.619 27.606 1.269 24.15 2.757 20.431 5.47 13.781 7.657 6.825 10.064 0L10.939 0C10.764.481 11.114.7 11.42.919 11.814 1.925 12.776 2.406 13.608 3.019 26.91 13.081 40.2263333 23.1286667 53.557 33.162 59.157 37.362 64.757 41.474 70.403 45.631 70.4518305 45.7608276 70.5449853 45.8692131 70.666 45.937 70.754 46.024 70.841 46.156 70.929 46.243L70.929 46.768C62.702 53.725 54.563 60.637 46.381 67.55zM164.127 111.956C164.827 112.175 164.083 113.225 164.958 113.312L164.958 114.187C163.952 113.881 164.17 114.712 164.039 115.193 161.107 126.043 158.176 136.893 155.332 147.743 154.851 149.537 154.282 149.755 152.532 149.187 140.893 145.293 129.21 141.575 117.532 137.812 110.75 132.562 103.968 127.356 97.186 122.106 97.142 121.975 97.055 121.844 97.011 121.712 100.73 119.962 103.968 117.337 107.556 115.324 110.05 113.924 112.194 111.868 115.082 111.124 116.045 119.786 116.964 128.449 117.926 137.068 119.535097 135.367711 120.94427 133.488814 122.126 131.468 126.37 124.686667 130.614333 117.891 134.859 111.081 142.998 111.3 151.049 112.131 159.187 112.744 160.758 112.875 162.683 113.75 164.127 111.956zM153.976 2.232C155.551 1.357 156.383 1.794 156.951 3.544 159.139 10.413 161.458 17.194 163.733 24.019 164.065883 24.9742497 164.141414 26.0003022 163.952 26.994 162.421 34.738 160.977 42.525 159.358 50.225 158.877 52.631 160.758 53.112 162.071 54.206 161.283 55.518 159.839 56.044 158.833 57.05 157.827 58.056 157.695 58.669 159.008 59.587 161.283 61.162 161.239 61.25 159.183 63.306 158.862535 63.6993207 158.495137 64.051942 158.089 64.356 156.382 65.493 156.295 66.456 158.22 67.462 159.489 68.118 159.183 68.906 158.351 69.868 156.382 72.187 154.544 74.593 152.663 76.999 141.855 73.98 131.048 70.918 120.24 67.899 119.269754 67.4248121 118.359078 66.837388 117.527 66.149 110.176 59.675 102.782 53.244 95.387 46.769L95.387 46.288C95.474 46.157 95.606 46.069 95.693 45.938 95.7979287 45.8827703 95.876682 45.7881945 95.912 45.675 96.1831414 45.5613478 96.4463934 45.4297218 96.7 45.281 115.121333 31.587 133.528 17.864 151.92 4.112 152.401 3.762 153.408 3.587 153.101 2.537L153.101 2.537C153.582 2.888 153.801 2.581 153.976 2.232zM48.306 138.075C39.686 140.919 31.066 143.719 22.446 146.562 18.858 147.743 15.27 148.881 11.682 150.062 10.763 150.368 10.151 150.543 9.844 149.231 6.738 137.462333 3.60233333 125.708333.437 113.969.431261585 113.749441.44599191 113.529826.481 113.313 7.832 112.744 15.227 112.175 22.581 111.65 25.556 111.431 28.532 111.3 31.507 111.169L48.306 138.075zM117.527 137.813C112.889 142.057 107.201 144.55 101.687 147.482 98.7006764 149.073211 95.3560587 149.871663 91.973 149.801 86.0228304 149.545879 80.0631205 149.61899 74.121 150.02 71.321 150.283 69.089 148.489 66.595 147.526 60.2076282 145.226206 54.1589644 142.076918 48.612 138.163 53.819 134.619 59.07 131.076 64.276 127.488 66.8208028 125.957044 69.2225096 124.199943 71.452 122.238 71.715 122.238 72.021 122.194 72.283 122.194 72.239 126.788 71.058 131.294 70.883 136.5 72.196 134.75 73.683 134.881 75.127 134.881 81.69 134.881 88.21 134.837 94.773 134.794 96.162403 134.600481 97.5641728 135.051537 98.58 136.019 98.099 131.032 97.661 126.613 97.224 122.15 103.963 127.356 110.745 132.606 117.527 137.813z"/>
          <path d="M46.381 67.55C54.563 60.637 62.702 53.725 70.881 46.812 71.756 49.481 71.406 52.281 71.669 54.993 72.369 62.168 72.588 69.431 73.113 76.649 73.3601777 78.3730878 73.4771751 80.1133414 73.463 81.855 63.355 82.118 53.292 81.243 43.228 81.374 41.3502649 81.4694218 39.4680648 81.3222069 37.628 80.936 38.459 77.83 40.953 75.774 42.616 73.149 43.8 71.224 45.375 69.606 46.381 67.55zM95.387 46.812C102.781667 53.2433333 110.161667 59.7036667 117.527 66.193 118.366038 66.8718289 119.275592 67.4585303 120.24 67.943 120.296439 68.8140308 120.634012 69.6432254 121.202 70.306 123.827 73.587 126.453 76.912 128.991 80.237 129.341 80.718 130.435 81.243 129.078 81.856 128.247 81.156 127.284 81.375 126.365 81.418 115.469667 81.5513333 104.56 81.7116667 93.636 81.899 94.03 74.199 94.424 66.543 94.818 58.843 95.081 54.818 94.687 50.793 95.387 46.812zM153.145 2.581C153.452 3.631 152.445 3.762 151.964 4.156 133.586667 17.8933333 115.18 31.6163333 96.744 45.325 96.49514 45.4823012 96.231157 45.6142927 95.956 45.719 97.05 41.038 99.194 36.794 100.725 32.244 101.863 28.831 103.7 25.638 104.182 22.007 110.702 19.426 117.265 16.888 123.782 14.22 133.189333 10.414 142.567667 6.60766667 151.917 2.801 152.319782 2.69490453 152.730436 2.6213346 153.145 2.581zM11.42.919C28.0033333 7.919 44.6013333 14.919 61.214 21.919 63.708 29.181 67.077 36.138 69.79 43.356 70.1603327 44.0557768 70.3429385 44.8396039 70.32 45.631 64.72 41.475 59.075 37.362 53.474 33.162 40.2126667 23.144 26.924 13.0963333 13.608 3.019 12.82 2.406 11.858 1.969 11.42.919zM97.181 122.106C97.619 126.569 98.056 130.987 98.538 135.975 97.5221728 135.007537 96.120403 134.556481 94.731 134.75 88.168 134.794 81.648 134.838 75.085 134.838 73.641 134.838 72.197 134.707 70.841 136.457 71.016 131.251 72.197 126.744 72.241 122.151 74.0497213 120.226016 76.6617914 119.269061 79.286 119.57 82.6961618 119.766844 86.1148382 119.766844 89.525 119.57 92.282 119.439 94.863 119.701 97.007 121.67 97.0383165 121.824612 97.0972598 121.972309 97.181 122.106L97.181 122.106z"/>
          <path d="M37.63 80.937C39.4701115 81.3228495 41.3523083 81.4697281 43.23 81.374 53.338 81.199 63.401 82.118 73.465 81.855 73.465 82.73 73.465 83.605 73.509 84.48 72.065 89.817 71.409 95.33 70.402 100.755 70.271 100.711 70.096 100.668 69.964 100.624 69.001 96.862 66.814 93.668 65.151 90.212 64.801 89.512 64.188 89.818 63.62 90.081 60.12 91.7 56.62 93.318 53.12 94.893 52.551 95.155 52.026 95.374 52.157 96.118 51.982 96.162 51.763 96.205 51.588 96.249 51.4121917 95.4632167 50.9424131 94.7744704 50.275 94.324 48.394 92.53 46.468 90.78 44.543 88.986 42.487 87.061 40.474 85.092 38.461 83.124 38.1176504 82.7661998 37.7522713 82.4302114 37.367 82.118 36.842 81.593 36.755 81.2 37.63 80.937zM93.681 81.856C104.576333 81.6806667 115.486 81.5203333 126.41 81.375 127.329 81.375 128.335 81.156 129.123 81.813 128.948 82.119 128.817 82.382 128.642 82.688 124.223 86.582 120.242 90.957 116.084 95.069 115.817568 95.4044599 115.6238 95.7916551 115.515 96.206 115.209 96.162 114.859 96.162 114.552 96.118 114.858 95.068 113.939 94.893 113.327 94.631 110.177 93.143 106.982 91.743 103.876 90.168 102.563 89.512 101.951 89.906 101.382 91.13 100.206547 94.1006215 98.7870262 96.9687627 97.138 99.705 96.8368727 99.2958779 96.6551351 98.8112442 96.613 98.305 95.607 94.105 95.3 89.817 93.988 85.705 93.944 84.437 93.462 83.169 93.681 81.856zM71.41 122.193C69.1804689 124.154892 66.7787668 125.91199 64.234 127.443 59.0273333 131.030333 53.8056667 134.588667 48.569 138.118L48.394 138.162 48.263 138.031C49.532 129.019 50.801 120.05 52.026 111.037 54.389 111.256 56.095 112.918 58.064 113.924 62.221 116.068 66.29 118.474 70.403 120.749 70.9273424 121.066723 71.2930694 121.591161 71.41 122.193L71.41 122.193z"/>
          <path d="M52.113 111.081C50.844 120.093 49.575 129.062 48.35 138.075L48.35 138.075C42.7053333 129.106333 37.09 120.123 31.504 111.125 37.455 110.994 43.404 110.819 49.356 110.688 50.275 110.687 51.282 110.468 52.113 111.081zM134.812 111.124C130.568 117.905333 126.323667 124.701 122.079 131.511 120.889846 133.526873 119.481275 135.404968 117.879 137.111 116.916 128.448 115.997 119.786 115.035 111.167 115.799642 110.717369 116.701884 110.561663 117.573 110.729 123.322273 110.555114 129.076725 110.686967 134.812 111.124L134.812 111.124zM38.505 83.125C40.518 85.094 42.574 87.063 44.587 88.988 46.469 90.782 48.394 92.532 50.319 94.326 50.9864131 94.7764704 51.4561917 95.4652167 51.632 96.251 51.238 100.364 52.376 104.432 51.501 108.72 50.276 106.664 48.963 104.651 47.869 102.507 45.025 97.038 42.225 91.526 39.424 86.057 38.9093909 85.1575594 38.5958591 84.15726 38.505 83.125zM115.515 96.206C115.623699 95.7913132 115.81747 95.4037712 116.084 95.068 120.284 90.955 124.266 86.581 128.642 82.687 127.898 86.143 125.842 89.031 124.31 92.137 121.86 97.212 119.19 102.2 116.565 107.231 116.365496 107.867065 115.926111 108.400425 115.34 108.718 114.465 104.475 115.909 100.362 115.515 96.206zM52.201 96.075C52.07 95.331 52.595 95.069 53.164 94.85 56.664 93.231 60.164 91.656 63.664 90.038 64.189 89.776 64.845 89.469 65.195 90.169 66.858 93.625 69.045 96.819 70.008 100.581 64.495 99.531 59.157 97.737 53.687 96.425 53.207 96.294 52.727 96.206 52.201 96.075zM97.181 99.75C98.975 97.081 100.069 94.062 101.425 91.175 101.994 89.95 102.563 89.556 103.919 90.213 107.026 91.744 110.219 93.144 113.37 94.675 113.983 94.981 114.858 95.112 114.595 96.162 109.082 97.693 103.569 99.181 98.012 100.712 97.4 100.625 97.094 100.362 97.181 99.75zM70.447 100.712C71.453 95.287 72.11 89.775 73.554 84.437 74.400922 87.5733266 74.7985516 90.8139571 74.735 94.062 74.823 100.668 75.348 107.275 75.304 113.881 75.4483194 114.585606 75.2161806 115.31459 74.691 115.806 73.204 110.643 71.803 105.656 70.447 100.712z"/>
          <path d="M97.181 99.75C97.137 100.362 97.444 100.625 98.012 100.669 97.2476175 101.211097 96.7535747 102.055997 96.656 102.988 96 107.319 95.124 111.65 94.381 115.982 93.637 115.807 93.681 115.37 93.681 115.063 93.55 105.963 92.937 96.863 93.243 87.763 93.287 86.976 93.024 86.101 94.074 85.751 95.387 89.863 95.693 94.195 96.699 98.351 96.787 98.875 96.744 99.356 97.181 99.75zM89.699 22.007C89.8157036 21.9193332 89.9762964 21.9193332 90.093 22.007L89.699 22.007zM70.885 46.287C70.798 46.199 70.71 46.068 70.623 45.981 70.7435839 46.0490361 70.8363461 46.1573767 70.885 46.287L70.885 46.287zM95.693 45.981C95.606 46.112 95.474 46.2 95.387 46.331 95.4779073 46.205082 95.5803501 46.0879088 95.693 45.981L95.693 45.981zM153.976 2.232C153.801 2.582 153.582 2.888 153.101 2.626 153.276 2.144 153.626 2.188 153.976 2.232z"/>
        </g>
      </g>
    </g>
  </g>
</svg>
