<svg xmlns="http://www.w3.org/2000/svg" viewBox="0 0 1279.372 711.663"><defs><style>.a{opacity:0.5;}.b{fill:none;stroke:#c0d562;stroke-linecap:round;stroke-width:2px;stroke-dasharray:6;}.c{opacity:0.1;}.d{fill:#c0d562;}.e{opacity:0.8;}</style></defs><g transform="matrix(0.996, -0.087, 0.087, 0.996, 295.867, -148.397)"><g transform="translate(-253.845 296.344) rotate(13)"><g class="a" transform="translate(129.463 179.674)"><line class="b" x1="5.327" y1="195.309" transform="translate(0 107.42)"/><line class="b" x2="112.746" y2="70.134" transform="translate(173.114 35.511)"/><line class="b" x1="29.296" y2="71.021" transform="translate(387.954 0)"/><line class="b" x2="254.789" y2="52.378" transform="translate(387.954 71.021)"/><line class="b" y1="60.368" x2="318.708" transform="translate(173.114 180.217)"/><line class="b" y1="129.614" x2="109.195" transform="translate(167.788 123.399)"/></g><g class="c" transform="translate(772.263 605.264) rotate(-169)"><rect class="d" width="203.813" height="28.338" rx="14.169" transform="translate(722.054 165.576) rotate(150)"/><rect class="d" width="320.433" height="27.248" rx="13.624" transform="translate(772.597 23.597) rotate(150)"/><rect class="d" width="268.118" height="38.147" rx="19.073" transform="translate(375.697 109.7) rotate(150)"/><rect class="d" width="131.879" height="30.517" rx="15.259" transform="translate(376.073 339.078) rotate(150)"/><rect class="d" width="174.386" height="40.327" rx="20.163" transform="translate(171.186 379.223) rotate(150)"/><rect class="d" width="237.6" height="37.057" rx="18.528" transform="translate(531.464 108.586) rotate(150)"/></g><g transform="translate(81.406 30.052) rotate(9)"><rect class="d" width="203.813" height="28.338" rx="14.169" transform="translate(68.299 232.485) rotate(-30)"/><rect class="d" width="320.433" height="27.248" rx="13.624" transform="translate(0 496.788) rotate(-30)"/><rect class="d" width="268.118" height="38.147" rx="19.073" transform="translate(233.41 263.426) rotate(-30)"/><rect class="d" width="131.879" height="30.517" rx="15.259" transform="translate(469.405 65.94) rotate(-30)"/><rect class="d" width="174.386" height="40.327" rx="20.163" transform="translate(568.48 226.575) rotate(-30)"/></g></g><g class="e" transform="translate(-63.206 -69.097) rotate(13)"><g class="a" transform="translate(129.463 179.674)"><line class="b" x1="5.327" y1="195.309" transform="translate(0 107.42)"/><line class="b" x2="112.746" y2="70.134" transform="translate(173.114 35.511)"/><line class="b" x1="29.296" y2="71.021" transform="translate(387.954 0)"/><line class="b" x2="254.789" y2="52.378" transform="translate(387.954 71.021)"/><line class="b" y1="60.368" x2="318.708" transform="translate(173.114 180.217)"/><line class="b" y1="129.614" x2="109.195" transform="translate(167.788 123.399)"/></g><g class="c" transform="translate(772.263 605.264) rotate(-169)"><rect class="d" width="203.813" height="28.338" rx="14.169" transform="translate(722.054 165.576) rotate(150)"/><rect class="d" width="320.433" height="27.248" rx="13.624" transform="translate(772.597 23.597) rotate(150)"/><rect class="d" width="268.118" height="38.147" rx="19.073" transform="translate(375.697 109.7) rotate(150)"/><rect class="d" width="131.879" height="30.517" rx="15.259" transform="translate(376.073 339.078) rotate(150)"/><rect class="d" width="174.386" height="40.327" rx="20.163" transform="translate(171.186 379.223) rotate(150)"/><rect class="d" width="237.6" height="37.057" rx="18.528" transform="translate(531.464 108.586) rotate(150)"/></g><g transform="translate(81.406 30.052) rotate(9)"><rect class="d" width="203.813" height="28.338" rx="14.169" transform="translate(68.299 232.485) rotate(-30)"/><rect class="d" width="320.433" height="27.248" rx="13.624" transform="translate(0 496.788) rotate(-30)"/><rect class="d" width="268.118" height="38.147" rx="19.073" transform="translate(233.41 263.426) rotate(-30)"/><rect class="d" width="131.879" height="30.517" rx="15.259" transform="translate(469.405 65.94) rotate(-30)"/><rect class="d" width="174.386" height="40.327" rx="20.163" transform="translate(568.48 226.575) rotate(-30)"/></g></g><g transform="translate(834.82 952.849) rotate(-167)"><g class="a" transform="translate(129.463 179.674)"><line class="b" x1="5.327" y1="195.309" transform="translate(0 107.42)"/><line class="b" x2="112.746" y2="70.134" transform="translate(173.114 35.511)"/><line class="b" x1="29.296" y2="71.021" transform="translate(387.954 0)"/><line class="b" x2="254.789" y2="52.378" transform="translate(387.954 71.021)"/><line class="b" y1="60.368" x2="318.708" transform="translate(173.114 180.217)"/><line class="b" y1="129.614" x2="109.195" transform="translate(167.788 123.399)"/></g><g class="c" transform="translate(772.263 605.264) rotate(-169)"><rect class="d" width="203.813" height="28.338" rx="14.169" transform="translate(722.054 165.576) rotate(150)"/><rect class="d" width="320.433" height="27.248" rx="13.624" transform="translate(772.597 23.597) rotate(150)"/><rect class="d" width="268.118" height="38.147" rx="19.073" transform="translate(375.697 109.7) rotate(150)"/><rect class="d" width="131.879" height="30.517" rx="15.259" transform="translate(376.073 339.078) rotate(150)"/><rect class="d" width="174.386" height="40.327" rx="20.163" transform="translate(171.186 379.223) rotate(150)"/><rect class="d" width="237.6" height="37.057" rx="18.528" transform="translate(531.464 108.586) rotate(150)"/></g><g transform="translate(81.406 30.052) rotate(9)"><rect class="d" width="203.813" height="28.338" rx="14.169" transform="translate(68.299 232.485) rotate(-30)"/><rect class="d" width="320.433" height="27.248" rx="13.624" transform="translate(0 496.788) rotate(-30)"/><rect class="d" width="268.118" height="38.147" rx="19.073" transform="translate(233.41 263.426) rotate(-30)"/><rect class="d" width="131.879" height="30.517" rx="15.259" transform="translate(469.405 65.94) rotate(-30)"/><rect class="d" width="174.386" height="40.327" rx="20.163" transform="translate(568.48 226.575) rotate(-30)"/></g></g></g></svg>