<svg xmlns="http://www.w3.org/2000/svg" viewBox="0 0 50 50"><defs><style>.a,.b,.c{fill:#1e2a41;}.b{stroke:#fff;}.b,.c{stroke-miterlimit:10;}.c{stroke:#c0d562;}</style></defs><g transform="translate(-346 -5772)"><circle class="a" cx="25" cy="25" r="25" transform="translate(346 5772)"/><g transform="translate(350.456 5783.5)"><g transform="translate(19.64 1.5)"><circle class="b" cx="3.905" cy="3.905" r="3.905" transform="translate(2.93 0)"/><path class="b" d="M87.755,45.423S87.147,38.6,94.662,38.6s7.075,6.823,7.075,6.823A21.888,21.888,0,0,1,87.755,45.423Z" transform="translate(-87.744 -30.811)"/></g><g transform="translate(7.737 1.5)"><circle class="b" cx="3.905" cy="3.905" r="3.905" transform="translate(2.93 0)"/><path class="b" d="M31.055,45.423S30.447,38.6,37.962,38.6s7.075,6.823,7.075,6.823A21.868,21.868,0,0,1,31.055,45.423Z" transform="translate(-31.044 -30.811)"/></g><g transform="translate(1.544 9.016)"><circle class="b" cx="3.905" cy="3.905" r="3.905" transform="translate(2.909)"/><path class="b" d="M1.555,81.223S.947,74.4,8.462,74.4s7.075,6.823,7.075,6.823A21.725,21.725,0,0,1,1.555,81.223Z" transform="translate(-1.544 -66.611)"/></g><g transform="translate(13.426 9.016)"><circle class="c" cx="3.905" cy="3.905" r="3.905" transform="translate(2.93)"/><path class="c" d="M58.155,81.223S57.547,74.4,65.062,74.4s7.075,6.823,7.075,6.823A21.7,21.7,0,0,1,58.155,81.223Z" transform="translate(-58.144 -66.611)"/></g><g transform="translate(26.358 9.016)"><circle class="b" cx="3.905" cy="3.905" r="3.905" transform="translate(2.93)"/><path class="b" d="M119.755,81.223s-.609-6.823,6.907-6.823,7.075,6.823,7.075,6.823A21.7,21.7,0,0,1,119.755,81.223Z" transform="translate(-119.744 -66.611)"/></g></g></g></svg>