<svg xmlns="http://www.w3.org/2000/svg" viewBox="0 0 50 50"><defs><style>.a,.c,.d{fill:#011625;}.b,.e{fill:none;}.b,.c,.e{stroke:#fff;stroke-linecap:round;stroke-linejoin:round;}.b,.c,.d,.e{stroke-miterlimit:10;}.d{stroke:#c0d562;}.e{stroke-dasharray:1 2;}</style></defs><g transform="translate(-346 -4065)"><circle class="a" cx="25" cy="25" r="25" transform="translate(346 4065)"/><g transform="translate(334.176 4074.753)"><g transform="translate(17.08 0.152)"><g transform="translate(0.103 12.284)"><line class="b" x2="38.983" transform="translate(0 8.955)"/><g transform="translate(2.626 5.067)"><path class="c" d="M23.406,93.524h-8a.7.7,0,0,1-.7-.7V86.2a.7.7,0,0,1,.7-.7h8a.7.7,0,0,1,.7.7v6.638A.693.693,0,0,1,23.406,93.524Z" transform="translate(-14.7 -85.5)"/><path class="c" d="M82.206,93.524h-8a.7.7,0,0,1-.7-.7V86.2a.7.7,0,0,1,.7-.7h8a.7.7,0,0,1,.7.7v6.638A.707.707,0,0,1,82.206,93.524Z" transform="translate(-61.34 -85.5)"/><path class="c" d="M141.006,93.524h-8a.7.7,0,0,1-.7-.7V86.2a.7.7,0,0,1,.7-.7h8a.7.7,0,0,1,.7.7v6.638A.721.721,0,0,1,141.006,93.524Z" transform="translate(-107.98 -85.5)"/></g><g transform="translate(16.069)"><g transform="translate(0 9.327)"><path class="d" d="M79.948,109.016a.921.921,0,0,0-.248.6.907.907,0,0,0,.269.641.876.876,0,0,0,.62.248.9.9,0,0,0,.62-.269l1.013-1.075v4.364a.9.9,0,0,0,.889.889.883.883,0,0,0,.889-.889v-4.343l1.013,1.075a.881.881,0,0,0,1.241.041.874.874,0,0,0,.021-1.241l-2.544-2.688a.829.829,0,0,0-.641-.269.907.907,0,0,0-.641.269Z" transform="translate(-79.7 -106.1)"/></g><g transform="translate(0.021)"><path class="d" d="M86.376,66.4a.921.921,0,0,0,.248-.6.907.907,0,0,0-.269-.641.876.876,0,0,0-.62-.248.9.9,0,0,0-.62.269L84.1,66.253V61.889a.889.889,0,0,0-1.779,0v4.343L81.31,65.157a.881.881,0,0,0-1.241-.041.874.874,0,0,0-.021,1.241l2.544,2.688a.829.829,0,0,0,.641.269.907.907,0,0,0,.641-.269Z" transform="translate(-79.8 -61)"/></g></g></g><g transform="translate(0)"><line class="e" x2="8.169" transform="translate(0 4.488)"/><line class="e" x2="8.169" transform="translate(31.021 4.488)"/><g transform="translate(9.141 0)"><path class="b" d="M57.55,3.213H46.507a.808.808,0,0,1-.807-.807h0a.808.808,0,0,1,.807-.807H57.55a.808.808,0,0,1,.807.807h0A.821.821,0,0,1,57.55,3.213Z" transform="translate(-45.7 -1.6)"/><path class="b" d="M119.049,3.213h-4.343a.808.808,0,0,1-.807-.807h0a.808.808,0,0,1,.807-.807h4.343a.808.808,0,0,1,.807.807h0A.821.821,0,0,1,119.049,3.213Z" transform="translate(-99.796 -1.6)"/><path class="b" d="M57.55,21.113H46.507a.808.808,0,0,1-.807-.807h0a.808.808,0,0,1,.807-.807H57.55a.808.808,0,0,1,.807.807h0A.821.821,0,0,1,57.55,21.113Z" transform="translate(-45.7 -15.798)"/><path class="b" d="M119.049,21.113h-4.343a.808.808,0,0,1-.807-.807h0a.808.808,0,0,1,.807-.807h4.343a.808.808,0,0,1,.807.807h0A.821.821,0,0,1,119.049,21.113Z" transform="translate(-99.796 -15.798)"/><path class="b" d="M57.55,39.013H46.507a.808.808,0,0,1-.807-.807h0a.808.808,0,0,1,.807-.807H57.55a.808.808,0,0,1,.807.807h0A.821.821,0,0,1,57.55,39.013Z" transform="translate(-45.7 -29.996)"/><path class="b" d="M119.049,39.013h-4.343a.808.808,0,0,1-.807-.807h0a.808.808,0,0,1,.807-.807h4.343a.808.808,0,0,1,.807.807h0A.821.821,0,0,1,119.049,39.013Z" transform="translate(-99.796 -29.996)"/></g></g></g></g></g></svg>