<?xml version="1.0" encoding="utf-8"?>
<!-- Generator: Adobe Illustrator 23.0.1, SVG Export Plug-In . SVG Version: 6.00 Build 0)  -->
<svg version="1.1" id="Layer_1" xmlns="http://www.w3.org/2000/svg" xmlns:xlink="http://www.w3.org/1999/xlink" x="0px" y="0px"
	 viewBox="0 0 128 128" style="enable-background:new 0 0 128 128;" xml:space="preserve">
<style type="text/css">
	.st0{fill:#FFFFFF;}
</style>
<title></title>
<path class="st0" d="M122.7,19c-0.9-0.5-1.9-0.6-3-0.2L6.5,60.7c-1.2,0.4-2.1,1.3-2.7,2.5c-0.5,1.2-0.6,2.4-0.1,3.6
	c0.3,0.9,0.9,1.6,1.7,2.2l14.7,10.3c2.2,1.5,5,1.6,7.3,0.4l35.9-17.5L36.7,83.7C35,85.1,34,87.2,34,89.4v18.1c0,1,0.4,2,1.1,2.8
	c0.7,0.7,1.7,1.1,2.8,1.2c0.7,0,1.3-0.2,1.9-0.5L54,103l12.5,8.8c0.8,0.6,1.8,0.9,2.7,0.9c1.5,0,3-0.7,3.9-2.1l51-86.6
	C125.1,22.2,124.4,20,122.7,19z M40.1,89.4c0-0.4,0.2-0.7,0.4-0.9l45.7-37.1c1-0.9,1.3-2.4,0.8-3.6c-0.3-0.8-1-1.5-1.8-1.8
	c-0.8-0.4-1.8-0.4-2.8,0.1L24.7,74.3c-0.4,0.2-0.8,0.2-1.1,0l-12.5-8.8l104.3-38.6l-46.5,79l-13.9-9.8C54.8,96,54.6,96,54.4,96
	c-0.2,0-0.3,0-0.5,0.1l-13.8,7.6V89.4z"/>
</svg>
