<svg xmlns="http://www.w3.org/2000/svg" viewBox="0 0 50 50"><defs><style>.a{fill:#011625;}.b,.c{fill:none;stroke-linecap:round;stroke-linejoin:round;stroke-miterlimit:10;}.b{stroke:#fff;}.c{stroke:#c0d562;}</style></defs><g transform="translate(-1073 -4065)"><circle class="a" cx="25" cy="25" r="25" transform="translate(1073 4065)"/><g transform="translate(1078.198 4076.535)"><g transform="translate(1.5 1.5)"><path class="b" d="M36.555,23.247H2.948A1.451,1.451,0,0,1,1.5,21.8V2.948A1.451,1.451,0,0,1,2.948,1.5H36.555A1.451,1.451,0,0,1,38,2.948V21.8A1.451,1.451,0,0,1,36.555,23.247Z" transform="translate(-1.5 -1.5)"/><rect class="c" width="32.389" height="17.863" transform="translate(2.057 1.952)"/><rect class="b" width="7.011" height="2.183" transform="translate(15.219 21.747)"/><line class="b" x2="16.919" transform="translate(10.16 23.93)"/></g><path class="c" d="M61.7,37.575l3.988,3.988L72.93,34.3" transform="translate(-47.563 -25.915)"/></g></g></svg>