<svg xmlns="http://www.w3.org/2000/svg" viewBox="0 0 54.7 82.189"><defs><style>.a{fill:#c0d562;}</style></defs><path class="a" d="M27.544,1.663q11.8,0,18.621,5.819a17.964,17.964,0,0,1,6.817,14.188,16.816,16.816,0,0,1-3.159,10.474c-2.106,2.771-5.487,5.487-10.2,8.036-2,1.108-3.713,2.161-5.1,3.048a11.567,11.567,0,0,0-3.27,3.048c-1.552,2-2.328,4.932-2.328,8.7v4.711H19.508V54.257c0-5.1.831-8.978,2.549-11.694s4.766-5.265,9.2-7.7,7.426-4.544,8.978-6.373a10.929,10.929,0,0,0,2.328-7.316,9.549,9.549,0,0,0-3.824-7.7c-2.549-2.051-6.1-3.1-10.585-3.1-9.421,0-14.853,3.713-16.238,11.14H1.829A20.6,20.6,0,0,1,9.2,7.094c4.378-3.6,10.474-5.431,18.344-5.431m-3.1,65.119a7.015,7.015,0,0,1,5.21,2.051A6.62,6.62,0,0,1,31.7,73.709a6.212,6.212,0,0,1-2.051,4.766,7.388,7.388,0,0,1-5.21,1.94,7.027,7.027,0,0,1-5.1-1.94,6.521,6.521,0,0,1-1.94-4.766,6.87,6.87,0,0,1,1.94-4.877,6.977,6.977,0,0,1,5.1-2.051M27.544,0C19.286,0,12.8,1.94,8.147,5.819A22.093,22.093,0,0,0,.166,21.337L0,23.166H13.356l.277-1.386c1.219-6.6,5.985-9.754,14.576-9.754,4.1,0,7.316.887,9.532,2.716a7.8,7.8,0,0,1,3.214,6.373,9.7,9.7,0,0,1-1.884,6.263c-1.386,1.663-4.267,3.658-8.479,5.985-4.655,2.549-7.981,5.32-9.809,8.258-1.884,2.993-2.771,7.094-2.771,12.58V61.3H30.758V54.922c0-3.381.665-5.985,1.94-7.7h0a9.953,9.953,0,0,1,2.826-2.6q2-1.33,4.988-2.993c4.877-2.66,8.479-5.542,10.7-8.479A18.464,18.464,0,0,0,54.7,21.669,19.513,19.513,0,0,0,47.274,6.263C42.452,2.106,35.8,0,27.544,0Zm-3.1,65.119a8.516,8.516,0,0,0-8.7,8.646,8.24,8.24,0,0,0,2.439,5.985,8.521,8.521,0,0,0,6.263,2.438,8.7,8.7,0,0,0,6.318-2.383,7.889,7.889,0,0,0,2.6-5.985,8.336,8.336,0,0,0-2.549-6.1,8.564,8.564,0,0,0-6.373-2.6Z"/></svg>