<svg xmlns="http://www.w3.org/2000/svg" viewBox="0 0 50 50"><defs><style>.a{fill:#011625;}.b,.d{fill:none;stroke-miterlimit:10;}.b,.c{stroke:#c0d562;}.c{fill:#c0d562;}.d{stroke:#fff;}</style></defs><g transform="translate(-1073 -1804)"><circle class="a" cx="25" cy="25" r="25" transform="translate(1073 1804)"/><g transform="translate(1078.5 1809.5)"><g transform="translate(1.5 1.5)"><path class="b" d="M29.905,80.758H9.079A7.593,7.593,0,0,1,1.5,73.179h0A7.593,7.593,0,0,1,9.079,65.6H29.936a7.593,7.593,0,0,1,7.579,7.579h0A7.639,7.639,0,0,1,29.905,80.758Z" transform="translate(-1.5 -45.852)"/><path class="c" d="M4.9,0A4.9,4.9,0,1,1,0,4.9,4.9,4.9,0,0,1,4.9,0Z" transform="translate(22.952 22.428)"/><path class="d" d="M9.079,1.5H29.936a7.593,7.593,0,0,1,7.579,7.579h0a7.593,7.593,0,0,1-7.579,7.579H9.079A7.593,7.593,0,0,1,1.5,9.079h0A7.573,7.573,0,0,1,9.079,1.5Z" transform="translate(-1.5 -1.5)"/><circle class="d" cx="4.898" cy="4.898" r="4.898" transform="translate(3.235 2.68)"/></g><line class="b" x1="9.273" y2="9.273" transform="translate(1.901 21.156)"/><line class="b" x1="12.477" y2="12.446" transform="translate(3.348 21.402)"/><line class="b" x1="14.418" y2="14.418" transform="translate(6.275 21.402)"/><line class="b" x1="14.911" y2="14.88" transform="translate(10.681 21.402)"/><line class="b" x1="9.273" y2="9.273" transform="translate(15.579 27.009)"/><line class="b" x1="2.927" y2="2.927" transform="translate(27.533 21.402)"/><line class="b" x1="2.187" y2="2.187" transform="translate(31.938 22.634)"/><line class="b" x1="4.652" y2="4.621" transform="translate(20.2 31.908)"/><line class="b" x1="2.927" y2="2.927" transform="translate(25.099 33.602)"/><line class="b" x1="2.434" y2="2.434" transform="translate(34.126 25.068)"/><line class="b" x1="6.839" y2="6.809" transform="translate(30.706 29.474)"/></g></g></svg>