<svg xmlns="http://www.w3.org/2000/svg" viewBox="0 0 50 50">
  <defs>
    <style>
      .cls-1, .cls-3 {
        fill: #1e2a41;
      }

      .cls-2, .cls-4 {
        fill: none;
      }

      .cls-2 {
        stroke: #fff;
      }

      .cls-2, .cls-3, .cls-4 {
        stroke-linecap: round;
        stroke-linejoin: round;
        stroke-miterlimit: 10;
      }

      .cls-3, .cls-4 {
        stroke: #c0d562;
      }
    </style>
  </defs>
  <g id="Groupe_1056" data-name="Groupe 1056" transform="translate(-1322 -991)">
    <g id="icon_incentives" transform="translate(249 -4781)">
      <path id="Tracé_1908" data-name="Tracé 1908" class="cls-1" d="M25,0A25,25,0,1,1,0,25,25,25,0,0,1,25,0Z" transform="translate(1073 5772)"/>
    </g>
    <g id="Groupe_1055" data-name="Groupe 1055" transform="translate(1333.5 997.5)">
      <rect id="Rectangle_498" data-name="Rectangle 498" class="cls-2" width="21.626" height="32.196" transform="translate(1.5 1.5)"/>
      <g id="Groupe_1055-2" data-name="Groupe 1055" transform="translate(15.204 24.391)">
        <circle id="Ellipse_279" data-name="Ellipse 279" class="cls-3" cx="5.47" cy="5.47" r="5.47"/>
        <path id="Tracé_1906" data-name="Tracé 1906" class="cls-4" d="M85.4,139.388l1.888,1.888,3.8-3.776" transform="translate(-82.772 -133.918)"/>
      </g>
      <line id="Ligne_223" data-name="Ligne 223" class="cls-2" x2="16.857" transform="translate(4.147 12.848)"/>
      <line id="Ligne_224" data-name="Ligne 224" class="cls-2" x2="12.925" transform="translate(4.147 15.593)"/>
      <line id="Ligne_225" data-name="Ligne 225" class="cls-2" x2="16.857" transform="translate(4.147 18.435)"/>
      <line id="Ligne_226" data-name="Ligne 226" class="cls-2" x2="16.857" transform="translate(4.147 21.179)"/>
      <line id="Ligne_227" data-name="Ligne 227" class="cls-2" x2="8.351" transform="translate(4.147 24.021)"/>
      <path id="Tracé_1907" data-name="Tracé 1907" class="cls-2" d="M17.1,137.622s.078-3.192,1.343-1.655,1.3,1.538,2.044.545.954-.954,1.655.311,1.421.954,2.277,0" transform="translate(-12.563 -107.956)"/>
      <rect id="Rectangle_499" data-name="Rectangle 499" class="cls-2" width="5.042" height="4.964" transform="translate(3.68 4.264)"/>
      <line id="Ligne_228" data-name="Ligne 228" class="cls-2" x2="10.472" transform="translate(10.532 5.919)"/>
      <line id="Ligne_229" data-name="Ligne 229" class="cls-2" x2="10.472" transform="translate(10.532 8.254)"/>
    </g>
  </g>
</svg>
