<svg xmlns="http://www.w3.org/2000/svg" viewBox="0 0 50 50"><defs><style>.a,.d{fill:#011625;}.b,.c,.e{fill:none;}.b,.c{stroke:#fff;}.b,.c,.d,.e{stroke-miterlimit:10;}.c,.e{stroke-linecap:round;}.d,.e{stroke:#c0d562;}.e{stroke-linejoin:round;}</style></defs><g transform="translate(-346 -1804)"><circle class="a" cx="25" cy="25" r="25" transform="translate(346 1804)"/><g transform="translate(347.5 1806.5)"><g transform="translate(4.455 4.272)"><g transform="translate(6.634 3.484)"><path class="b" d="M37.062,14.9s2.849-1.357,4.5.543c0,0,2.578-.95,2.713,1.764,0,0,3.69,1.628,3.283,4.775,0,0,1.628,4.1-.271,4.64,0,0,2.442,3.419-.814,5.182,0,0-.136,2.713-2.171,2.306,0,0,0,3.283-2.035,3.147,0,0-2.713,3.826-4.911.407A3.131,3.131,0,0,1,33.4,38.885s-.678,0-1.628-1.9c0,0-3.636-.271-2.035-3.283a4.447,4.447,0,0,1-1.764-4.911s-3.826-1.9-.95-5.861c0,0-1.357-3.283,2.849-5.454,0,0,0-2.035,2.578-2.035C32.449,15.443,35.163,13.381,37.062,14.9Z" transform="translate(-25.952 -14.341)"/><line class="b" y2="23.008" transform="translate(11.273 0.423)"/><path class="c" d="M91.51,55.979a2.9,2.9,0,0,0,4.124.488" transform="translate(-73.698 -44.676)"/><path class="c" d="M84.486,37.2A3.651,3.651,0,0,1,81.8,40.293" transform="translate(-66.647 -30.998)"/><path class="c" d="M83.932,69.654A3.647,3.647,0,0,1,81.9,66.1" transform="translate(-66.717 -52.057)"/><path class="c" d="M30.5,45.55a3.625,3.625,0,0,1,3.8,1.492" transform="translate(-29.266 -37.015)"/><path class="c" d="M49,78s.705,3.853-1.6,5.372" transform="translate(-41.581 -60.728)"/><path class="c" d="M52.657,63.1s-.516,1.058-1.357,1.031" transform="translate(-44.422 -49.871)"/><path class="c" d="M50.01,35.072s.217-1.411-3.31-1.872" transform="translate(-41.071 -28.083)"/><path class="c" d="M73.7,85.9s2.415-.081,2.36,1.845" transform="translate(-60.745 -66.483)"/><path class="c" d="M81.473,23.37a3.628,3.628,0,0,1,.271-4.07" transform="translate(-66.049 -17.955)"/></g><path class="b" d="M29.692,43.361l-3.744-.027A1.262,1.262,0,0,1,24.7,42.086V24.748A1.262,1.262,0,0,1,25.948,23.5H28.96" transform="translate(-18.405 -17.531)"/><path class="b" d="M91.9,23.6h2.985a1.262,1.262,0,0,1,1.248,1.248V42.186a1.262,1.262,0,0,1-1.248,1.248H91.3" transform="translate(-66.935 -17.604)"/><g transform="translate(0 8.954)"><line class="b" x1="3.229" transform="translate(2.849 1.628)"/><ellipse class="b" cx="1.628" cy="1.628" rx="1.628" ry="1.628"/><g transform="translate(0 5.318)"><line class="b" x1="3.229" transform="translate(2.849 1.628)"/><ellipse class="b" cx="1.628" cy="1.628" rx="1.628" ry="1.628"/></g><g transform="translate(0 10.636)"><line class="b" x1="3.229" transform="translate(2.849 1.628)"/><ellipse class="b" cx="1.628" cy="1.628" rx="1.628" ry="1.628"/></g></g><g transform="translate(29.303 8.954)"><g transform="translate(0 10.636)"><line class="b" x2="3.256" transform="translate(0 1.628)"/><ellipse class="b" cx="1.628" cy="1.628" rx="1.628" ry="1.628" transform="translate(2.849)"/></g><g transform="translate(0 5.318)"><line class="b" x2="3.256" transform="translate(0 1.628)"/><ellipse class="b" cx="1.628" cy="1.628" rx="1.628" ry="1.628" transform="translate(2.849)"/></g><line class="b" x2="3.256" transform="translate(0 1.628)"/><ellipse class="b" cx="1.628" cy="1.628" rx="1.628" ry="1.628" transform="translate(2.849)"/></g><g transform="translate(10.744 0)"><g transform="translate(10.663)"><line class="b" y1="1.791" transform="translate(1.628 2.849)"/><ellipse class="b" cx="1.628" cy="1.628" rx="1.628" ry="1.628"/></g><g transform="translate(5.318)"><line class="b" y1="1.329" transform="translate(1.628 2.849)"/><ellipse class="b" cx="1.628" cy="1.628" rx="1.628" ry="1.628"/></g><line class="b" y1="1.791" transform="translate(1.628 2.849)"/><ellipse class="b" cx="1.628" cy="1.628" rx="1.628" ry="1.628"/></g><g transform="translate(10.744 26.155)"><line class="b" y2="3.256" transform="translate(1.628)"/><ellipse class="b" cx="1.628" cy="1.628" rx="1.628" ry="1.628" transform="translate(0 2.849)"/><g transform="translate(5.318 1.031)"><line class="b" y2="2.225" transform="translate(1.628)"/><ellipse class="b" cx="1.628" cy="1.628" rx="1.628" ry="1.628" transform="translate(0 1.818)"/></g><g transform="translate(10.663)"><line class="b" y2="3.256" transform="translate(1.628)"/><ellipse class="b" cx="1.628" cy="1.628" rx="1.628" ry="1.628" transform="translate(0 2.849)"/></g></g></g><ellipse class="d" cx="9.008" cy="9.008" rx="9.008" ry="9.008" transform="translate(24.641 22.098)"/><path class="e" d="M92.1,92.64l3.54,3.54,7.081-7.08" transform="translate(-62.215 -60.155)"/></g></g></svg>