<svg xmlns="http://www.w3.org/2000/svg" viewBox="0 0 50 50"><defs><style>.a{fill:#1d2940;}.b,.c{fill:none;stroke-miterlimit:10;}.b{stroke:#fff;}.c{stroke:#c0d562;}</style></defs><g transform="translate(-346 -2821)"><circle class="a" cx="25" cy="25" r="25" transform="translate(346 2821)"/><g transform="translate(347.5 2826.5)"><g transform="translate(1.5 1.5)"><g transform="translate(0 13.214)"><path class="b" d="M7.759,47.377V59.956L5.28,57.325A2.191,2.191,0,0,0,2.2,57.235a2.282,2.282,0,0,0-.7,1.572,2.106,2.106,0,0,0,.6,1.482l6.29,6.652a2.282,2.282,0,0,0,1.572.7,2.11,2.11,0,0,0,1.572-.7l6.229-6.592a2.106,2.106,0,0,0,.6-1.482,2.063,2.063,0,0,0-.7-1.572,2.251,2.251,0,0,0-1.542-.6,2.214,2.214,0,0,0-1.512.7l-2.48,2.631V47.377A2.168,2.168,0,0,0,9.967,45.2,2.194,2.194,0,0,0,7.759,47.377Z" transform="translate(-1.5 -45.2)"/></g><g transform="translate(26.549 13.214)"><path class="b" d="M95.559,47.377V59.956l-2.48-2.631A2.191,2.191,0,0,0,90,57.235a2.282,2.282,0,0,0-.7,1.572,2.106,2.106,0,0,0,.6,1.482l6.29,6.652a2.282,2.282,0,0,0,1.572.7,2.11,2.11,0,0,0,1.572-.7l6.229-6.592a2.106,2.106,0,0,0,.6-1.482,2.063,2.063,0,0,0-.7-1.572,2.251,2.251,0,0,0-1.542-.6,2.214,2.214,0,0,0-1.512.7l-2.48,2.631V47.377A2.168,2.168,0,0,0,97.767,45.2,2.194,2.194,0,0,0,95.559,47.377Z" transform="translate(-89.3 -45.2)"/></g><g transform="translate(13.274 0)"><path class="c" d="M56.014,21.759V9.18l2.48,2.631a2.191,2.191,0,0,0,3.084.091,2.282,2.282,0,0,0,.7-1.572,2.106,2.106,0,0,0-.6-1.482L55.379,2.2a2.282,2.282,0,0,0-1.572-.7,2.11,2.11,0,0,0-1.572.7L46,8.787a2.106,2.106,0,0,0-.6,1.482,2.063,2.063,0,0,0,.7,1.572,2.251,2.251,0,0,0,1.542.6,2.214,2.214,0,0,0,1.512-.7l2.48-2.631V21.759a2.192,2.192,0,0,0,4.385,0Z" transform="translate(-45.4 -1.5)"/></g></g></g></g></svg>