<svg xmlns="http://www.w3.org/2000/svg" viewBox="0 0 50 50"><defs><style>.a{fill:#011625;}.b,.c,.d{fill:none;stroke:#fff;}.b,.c,.d,.e{stroke-miterlimit:10;}.c,.d{stroke-linejoin:round;}.d{stroke-linecap:round;}.e{fill:#1e2a41;stroke:#c0d562;}</style></defs><g transform="translate(-346 -3868)"><circle class="a" cx="25" cy="25" r="25" transform="translate(346 3868)"/><g transform="translate(350.5 3873.474)"><path class="b" d="M38.408,52.625H2.727A1.225,1.225,0,0,1,1.5,51.4V30.927A1.225,1.225,0,0,1,2.727,29.7H38.386a1.225,1.225,0,0,1,1.227,1.227V51.4A1.207,1.207,0,0,1,38.408,52.625Z" transform="translate(0 -21.999)"/><rect class="c" width="9.008" height="10.63" transform="translate(5.489 11.427)"/><line class="d" x2="16.766" transform="translate(18.639 12.391)"/><line class="d" x2="16.766" transform="translate(18.639 16.271)"/><line class="d" x2="16.766" transform="translate(18.639 20.369)"/><line class="d" x2="9.643" transform="translate(5.489 26.155)"/><line class="d" x2="9.643" transform="translate(25.762 26.155)"/><circle class="c" cx="2.652" cy="2.652" r="2.652" transform="translate(7.33 13.115)"/><path class="c" d="M19.1,79.665s4.822-2.718,9.117.373" transform="translate(-13.743 -60.15)"/><path class="e" d="M29.534,36.39h0a1.568,1.568,0,0,1-.285-2.192L53.8,2.134a1.568,1.568,0,0,1,2.192-.285h0a1.568,1.568,0,0,1,.285,2.192L31.726,36.105A1.568,1.568,0,0,1,29.534,36.39Z" transform="translate(-21.415 0)"/></g></g></svg>