<svg xmlns="http://www.w3.org/2000/svg" viewBox="0 0 50 50"><defs><style>.a{fill:#011625;}.b,.c{fill:none;stroke-linecap:round;stroke-linejoin:round;stroke-miterlimit:10;}.b{stroke:#fff;}.c{stroke:#c0d562;}</style></defs><g transform="translate(-1073 -3868)"><path class="a" d="M25,0A25,25,0,1,1,0,25,25,25,0,0,1,25,0Z" transform="translate(1073 3868)"/><g transform="translate(1079.508 3879.545)"><path class="b" d="M100.2,37.015s.154-.269.538.115l7.333,7.372" transform="translate(-79.759 -28.66)"/><path class="c" d="M55.783,13.3l-6.93,3.244s-1.517.422-.422,1.555a5.413,5.413,0,0,0,4.684,1.517,24.469,24.469,0,0,0,4.953-1.67" transform="translate(-37.607 -9.571)"/><g transform="translate(1.492 1.455)"><path class="b" d="M6.427,15.4l-2.975-.538c-4.7-6.661.538-12.574.538-12.574L9.384,3.672l8.831.058s2.611-1.459,3.859-2,1.939-.326,3.551.921,2.688.691,2.688.691l3.283-.806S33.706,2,34.858,6.033s.768,8.255-.576,8.639a13.239,13.239,0,0,1-2.707.442s-2.054.384-2.361.384c-.326,0-.691.538-.691.538" transform="translate(-1.492 -1.455)"/><path class="c" d="M88.6,3.729s2.611-1.459,3.859-2,1.939-.326,3.551.921,2.688.691,2.688.691l3.283-.806s2.112-.538,3.263,3.494.768,8.255-.576,8.639a13.239,13.239,0,0,1-2.707.442s-2.054.384-2.361.384c-.326,0-.691.538-.691.538" transform="translate(-71.878 -1.455)"/><path class="b" d="M86.415,76.4s.921,1.19,0,2.092-1.613,1.017-2.956.326a2.28,2.28,0,0,1,0,2.592c-.96,1.19-2.092.653-2.9-.115a1.947,1.947,0,0,1-.269,2.419c-1.133,1.017-1.939.653-3.129-.269a2.213,2.213,0,0,1,.058,2.63c-1.017,1.171-2.534.806-3.82-1.19" transform="translate(-59.596 -62.013)"/><path class="c" d="M63.725,105.668l-.557.557a1.553,1.553,0,0,1-2.208,0h0a1.553,1.553,0,0,1,0-2.208l.557-.557a1.553,1.553,0,0,1,2.208,0h0A1.588,1.588,0,0,1,63.725,105.668Z" transform="translate(-49.172 -83.507)"/><path class="c" d="M52.425,93.568l-.557.557a1.553,1.553,0,0,1-2.208,0h0a1.553,1.553,0,0,1,0-2.208l.557-.557a1.553,1.553,0,0,1,2.208,0h0A1.553,1.553,0,0,1,52.425,93.568Z" transform="translate(-40.042 -73.73)"/><path class="c" d="M40.925,81.849l-.557.576a1.553,1.553,0,0,1-2.208,0h0a1.553,1.553,0,0,1,0-2.208l.557-.557a1.553,1.553,0,0,1,2.208,0h0A1.53,1.53,0,0,1,40.925,81.849Z" transform="translate(-30.749 -64.276)"/><path class="c" d="M29.225,70.568l-.557.557a1.553,1.553,0,0,1-2.208,0h0a1.553,1.553,0,0,1,0-2.208l.557-.557a1.553,1.553,0,0,1,2.208,0h0A1.588,1.588,0,0,1,29.225,70.568Z" transform="translate(-21.295 -55.145)"/></g></g></g></svg>