<svg xmlns="http://www.w3.org/2000/svg" viewBox="0 0 112.223 91.655">
  <defs>
    <style>
      .cls-1, .cls-3 {
        fill: none;
      }

      .cls-1 {
        stroke: #fff;
      }

      .cls-1, .cls-2, .cls-3 {
        stroke-miterlimit: 10;
        stroke-width: 2px;
      }

      .cls-2 {
        fill: #1e2a41;
      }

      .cls-2, .cls-3 {
        stroke: #c0d562;
      }

      .cls-3 {
        stroke-linecap: round;
        stroke-linejoin: round;
      }
    </style>
  </defs>
  <g id="Groupe_1065" data-name="Groupe 1065" transform="translate(-0.404 -0.44)">
    <path id="Tracé_1914" data-name="Tracé 1914" class="cls-1" d="M108.529,18.676A30.582,30.582,0,0,0,90.472,2.946a30.059,30.059,0,0,0-18.813.126,5.5,5.5,0,0,0-1.7,9.438h0a5.207,5.207,0,0,0,5.1,1.007,19.608,19.608,0,0,1,23.972,10.7A19.5,19.5,0,0,1,89.15,49.38a19.723,19.723,0,0,1-14.786.44,5.891,5.891,0,0,0-1.007-.252c-6.732-4.027-9.815-14.912-11.011-19.19-.252-.944-.44-1.762-.692-2.58a34.644,34.644,0,0,0-2.58-7.55c-3.586-7.361-9.438-13.339-15.6-16.233a3.844,3.844,0,0,0-.881-.44L41.458,3.2l-.566-.189a29.615,29.615,0,0,0-19.63.378,30.441,30.441,0,0,0-17.743,17.3A30.977,30.977,0,0,0,4.462,44.85,30.582,30.582,0,0,0,22.52,60.579a30.059,30.059,0,0,0,18.813-.126,5.5,5.5,0,0,0,1.7-9.438,5.207,5.207,0,0,0-5.1-1.007,19.608,19.608,0,0,1-23.972-10.7,19.535,19.535,0,0,1,9.878-25.167,19.318,19.318,0,0,1,13.4-.818h0c3.586.944,8.934,4.782,12.269,11.64a21.761,21.761,0,0,1,1.762,5.411c.252.944.44,1.888.755,2.957,1.825,6.355,6.04,21.2,18.12,26.614h0c.063,0,.126.063.189.063a30.259,30.259,0,0,0,38.191-41.337Z" transform="translate(0)"/>
    <g id="Groupe_1064" data-name="Groupe 1064" transform="translate(27.805 33.713)">
      <circle id="Ellipse_285" data-name="Ellipse 285" class="cls-2" cx="28.691" cy="28.691" r="28.691"/>
      <path id="Tracé_1915" data-name="Tracé 1915" class="cls-3" d="M65.6,92.552l9.815,9.752,19.5-19.5" transform="translate(-51.569 -63.862)"/>
    </g>
  </g>
</svg>
