<svg xmlns="http://www.w3.org/2000/svg" viewBox="0 0 50 50"><defs><style>.a{fill:#1e2a41;}.b{fill:#c0d562;}.c,.d{fill:none;stroke-linecap:round;stroke-linejoin:round;stroke-miterlimit:10;}.c{stroke:#fff;}.d{stroke:#c0d562;}</style></defs><g transform="translate(-1073 -2821)"><circle class="a" cx="25" cy="25" r="25" transform="translate(1073 2821)"/><g transform="translate(1076.5 2824.5)"><circle class="b" cx="6.864" cy="6.864" r="6.864" transform="translate(14.816 14.816)"/><g transform="translate(20.307 1.5)"><g transform="translate(1.318 5.217)"><line class="c" y1="6.04"/></g><circle class="d" cx="1.373" cy="1.373" r="1.373"/><g transform="translate(0 29.103)"><g transform="translate(1.455)"><line class="c" y2="6.04"/></g><circle class="d" cx="1.373" cy="1.373" r="1.373" transform="translate(0 8.511)"/></g></g><g transform="translate(1.5 20.307)"><g transform="translate(5.217 1.455)"><line class="c" x1="6.04"/></g><circle class="d" cx="1.373" cy="1.373" r="1.373"/><g transform="translate(29.103)"><g transform="translate(0 1.318)"><line class="c" x2="6.04"/></g><circle class="d" cx="1.373" cy="1.373" r="1.373" transform="translate(8.511)"/></g></g><g transform="translate(7.019 7.019)"><g transform="translate(4.036 4.118)"><line class="c" x1="4.256" y1="4.283"/></g><circle class="d" cx="1.373" cy="1.373" r="1.373"/><g transform="translate(21.031 20.921)"><g transform="translate(0)"><line class="c" x2="4.256" y2="4.283"/></g><circle class="d" cx="1.373" cy="1.373" r="1.373" transform="translate(5.546 5.656)"/></g></g><g transform="translate(7.019 7.019)"><g transform="translate(0 21.031)"><g transform="translate(4.118 0)"><line class="c" x1="4.283" y2="4.256"/></g><circle class="d" cx="1.373" cy="1.373" r="1.373" transform="translate(0 5.546)"/></g><g transform="translate(20.921)"><g transform="translate(0 4.036)"><line class="c" y1="4.256" x2="4.283"/></g><circle class="d" cx="1.373" cy="1.373" r="1.373" transform="translate(5.656)"/></g></g></g></g></svg>