<svg xmlns="http://www.w3.org/2000/svg" viewBox="0 0 50 50">
  <defs>
    <style>
      .cls-1 {
        fill: none;
      }

      .cls-2, .cls-3 {
        fill: #011625;
        stroke-miterlimit: 10;
      }

      .cls-2 {
        stroke: #fff;
      }

      .cls-3 {
        stroke: #c0d562;
      }
    </style>
  </defs>
  <g id="Groupe_1057" data-name="Groupe 1057" transform="translate(-1322 -991)">
    <g id="icon_incentives" transform="translate(249 -4781)">
      <path id="Tracé_1908" data-name="Tracé 1908" class="cls-1" d="M25,0A25,25,0,1,1,0,25,25,25,0,0,1,25,0Z" transform="translate(1073 5772)"/>
    </g>
    <g id="Groupe_1063" data-name="Groupe 1063" transform="translate(1325.488 1002.747)">
      <g id="Groupe_1058" data-name="Groupe 1058" transform="translate(20.574 1.5)">
        <circle id="Ellipse_280" data-name="Ellipse 280" class="cls-2" cx="4.106" cy="4.106" r="4.106" transform="translate(3.081)"/>
        <path id="Tracé_1909" data-name="Tracé 1909" class="cls-2" d="M87.756,45.775S87.116,38.6,95.02,38.6s7.44,7.175,7.44,7.175A23.018,23.018,0,0,1,87.756,45.775Z" transform="translate(-87.744 -30.409)"/>
      </g>
      <g id="Groupe_1059" data-name="Groupe 1059" transform="translate(8.056 1.5)">
        <circle id="Ellipse_281" data-name="Ellipse 281" class="cls-2" cx="4.106" cy="4.106" r="4.106" transform="translate(3.081)"/>
        <path id="Tracé_1910" data-name="Tracé 1910" class="cls-2" d="M31.056,45.775S30.416,38.6,38.32,38.6s7.44,7.175,7.44,7.175A23,23,0,0,1,31.056,45.775Z" transform="translate(-31.044 -30.409)"/>
      </g>
      <g id="Groupe_1060" data-name="Groupe 1060" transform="translate(1.544 9.404)">
        <circle id="Ellipse_282" data-name="Ellipse 282" class="cls-2" cx="4.106" cy="4.106" r="4.106" transform="translate(3.059)"/>
        <path id="Tracé_1911" data-name="Tracé 1911" class="cls-2" d="M1.556,81.575S.916,74.4,8.82,74.4s7.44,7.175,7.44,7.175A22.846,22.846,0,0,1,1.556,81.575Z" transform="translate(-1.544 -66.209)"/>
      </g>
      <g id="Groupe_1061" data-name="Groupe 1061" transform="translate(14.039 9.404)">
        <circle id="Ellipse_283" data-name="Ellipse 283" class="cls-3" cx="4.106" cy="4.106" r="4.106" transform="translate(3.081)"/>
        <path id="Tracé_1912" data-name="Tracé 1912" class="cls-3" d="M58.156,81.575S57.516,74.4,65.42,74.4s7.44,7.175,7.44,7.175A22.825,22.825,0,0,1,58.156,81.575Z" transform="translate(-58.144 -66.209)"/>
      </g>
      <g id="Groupe_1062" data-name="Groupe 1062" transform="translate(27.639 9.404)">
        <circle id="Ellipse_284" data-name="Ellipse 284" class="cls-2" cx="4.106" cy="4.106" r="4.106" transform="translate(3.081)"/>
        <path id="Tracé_1913" data-name="Tracé 1913" class="cls-2" d="M119.756,81.575s-.64-7.175,7.263-7.175,7.44,7.175,7.44,7.175A22.825,22.825,0,0,1,119.756,81.575Z" transform="translate(-119.744 -66.209)"/>
      </g>
    </g>
  </g>
</svg>
