<svg xmlns="http://www.w3.org/2000/svg" viewBox="0 0 50 50"><defs><style>.a,.c{fill:#1e2a41;}.b{fill:none;stroke:#c0d562;}.b,.c{stroke-miterlimit:10;}.c{stroke:#fff;}</style></defs><g transform="translate(-1073 -5772)"><circle class="a" cx="25" cy="25" r="25" transform="translate(1073 5772)"/><g transform="translate(1075.888 5783.534)"><path class="b" d="M2.836,18.193l2.706-2.577L3.674,12.8l2.642-2.126L4.254,7.584,7.346,5.522,5.37,2,43.4,7.927l-.215-.021-2.706,2.577L42.331,13.3l-2.62,2.126,2.04,3.093-3.093,2.062,2,3.544L2.6,18.172" transform="translate(-0.393)"/><path class="c" d="M2.336,31.708l2.276-2.964L2.336,26.231l2.276-2.513L2.1,20.991l2.749-2.513L2.336,15.3H40.607L38.33,18.264l2.276,2.491L38.33,23.268,40.843,26l-2.727,2.513,2.491,3.2H2.1" transform="translate(0 -10.444)"/><g transform="translate(16.618 8.207)"><line class="b" y1="9.686" x2="9.686" transform="translate(0.021 0)"/><ellipse class="b" cx="1.825" cy="2.276" rx="1.825" ry="2.276" transform="translate(0 0)"/><ellipse class="b" cx="1.825" cy="2.276" rx="1.825" ry="2.276" transform="translate(6.056 5.133)"/></g></g></g></svg>