<svg xmlns="http://www.w3.org/2000/svg" xmlns:xlink="http://www.w3.org/1999/xlink" viewBox="0 0 770.81 401.44"><defs><style>.cls-1,.cls-9{fill:#1e2a41;}.cls-1,.cls-2,.cls-38,.cls-41{opacity:0.1;}.cls-3,.cls-38,.cls-39,.cls-4,.cls-5{fill:#c0d562;}.cls-3,.cls-7{opacity:0.5;}.cls-5{opacity:0.2;}.cls-6{opacity:0.05;}.cls-8{fill:url(#Dégradé_sans_nom_103);}.cls-10{fill:#121a26;}.cls-11{fill:url(#Dégradé_sans_nom_103-2);}.cls-12{fill:url(#Dégradé_sans_nom_103-3);}.cls-13{fill:url(#Dégradé_sans_nom_103-4);}.cls-14{fill:url(#Dégradé_sans_nom_103-5);}.cls-15{fill:url(#Dégradé_sans_nom_103-6);}.cls-16{fill:url(#Dégradé_sans_nom_103-7);}.cls-17{fill:url(#Dégradé_sans_nom_103-8);}.cls-18{fill:url(#Dégradé_sans_nom_103-9);}.cls-19,.cls-20{opacity:0.7;}.cls-19{fill:url(#Dégradé_sans_nom_152);}.cls-21{fill:url(#Dégradé_sans_nom_152-2);}.cls-22{opacity:0.8;}.cls-23{fill:url(#Dégradé_sans_nom_389);}.cls-24{fill:url(#Dégradé_sans_nom_389-2);}.cls-25{fill:url(#Dégradé_sans_nom_389-3);}.cls-26{fill:url(#Dégradé_sans_nom_389-4);}.cls-27{fill:url(#Dégradé_sans_nom_278);}.cls-28{fill:url(#Dégradé_sans_nom_299);}.cls-29{fill:url(#Dégradé_sans_nom_299-2);}.cls-30{fill:url(#Dégradé_sans_nom_299-3);}.cls-31{fill:url(#Dégradé_sans_nom_299-4);}.cls-32{fill:url(#Dégradé_sans_nom_121);}.cls-33{fill:url(#Dégradé_sans_nom_121-2);}.cls-34{fill:url(#Dégradé_sans_nom_121-3);}.cls-35{fill:url(#Dégradé_sans_nom_121-4);}.cls-36{fill:url(#Dégradé_sans_nom_121-5);}.cls-37{fill:url(#Dégradé_sans_nom_121-6);}.cls-39{opacity:0.04;}.cls-40{fill:url(#Dégradé_sans_nom_103-14);}.cls-41,.cls-42{fill:#fff;}.cls-42{opacity:0.02;}.cls-43{fill:url(#Dégradé_sans_nom_268);}.cls-44{fill:url(#Dégradé_sans_nom_268-2);}.cls-45{fill:url(#Dégradé_sans_nom_268-3);}.cls-46{fill:url(#Dégradé_sans_nom_268-4);}.cls-47{fill:url(#Dégradé_sans_nom_268-5);}.cls-48{fill:url(#Dégradé_sans_nom_268-6);}</style><linearGradient id="Dégradé_sans_nom_103" x1="379.8" y1="194.64" x2="381.05" y2="197.95" gradientUnits="userSpaceOnUse"><stop offset="0" stop-color="#1e2a41"/><stop offset="0.34" stop-color="#2b3455"/><stop offset="0.68" stop-color="#323b62"/><stop offset="1" stop-color="#353d66"/></linearGradient><linearGradient id="Dégradé_sans_nom_103-2" x1="230.49" y1="216.28" x2="392.64" y2="216.28" xlink:href="#Dégradé_sans_nom_103"/><linearGradient id="Dégradé_sans_nom_103-3" x1="77.54" y1="272.5" x2="239.69" y2="272.5" xlink:href="#Dégradé_sans_nom_103"/><linearGradient id="Dégradé_sans_nom_103-4" x1="384.1" y1="158.76" x2="546.25" y2="158.76" xlink:href="#Dégradé_sans_nom_103"/><linearGradient id="Dégradé_sans_nom_103-5" x1="536.16" y1="101.68" x2="698.31" y2="101.68" xlink:href="#Dégradé_sans_nom_103"/><linearGradient id="Dégradé_sans_nom_103-6" x1="98.04" y1="299.88" x2="101.2" y2="308.22" xlink:href="#Dégradé_sans_nom_103"/><linearGradient id="Dégradé_sans_nom_103-7" x1="250.74" y1="242.1" x2="253.79" y2="250.16" xlink:href="#Dégradé_sans_nom_103"/><linearGradient id="Dégradé_sans_nom_103-8" x1="403.76" y1="184.2" x2="406.8" y2="192.26" xlink:href="#Dégradé_sans_nom_103"/><linearGradient id="Dégradé_sans_nom_103-9" x1="555.93" y1="126.62" x2="558.98" y2="134.68" xlink:href="#Dégradé_sans_nom_103"/><linearGradient id="Dégradé_sans_nom_152" x1="-1146.23" y1="-8410.91" x2="-1061.65" y2="-8410.91" gradientTransform="matrix(0.96, 0.16, -0.28, 0.56, -807.38, 5005.35)" gradientUnits="userSpaceOnUse"><stop offset="0" stop-color="#181a2b"/><stop offset="0.31" stop-color="#1b1d30" stop-opacity="0.91"/><stop offset="0.61" stop-color="#222640" stop-opacity="0.65"/><stop offset="0.9" stop-color="#2f365a" stop-opacity="0.2"/><stop offset="1" stop-color="#353d66" stop-opacity="0"/></linearGradient><linearGradient id="Dégradé_sans_nom_152-2" x1="1469.9" y1="329.44" x2="1380.35" y2="349.46" gradientTransform="translate(-1136.84 -2.72) rotate(-4.73)" xlink:href="#Dégradé_sans_nom_152"/><linearGradient id="Dégradé_sans_nom_389" x1="85.62" y1="304.46" x2="241.29" y2="304.46" gradientUnits="userSpaceOnUse"><stop offset="0" stop-color="#141d2a"/><stop offset="0.3" stop-color="#161f2e"/><stop offset="0.62" stop-color="#1d263c"/><stop offset="0.95" stop-color="#293251"/><stop offset="1" stop-color="#2b3455"/></linearGradient><linearGradient id="Dégradé_sans_nom_389-2" x1="238.65" y1="247.37" x2="394.32" y2="247.37" xlink:href="#Dégradé_sans_nom_389"/><linearGradient id="Dégradé_sans_nom_389-3" x1="391.68" y1="190.28" x2="547.35" y2="190.28" xlink:href="#Dégradé_sans_nom_389"/><linearGradient id="Dégradé_sans_nom_389-4" x1="544.71" y1="133.19" x2="700.38" y2="133.19" xlink:href="#Dégradé_sans_nom_389"/><linearGradient id="Dégradé_sans_nom_278" x1="379.8" y1="194.64" x2="381.05" y2="197.95" gradientUnits="userSpaceOnUse"><stop offset="0" stop-color="#353d66"/><stop offset="0.32" stop-color="#323b62"/><stop offset="0.66" stop-color="#2b3455"/><stop offset="1" stop-color="#1e2a41"/></linearGradient><linearGradient id="Dégradé_sans_nom_299" x1="98.04" y1="299.88" x2="101.2" y2="308.22" gradientUnits="userSpaceOnUse"><stop offset="0" stop-color="#353d66"/><stop offset="0.19" stop-color="#323b62"/><stop offset="0.39" stop-color="#2a3454"/><stop offset="0.58" stop-color="#1e2a41"/></linearGradient><linearGradient id="Dégradé_sans_nom_299-2" x1="250.74" y1="242.1" x2="253.79" y2="250.16" xlink:href="#Dégradé_sans_nom_299"/><linearGradient id="Dégradé_sans_nom_299-3" x1="403.76" y1="184.2" x2="406.8" y2="192.26" xlink:href="#Dégradé_sans_nom_299"/><linearGradient id="Dégradé_sans_nom_299-4" x1="555.93" y1="126.62" x2="558.98" y2="134.68" xlink:href="#Dégradé_sans_nom_299"/><linearGradient id="Dégradé_sans_nom_121" x1="389.45" y1="71.46" x2="431.8" y2="71.46" gradientTransform="translate(779.3 -122.92) rotate(142.33)" gradientUnits="userSpaceOnUse"><stop offset="0" stop-color="#455085"/><stop offset="0.25" stop-color="#353d66"/><stop offset="0.5" stop-color="#323b62"/><stop offset="0.75" stop-color="#2b3455"/><stop offset="1" stop-color="#1e2a41"/></linearGradient><linearGradient id="Dégradé_sans_nom_121-2" x1="417.64" y1="77.22" x2="462.4" y2="77.22" gradientTransform="translate(880.04 154.43) rotate(180)" xlink:href="#Dégradé_sans_nom_121"/><linearGradient id="Dégradé_sans_nom_121-3" x1="425.28" y1="143.84" x2="440.93" y2="143.84" gradientTransform="translate(866.21 287.68) rotate(180)" xlink:href="#Dégradé_sans_nom_121"/><linearGradient id="Dégradé_sans_nom_121-4" x1="440.12" y1="143.84" x2="455.77" y2="143.84" gradientTransform="translate(895.89 287.68) rotate(-180)" xlink:href="#Dégradé_sans_nom_121"/><linearGradient id="Dégradé_sans_nom_121-5" x1="446.9" y1="78.53" x2="465.69" y2="78.53" gradientTransform="translate(905.77 189.66) rotate(-175.88)" xlink:href="#Dégradé_sans_nom_121"/><linearGradient id="Dégradé_sans_nom_121-6" x1="422.2" y1="23.5" x2="457.67" y2="23.5" gradientTransform="matrix(1, 0, 0, 1, 0, 0)" xlink:href="#Dégradé_sans_nom_121"/><linearGradient id="Dégradé_sans_nom_103-14" x1="373.61" y1="99.54" x2="403.91" y2="99.54" xlink:href="#Dégradé_sans_nom_103"/><linearGradient id="Dégradé_sans_nom_268" x1="300.38" y1="120.37" x2="324.82" y2="120.37" gradientTransform="translate(-17.81 65.25) rotate(-11.59)" gradientUnits="userSpaceOnUse"><stop offset="0" stop-color="#89a191"/><stop offset="0" stop-color="#8aa291"/><stop offset="0.22" stop-color="#a7be77"/><stop offset="0.41" stop-color="#bacf68"/><stop offset="0.54" stop-color="#c0d562"/><stop offset="0.66" stop-color="#c2d666"/><stop offset="0.78" stop-color="#c7da73"/><stop offset="0.9" stop-color="#cfdf88"/><stop offset="1" stop-color="#d8e59e"/></linearGradient><linearGradient id="Dégradé_sans_nom_268-2" x1="313.96" y1="66.86" x2="349.44" y2="66.86" gradientTransform="matrix(1, 0, 0, 1, 0, 0)" xlink:href="#Dégradé_sans_nom_268"/><linearGradient id="Dégradé_sans_nom_268-3" x1="308.66" y1="120.57" x2="348.77" y2="120.57" gradientTransform="matrix(1, 0, 0, 1, 0, 0)" xlink:href="#Dégradé_sans_nom_268"/><linearGradient id="Dégradé_sans_nom_268-4" x1="313.97" y1="187.2" x2="329.62" y2="187.2" gradientTransform="matrix(1, 0, 0, 1, 0, 0)" xlink:href="#Dégradé_sans_nom_268"/><linearGradient id="Dégradé_sans_nom_268-5" x1="326.68" y1="187.2" x2="342.34" y2="187.2" gradientTransform="matrix(1, 0, 0, 1, 0, 0)" xlink:href="#Dégradé_sans_nom_268"/><linearGradient id="Dégradé_sans_nom_268-6" x1="332.72" y1="100.85" x2="391.7" y2="100.85" gradientTransform="translate(414.96 -271.42) rotate(82.51)" xlink:href="#Dégradé_sans_nom_268"/></defs><title>illustration_peer-to-peer_3</title><g id="Calque_1" data-name="Calque 1"><ellipse class="cls-1" cx="399.3" cy="225.53" rx="390.17" ry="105.15" transform="translate(-50.94 138.42) rotate(-18.51)"/><g class="cls-2"><rect class="cls-3" x="336.49" y="195.1" width="129.65" height="18.4" rx="9.2" transform="translate(-44.89 143.51) rotate(-19.22)"/><rect class="cls-4" x="433.69" y="213.17" width="129.65" height="18.4" rx="9.2" transform="translate(-45.42 176.52) rotate(-19.22)"/><rect class="cls-4" x="444.02" y="35.11" width="129.65" height="18.4" rx="9.2" transform="translate(13.78 169.99) rotate(-19.22)"/><rect class="cls-4" x="591.11" y="93.6" width="129.65" height="18.4" rx="9.2" transform="translate(2.72 221.68) rotate(-19.22)"/><rect class="cls-3" x="627.8" y="16.93" width="99.45" height="14.11" rx="7.06" transform="translate(29.87 224.4) rotate(-19.22)"/><rect class="cls-4" x="298.28" y="290.83" width="99.45" height="14.11" rx="7.06" transform="translate(-78.67 131.18) rotate(-19.22)"/><rect class="cls-3" x="131.4" y="214.13" width="157.01" height="22.28" rx="11.14" transform="translate(-62.46 81.67) rotate(-19.22)"/><rect class="cls-3" x="558.08" y="202.3" width="157.01" height="22.28" rx="11.14" transform="translate(-34.78 221.48) rotate(-19.22)"/><rect class="cls-5" x="302.94" y="122.85" width="129.65" height="18.4" rx="9.2" transform="translate(-22.97 128.44) rotate(-19.22)"/><rect class="cls-5" x="434.5" y="122.88" width="99.45" height="14.11" rx="7.06" transform="translate(-15.79 166.66) rotate(-19.22)"/><rect class="cls-4" x="149.83" y="274.24" width="129.65" height="18.4" rx="9.2" transform="translate(-81.35 86.47) rotate(-19.22)"/><rect class="cls-4" x="81.2" y="342.32" width="99.45" height="14.11" rx="7.06" transform="translate(-107.73 62.58) rotate(-19.22)"/></g><g class="cls-6"><rect class="cls-3" x="298.86" y="223.17" width="129.65" height="18.4" rx="9.2" transform="translate(-56.23 132.69) rotate(-19.22)"/><rect class="cls-4" x="396.06" y="241.24" width="129.65" height="18.4" rx="9.2" transform="translate(-56.76 165.7) rotate(-19.22)"/><rect class="cls-4" x="406.38" y="63.17" width="129.65" height="18.4" rx="9.2" transform="translate(2.44 159.17) rotate(-19.22)"/><rect class="cls-4" x="553.48" y="121.67" width="129.65" height="18.4" rx="9.2" transform="translate(-8.62 210.86) rotate(-19.22)"/><rect class="cls-3" x="590.17" y="45" width="99.45" height="14.11" rx="7.06" transform="translate(18.53 213.57) rotate(-19.22)"/><rect class="cls-4" x="260.65" y="318.9" width="99.45" height="14.11" rx="7.06" transform="translate(-90.01 120.35) rotate(-19.22)"/><rect class="cls-3" x="93.77" y="242.19" width="157.01" height="22.28" rx="11.14" transform="translate(-73.8 70.84) rotate(-19.22)"/><rect class="cls-3" x="520.45" y="230.37" width="157.01" height="22.28" rx="11.14" transform="translate(-46.12 210.66) rotate(-19.22)"/><rect class="cls-5" x="265.31" y="150.91" width="129.65" height="18.4" rx="9.2" transform="translate(-34.31 117.62) rotate(-19.22)"/><rect class="cls-5" x="396.87" y="150.95" width="99.45" height="14.11" rx="7.06" transform="translate(-27.12 155.84) rotate(-19.22)"/><rect class="cls-4" x="112.2" y="302.31" width="129.65" height="18.4" rx="9.2" transform="translate(-92.69 75.65) rotate(-19.22)"/><rect class="cls-4" x="43.57" y="370.39" width="99.45" height="14.11" rx="7.06" transform="translate(-119.06 51.76) rotate(-19.22)"/></g><g class="cls-7"><rect class="cls-4" x="594.89" y="222.77" width="2.5" height="1" transform="translate(-16.65 50.86) rotate(-4.82)"/><path class="cls-4" d="M499.53,231.92l-.08-1,4.77-.41.08,1Zm9.54-.8-.08-1,4.77-.4.08,1Zm9.54-.81-.08-1,4.77-.41.08,1Zm9.54-.8-.08-1,4.77-.4.08,1Zm9.54-.81-.08-1,4.77-.4.08,1Zm9.54-.8-.08-1,4.77-.4.09,1Zm9.55-.8-.09-1,4.77-.4.09,1Zm9.54-.81-.09-1,4.77-.4.09,1Zm9.54-.8-.09-1,4.77-.4.09,1Zm9.54-.81-.09-1,4.78-.4.08,1Z"/><rect class="cls-4" x="492.22" y="231.43" width="2.5" height="1" transform="translate(-17.74 42.26) rotate(-4.82)"/><rect class="cls-4" x="661.57" y="49.3" width="2.5" height="1" transform="translate(472.07 686.52) rotate(-77.62)"/><path class="cls-4" d="M638.13,199.27l-1-.12.63-5,1,.13Zm1.26-10-1-.12.62-5,1,.13Zm1.25-9.95-1-.12.63-5,1,.13Zm1.26-10-1-.12.63-5,1,.13Zm1.25-9.95-1-.12.63-5,1,.13Zm1.25-9.95-1-.12.63-5,1,.13Zm1.26-9.94-1-.13.62-5,1,.12Zm1.25-10-1-.13.63-5,1,.12Zm1.26-9.95-1-.13.25-2,.66-3,1,.21-.65,2.95Zm2-9.79-1-.21,1.08-4.9,1,.22Zm2.15-9.79-1-.22L652.38,95l1,.21Zm2.15-9.8-1-.21,1.07-4.9,1,.22Zm2.15-9.79-1-.22,1.07-4.89,1,.21Zm2.15-9.8-1-.21,1.07-4.9,1,.22Zm2.16-9.79-1-.22L661,55.81l1,.21Z"/><rect class="cls-4" x="635.6" y="204.93" width="2.5" height="1" transform="translate(353.43 811.61) rotate(-82.82)"/><rect class="cls-4" x="392.35" y="143.79" width="2.5" height="1"/><path class="cls-4" d="M399.83,144.79v-1h5v1Zm10,0v-1h5v1Zm9.95,0v-1h5v1Zm10,0v-1h5v1Zm10,0v-1h5v1Zm10,0v-1h5v1Zm9.95,0v-1h5v1Z"/><polygon class="cls-4" points="469.53 144.76 469.53 143.76 471.66 143.76 472.24 141.72 473.2 142 472.41 144.76 469.53 144.76"/><path class="cls-4" d="M474.57,137.24l-1-.27,1.37-4.76,1,.28Zm2.73-9.51-1-.27,1.37-4.76,1,.28Zm2.74-9.5-1-.28,1.36-4.76,1,.28Zm2.73-9.51-1-.28,1.37-4.76,1,.28Zm2.74-9.51-1-.28,1.36-4.75,1,.27Zm2.73-9.51-1-.28,1.37-4.75,1,.27ZM491,80.19l-1-.28,1.37-4.75,1,.27Zm2.74-9.51-1-.28,1.36-4.75,1,.27Z"/><polygon class="cls-4" points="496.44 61.17 495.48 60.89 496.26 58.17 499.08 57.83 499.19 58.83 497.04 59.09 496.44 61.17"/><path class="cls-4" d="M504.13,58.23l-.12-1,4.93-.6.12,1ZM514,57l-.12-1,4.93-.59.12,1Zm9.86-1.18-.12-1,4.93-.59.12,1Zm9.86-1.19-.12-1,4.93-.6.12,1Zm9.86-1.19-.12-1,4.93-.6.12,1Zm9.86-1.19-.12-1,4.93-.59.12,1Zm9.86-1.18-.12-1,4.93-.59.12,1Zm9.86-1.19-.11-1,4.93-.6.12,1ZM583,48.73l-.12-1,4.93-.6.12,1Zm9.86-1.19-.12-1,4.93-.59.12,1Zm9.86-1.18-.12-1,4.93-.59.12,1Zm9.86-1.19-.12-1,4.93-.6.12,1Z"/><rect class="cls-4" x="622.39" y="42.83" width="2.5" height="1" transform="translate(-0.72 74.62) rotate(-6.84)"/><rect class="cls-4" x="347.36" y="298.17" width="2.5" height="1" transform="translate(-61.49 504.94) rotate(-67.29)"/><path class="cls-4" d="M351.51,293l-.92-.39,2-4.67.92.38Zm3.92-9.35-.93-.39,2-4.67.92.38Zm3.91-9.35-.92-.39,2-4.67.92.38Zm3.92-9.35-.92-.39,2-4.67.93.38Zm3.91-9.35-.92-.39,2-4.67.92.38Zm3.92-9.35-.92-.39,2-4.67.92.38Zm3.92-9.35-.93-.39,2-4.67.92.39Zm3.91-9.35-.92-.39.16-.38-.84-4.26,1-.2.9,4.57Zm-2.59-10-1-5,1-.19,1,5Zm-2-9.94-1-5,1-.2,1,5Zm-2-9.94-1-5,1-.19,1,5Zm-2-9.95-1-5,1-.19,1,5Zm-2-9.94-1-5,1-.2,1,5Zm-2-9.94-1-5,1-.19,1,5Z"/><rect class="cls-4" x="364.27" y="155.35" width="1" height="2.5" transform="translate(-23.46 73.8) rotate(-11.2)"/><rect class="cls-4" x="196.94" y="254.75" width="1" height="2.5" transform="translate(-50.85 48.94) rotate(-12.53)"/><path class="cls-4" d="M204.41,289.69l-1.2-5.4,1-.21,1.2,5.39ZM202,278.9l-1.19-5.39,1-.22,1.2,5.39Zm-2.39-10.78-1.2-5.4,1-.21,1.19,5.39Z"/><polygon class="cls-4" points="209.08 298.15 206.23 297.88 205.61 295.08 206.59 294.86 207.05 296.95 209.18 297.15 209.08 298.15"/><path class="cls-4" d="M313.91,308.27l-4.76-.46.09-1,4.77.46Zm-9.53-.92-4.76-.46.09-1,4.77.46Zm-9.53-.92-4.76-.46.09-1,4.77.46Zm-9.53-.92-4.76-.46.09-1,4.77.46Zm-9.53-.92-4.76-.46.09-1,4.77.46Zm-9.53-.92-4.76-.46.09-1,4.77.46Zm-9.53-.92-4.76-.46.09-1,4.77.46Zm-9.53-.92-4.76-.46.09-1,4.77.46Zm-9.53-.92-4.76-.46.09-1,4.77.46Zm-9.53-.92-4.76-.46.09-1,4.77.47Zm-9.53-.92-4.76-.46.09-1,4.77.46Z"/><rect class="cls-4" x="319.47" y="307.1" width="1" height="2.5" transform="matrix(0.1, -1, 1, 0.1, -17.71, 597.21)"/><rect class="cls-4" x="118.15" y="362.14" width="2.5" height="1" transform="translate(-251.13 270.58) rotate(-57.82)"/><path class="cls-4" d="M123.13,357.66l-.85-.53,2.64-4.19.84.54Zm5.27-8.37-.85-.53,2.64-4.19.85.53Zm5.27-8.38-.84-.53,2.63-4.19.85.54Zm5.28-8.37-.85-.53,2.64-4.19.84.53Zm5.27-8.38-.85-.53,2.64-4.19.85.54Zm5.27-8.37-.84-.53,2.63-4.19.85.53Zm5.28-8.38-.85-.53,2.64-4.19.84.54ZM160,299l-.85-.53,2.64-4.19.85.53Zm5.28-8.38-.85-.53,2.64-4.19.84.54Zm5.27-8.37-.85-.54,2.64-4.18.85.53Zm5.27-8.38-.84-.53,2.63-4.19.85.54Zm5.28-8.37-.85-.54,2.64-4.18.84.53Z"/><rect class="cls-4" x="185.4" y="255.34" width="2.5" height="1" transform="translate(-129.29 277.58) rotate(-57.82)"/><rect class="cls-3" x="324.3" y="209.42" width="129.65" height="18.4" rx="9.2" transform="translate(-50.28 140.3) rotate(-19.22)"/><rect class="cls-4" x="421.51" y="227.49" width="129.65" height="18.4" rx="9.2" transform="translate(-50.81 173.31) rotate(-19.22)"/><rect class="cls-4" x="431.83" y="49.43" width="129.65" height="18.4" rx="9.2" transform="translate(8.39 166.78) rotate(-19.22)"/><rect class="cls-4" x="578.92" y="107.92" width="129.65" height="18.4" rx="9.2" transform="translate(-2.67 218.47) rotate(-19.22)"/><rect class="cls-3" x="615.61" y="31.26" width="99.45" height="14.11" rx="7.06" transform="translate(24.48 221.18) rotate(-19.22)"/><rect class="cls-4" x="286.09" y="305.15" width="99.45" height="14.11" rx="7.06" transform="translate(-84.07 127.96) rotate(-19.22)"/><rect class="cls-3" x="119.22" y="228.45" width="157.01" height="22.28" rx="11.14" transform="translate(-67.86 78.45) rotate(-19.22)"/><rect class="cls-3" x="545.9" y="216.62" width="157.01" height="22.28" rx="11.14" transform="translate(-40.18 218.27) rotate(-19.22)"/><rect class="cls-5" x="290.76" y="137.17" width="129.65" height="18.4" rx="9.2" transform="translate(-28.36 125.23) rotate(-19.22)"/><rect class="cls-5" x="422.31" y="137.21" width="99.45" height="14.11" rx="7.06" transform="translate(-21.18 163.45) rotate(-19.22)"/><rect class="cls-4" x="137.64" y="288.56" width="129.65" height="18.4" rx="9.2" transform="matrix(0.94, -0.33, 0.33, 0.94, -86.74, 83.26)"/><rect class="cls-4" x="69.01" y="356.64" width="99.45" height="14.11" rx="7.06" transform="translate(-113.12 59.37) rotate(-19.22)"/></g><path class="cls-8" d="M699.93,75.17,59.47,313.42a4.74,4.74,0,0,0-.11,8.83h0a4.77,4.77,0,0,0,3.41,0L703.22,84a4.73,4.73,0,0,0,.11-8.83h0A4.75,4.75,0,0,0,699.93,75.17Z"/><polyline class="cls-9" points="289.1 247.06 393.04 210.54 393.04 224.02 289.1 260.54"/><polygon class="cls-10" points="289.3 260.79 230.57 235.4 230.57 221.78 289.3 247.17 289.3 260.79"/><polygon class="cls-11" points="392.64 210.71 289.27 247.19 230.49 221.86 333.87 185.37 392.64 210.71"/><polygon class="cls-12" points="239.69 266.92 136.32 303.41 77.54 278.07 180.91 241.59 239.69 266.92"/><polyline class="cls-9" points="136.15 303.27 240.08 266.75 240.08 280.23 136.15 316.75"/><polygon class="cls-10" points="136.34 317 77.62 291.62 77.62 278 136.34 303.38 136.34 317"/><polygon class="cls-13" points="546.25 153.19 442.88 189.67 384.1 164.34 487.47 127.85 546.25 153.19"/><polyline class="cls-9" points="442.71 189.54 546.64 153.01 546.64 166.5 442.71 203.02"/><polygon class="cls-10" points="442.9 203.26 384.18 177.88 384.18 164.26 442.9 189.65 442.9 203.26"/><polygon class="cls-14" points="698.31 96.11 594.94 132.59 536.16 107.26 639.53 70.77 698.31 96.11"/><polyline class="cls-9" points="594.77 132.46 698.7 95.94 698.7 109.42 594.77 145.94"/><polygon class="cls-10" points="594.96 146.19 536.24 120.8 536.24 107.19 594.96 132.57 594.96 146.19"/><path class="cls-15" d="M87,303.16l13.29-5s7.83-3.54,10.08,1.47-5.23,7-5.23,7l-14.87,5.45"/><path class="cls-16" d="M240,246.23l13.29-5s7.83-3.54,10.07,1.47-5.23,7-5.23,7l-14.87,5.45"/><path class="cls-17" d="M393.34,189.19l13.29-5s7.83-3.53,10.08,1.47-5.23,7-5.23,7l-14.87,5.45"/><path class="cls-18" d="M545.83,132.44l13.29-5s7.83-3.54,10.08,1.47-5.23,7-5.23,7l-14.87,5.45"/><ellipse class="cls-19" cx="466.91" cy="154.33" rx="43.44" ry="14.19" transform="translate(-24.6 169.78) rotate(-20.09)"/><g class="cls-20"><path class="cls-21" d="M342.37,206.6c-3.16-6.81-30-7.86-50.89,1.79-17.24,8-30,18.47-32.19,25.73l17.22,7.41c7.62.59,23.71-2.44,33.28-6.87C330.65,225,345.52,213.42,342.37,206.6Z"/></g><g class="cls-22"><path class="cls-23" d="M240.05,300.47l-98.2,34.66a1.88,1.88,0,0,1-1.36-.05L86.74,311.92a1.87,1.87,0,0,1,.12-3.47l98.2-34.66a1.88,1.88,0,0,1,1.36,0L240.17,297A1.86,1.86,0,0,1,240.05,300.47Z"/><path class="cls-24" d="M393.08,243.38,294.88,278a1.88,1.88,0,0,1-1.36-.05l-53.75-23.16a1.87,1.87,0,0,1,.12-3.47l98.2-34.66a1.88,1.88,0,0,1,1.36.05l53.75,23.16A1.87,1.87,0,0,1,393.08,243.38Z"/><path class="cls-25" d="M546.11,186.29,447.91,221a1.88,1.88,0,0,1-1.36,0L392.8,197.73a1.86,1.86,0,0,1,.12-3.46l98.2-34.66a1.88,1.88,0,0,1,1.36,0l53.75,23.16A1.87,1.87,0,0,1,546.11,186.29Z"/><path class="cls-26" d="M699.14,129.2l-98.2,34.66a1.88,1.88,0,0,1-1.36-.05l-53.75-23.17a1.86,1.86,0,0,1,.12-3.46l98.2-34.66a1.88,1.88,0,0,1,1.36,0l53.74,23.16A1.87,1.87,0,0,1,699.14,129.2Z"/></g><path class="cls-27" d="M699.93,75.17,59.47,313.42a4.74,4.74,0,0,0-.11,8.83h0a4.77,4.77,0,0,0,3.41,0L703.22,84a4.73,4.73,0,0,0,.11-8.83h0A4.75,4.75,0,0,0,699.93,75.17Z"/><polyline class="cls-9" points="289.1 247.06 393.04 210.54 393.04 224.02 289.1 260.54"/><polygon class="cls-10" points="289.3 260.79 230.57 235.4 230.57 221.78 289.3 247.17 289.3 260.79"/><polygon class="cls-11" points="392.64 210.71 289.27 247.19 230.49 221.86 333.87 185.37 392.64 210.71"/><polygon class="cls-12" points="239.69 266.92 136.32 303.41 77.54 278.07 180.91 241.59 239.69 266.92"/><polyline class="cls-9" points="136.15 303.27 240.08 266.75 240.08 280.23 136.15 316.75"/><polygon class="cls-10" points="136.34 317 77.62 291.62 77.62 278 136.34 303.38 136.34 317"/><polygon class="cls-13" points="546.25 153.19 442.88 189.67 384.1 164.34 487.47 127.85 546.25 153.19"/><polyline class="cls-9" points="442.71 189.54 546.64 153.01 546.64 166.5 442.71 203.02"/><polygon class="cls-10" points="442.9 203.26 384.18 177.88 384.18 164.26 442.9 189.65 442.9 203.26"/><polygon class="cls-14" points="698.31 96.11 594.94 132.59 536.16 107.26 639.53 70.77 698.31 96.11"/><polyline class="cls-9" points="594.77 132.46 698.7 95.94 698.7 109.42 594.77 145.94"/><polygon class="cls-10" points="594.96 146.19 536.24 120.8 536.24 107.19 594.96 132.57 594.96 146.19"/><path class="cls-28" d="M87,303.16l13.29-5s7.83-3.54,10.08,1.47-5.23,7-5.23,7l-14.87,5.45"/><path class="cls-29" d="M240,246.23l13.29-5s7.83-3.54,10.07,1.47-5.23,7-5.23,7l-14.87,5.45"/><path class="cls-30" d="M393.34,189.19l13.29-5s7.83-3.53,10.08,1.47-5.23,7-5.23,7l-14.87,5.45"/><path class="cls-31" d="M545.83,132.44l13.29-5s7.83-3.54,10.08,1.47-5.23,7-5.23,7l-14.87,5.45"/><rect class="cls-32" x="402.79" y="41.79" width="15.65" height="59.35" rx="7.83" transform="translate(691.95 378.98) rotate(-142.33)"/><path class="cls-33" d="M421.2,40.23h37.64a3.56,3.56,0,0,1,3.56,3.56V93.35a20.85,20.85,0,0,1-20.85,20.85h-3.05a20.85,20.85,0,0,1-20.85-20.85V43.79a3.56,3.56,0,0,1,3.56-3.56Z" transform="translate(880.04 154.43) rotate(-180)"/><path class="cls-34" d="M433.11,114.17h0a7.83,7.83,0,0,1,7.83,7.83v51.52a0,0,0,0,1,0,0H425.28a0,0,0,0,1,0,0V122A7.83,7.83,0,0,1,433.11,114.17Z" transform="translate(866.21 287.68) rotate(-180)"/><path class="cls-35" d="M447.94,114.17h0a7.83,7.83,0,0,1,7.83,7.83v51.52a0,0,0,0,1,0,0H440.12a0,0,0,0,1,0,0V122a7.83,7.83,0,0,1,7.83-7.83Z" transform="translate(895.89 287.68) rotate(180)"/><rect class="cls-36" x="448.47" y="48.86" width="15.65" height="59.35" rx="7.83" transform="translate(917.05 124.07) rotate(175.88)"/><circle class="cls-37" cx="439.93" cy="23.5" r="17.74"/><circle class="cls-4" cx="391.36" cy="88.22" r="15.15"/><circle class="cls-38" cx="391.36" cy="88.22" r="30.3"/><circle class="cls-39" cx="391.36" cy="88.22" r="74.88"/><circle class="cls-40" cx="388.76" cy="99.54" r="15.15"/><circle class="cls-41" cx="388.76" cy="99.54" r="30.3"/><circle class="cls-42" cx="388.76" cy="99.54" r="74.97"/><rect class="cls-43" x="304.77" y="90.69" width="15.65" height="59.35" rx="7.83" transform="translate(30.55 -60.34) rotate(11.59)"/><circle class="cls-44" cx="331.7" cy="66.86" r="17.74"/><path class="cls-45" d="M328.4,83.58H329a19.74,19.74,0,0,1,19.74,19.74v50.87a3.37,3.37,0,0,1-3.37,3.37H312a3.37,3.37,0,0,1-3.37-3.37V103.32A19.74,19.74,0,0,1,328.4,83.58Z"/><path class="cls-46" d="M314,157.52h12a3.64,3.64,0,0,1,3.64,3.64V209a7.83,7.83,0,0,1-7.83,7.83h0A7.83,7.83,0,0,1,314,209V157.52a0,0,0,0,1,0,0Z"/><path class="cls-47" d="M326.68,157.52h15.65a0,0,0,0,1,0,0V209a7.83,7.83,0,0,1-7.83,7.83h0a7.83,7.83,0,0,1-7.83-7.83V157.52A0,0,0,0,1,326.68,157.52Z"/><rect class="cls-48" x="354.39" y="71.18" width="15.65" height="59.35" rx="7.83" transform="translate(214.98 446.82) rotate(-82.51)"/></g></svg>