<svg id="Calque_3" data-name="Calque 3" xmlns="http://www.w3.org/2000/svg" xmlns:xlink="http://www.w3.org/1999/xlink" viewBox="0 0 774.62 460.1"><defs><style>.cls-1,.cls-40{fill:#1e2a41;}.cls-1,.cls-6{opacity:0.1;}.cls-13,.cls-16,.cls-2,.cls-23,.cls-25{opacity:0.2;}.cls-3{fill:#0071bc;}.cls-13,.cls-14,.cls-4{fill:#c0d562;}.cls-19,.cls-5,.cls-6{fill:#fff;}.cls-5{opacity:0.04;}.cls-7{fill:#009ee2;}.cls-8{fill:#1d70b7;}.cls-9{fill:#009540;}.cls-10{fill:#f8b133;}.cls-11{fill:#e5332a;}.cls-12{fill:#275393;}.cls-14,.cls-17,.cls-55,.cls-58{opacity:0.5;}.cls-15,.cls-16,.cls-17{fill:#ff7680;}.cls-18{fill:url(#Dégradé_sans_nom_623);}.cls-20{fill:url(#Dégradé_sans_nom_623-2);}.cls-21{fill:url(#Dégradé_sans_nom_623-3);}.cls-22{fill:url(#Dégradé_sans_nom_623-4);}.cls-23{fill:url(#Dégradé_sans_nom_103);}.cls-24{fill:url(#Dégradé_sans_nom_103-2);}.cls-25{fill:url(#Dégradé_sans_nom_103-3);}.cls-26{fill:url(#Dégradé_sans_nom_103-4);}.cls-27{fill:url(#Dégradé_sans_nom_615);}.cls-28{fill:url(#Dégradé_sans_nom_269);}.cls-29{fill:url(#Dégradé_sans_nom_615-2);}.cls-30{fill:url(#Dégradé_sans_nom_269-2);}.cls-31{fill:url(#Dégradé_sans_nom_615-3);}.cls-32{fill:url(#Dégradé_sans_nom_269-3);}.cls-33{fill:url(#Dégradé_sans_nom_615-4);}.cls-34{fill:url(#Dégradé_sans_nom_103-5);}.cls-35{fill:url(#Dégradé_sans_nom_615-5);}.cls-36{fill:url(#Dégradé_sans_nom_103-6);}.cls-37{fill:url(#Dégradé_sans_nom_615-6);}.cls-38{fill:url(#Dégradé_sans_nom_103-7);}.cls-39{fill:url(#Dégradé_sans_nom_103-8);}.cls-41{fill:#121a26;}.cls-42{fill:url(#Dégradé_sans_nom_269-4);}.cls-43{fill:url(#Dégradé_sans_nom_615-7);}.cls-44{fill:url(#Dégradé_sans_nom_269-5);}.cls-45{fill:url(#Dégradé_sans_nom_615-8);}.cls-46{fill:url(#Dégradé_sans_nom_269-6);}.cls-47{fill:url(#Dégradé_sans_nom_615-9);}.cls-48{fill:url(#Dégradé_sans_nom_269-7);}.cls-49{fill:url(#Dégradé_sans_nom_615-10);}.cls-50{fill:url(#Dégradé_sans_nom_269-8);}.cls-51{fill:url(#Dégradé_sans_nom_615-11);}.cls-52{fill:url(#Dégradé_sans_nom_269-9);}.cls-53{fill:url(#Dégradé_sans_nom_615-12);}.cls-54{fill:url(#Dégradé_sans_nom_654);}.cls-56,.cls-58{fill:#c1272d;}.cls-57{fill:url(#Dégradé_sans_nom_650);}</style><linearGradient id="Dégradé_sans_nom_623" x1="414.71" y1="62.67" x2="465.78" y2="62.67" gradientUnits="userSpaceOnUse"><stop offset="0" stop-color="#545e2b"/><stop offset="0.11" stop-color="#6b7837"/><stop offset="0.27" stop-color="#8a9946"/><stop offset="0.45" stop-color="#a2b453"/><stop offset="0.62" stop-color="#b3c65b"/><stop offset="0.8" stop-color="#bdd160"/><stop offset="1" stop-color="#c0d562"/></linearGradient><linearGradient id="Dégradé_sans_nom_623-2" x1="371.23" y1="66.48" x2="462.57" y2="64.31" xlink:href="#Dégradé_sans_nom_623"/><linearGradient id="Dégradé_sans_nom_623-3" x1="387.92" y1="8.71" x2="429.33" y2="8.71" xlink:href="#Dégradé_sans_nom_623"/><linearGradient id="Dégradé_sans_nom_623-4" x1="352.67" y1="11.8" x2="426.73" y2="10.05" xlink:href="#Dégradé_sans_nom_623"/><linearGradient id="Dégradé_sans_nom_103" x1="346.06" y1="39.66" x2="398.4" y2="39.66" gradientTransform="translate(744.46 79.31) rotate(180)" gradientUnits="userSpaceOnUse"><stop offset="0" stop-color="#1e2a41"/><stop offset="0.34" stop-color="#2b3455"/><stop offset="0.68" stop-color="#323b62"/><stop offset="1" stop-color="#353d66"/></linearGradient><linearGradient id="Dégradé_sans_nom_103-2" x1="342.87" y1="41.83" x2="395.21" y2="41.83" gradientTransform="translate(738.07 83.66) rotate(-180)" xlink:href="#Dégradé_sans_nom_103"/><linearGradient id="Dégradé_sans_nom_103-3" x1="326.52" y1="69.33" x2="362.61" y2="69.33" gradientTransform="translate(689.12 138.65) rotate(-180)" xlink:href="#Dégradé_sans_nom_103"/><linearGradient id="Dégradé_sans_nom_103-4" x1="324.32" y1="70.82" x2="360.4" y2="70.82" gradientTransform="translate(684.72 141.65) rotate(180)" xlink:href="#Dégradé_sans_nom_103"/><radialGradient id="Dégradé_sans_nom_615" cx="1161.34" cy="124.97" r="26.12" gradientTransform="matrix(0.75, -0.03, 0.03, 0.75, -357.66, 142.26)" gradientUnits="userSpaceOnUse"><stop offset="0.51" stop-color="#c0d562"/><stop offset="0.62" stop-color="#abbe57"/><stop offset="0.86" stop-color="#75823c"/><stop offset="1" stop-color="#545e2b"/></radialGradient><linearGradient id="Dégradé_sans_nom_269" x1="529.08" y1="92.09" x2="532.02" y2="102.28" gradientTransform="matrix(1, -0.04, 0.04, 1, -31.3, 137.97)" gradientUnits="userSpaceOnUse"><stop offset="0" stop-color="#353d66"/><stop offset="0.32" stop-color="#323b62"/><stop offset="0.66" stop-color="#2b3455"/><stop offset="1" stop-color="#1e2a41"/></linearGradient><radialGradient id="Dégradé_sans_nom_615-2" cx="1117.39" cy="108.99" r="26.12" xlink:href="#Dégradé_sans_nom_615"/><linearGradient id="Dégradé_sans_nom_269-2" x1="496.02" y1="80.06" x2="498.96" y2="90.25" xlink:href="#Dégradé_sans_nom_269"/><radialGradient id="Dégradé_sans_nom_615-3" cx="1073.43" cy="93" r="26.12" xlink:href="#Dégradé_sans_nom_615"/><linearGradient id="Dégradé_sans_nom_269-3" x1="462.96" y1="68.03" x2="465.9" y2="78.22" xlink:href="#Dégradé_sans_nom_269"/><radialGradient id="Dégradé_sans_nom_615-4" cx="1481.89" cy="1694.64" r="26.12" gradientTransform="matrix(0.58, 0.47, -0.47, 0.58, 237.82, -1498.86)" xlink:href="#Dégradé_sans_nom_615"/><linearGradient id="Dégradé_sans_nom_103-5" x1="-1646.85" y1="3951.68" x2="-1643.91" y2="3961.86" gradientTransform="translate(-3451.41 2246.43) rotate(-140.94)" xlink:href="#Dégradé_sans_nom_103"/><radialGradient id="Dégradé_sans_nom_615-5" cx="1507.79" cy="1651.35" r="26.12" gradientTransform="matrix(0.58, 0.47, -0.47, 0.58, 237.82, -1498.86)" xlink:href="#Dégradé_sans_nom_615"/><linearGradient id="Dégradé_sans_nom_103-6" x1="-1666.3" y1="3984.23" x2="-1663.37" y2="3994.41" gradientTransform="translate(-3451.41 2246.43) rotate(-140.94)" xlink:href="#Dégradé_sans_nom_103"/><radialGradient id="Dégradé_sans_nom_615-6" cx="1533.7" cy="1608.06" r="26.12" gradientTransform="matrix(0.58, 0.47, -0.47, 0.58, 237.82, -1498.86)" xlink:href="#Dégradé_sans_nom_615"/><linearGradient id="Dégradé_sans_nom_103-7" x1="-1685.74" y1="4016.81" x2="-1682.8" y2="4026.99" gradientTransform="translate(-3451.41 2246.43) rotate(-140.94)" xlink:href="#Dégradé_sans_nom_103"/><linearGradient id="Dégradé_sans_nom_103-8" x1="285.25" y1="223.71" x2="512.27" y2="223.71" gradientTransform="matrix(1, 0, 0, 1, 0, 0)" xlink:href="#Dégradé_sans_nom_103"/><linearGradient id="Dégradé_sans_nom_269-4" x1="314.37" y1="150.63" x2="317.31" y2="160.82" gradientTransform="translate(-35.87 103.99) rotate(-2.12)" xlink:href="#Dégradé_sans_nom_269"/><radialGradient id="Dégradé_sans_nom_615-7" cx="818.96" cy="204.59" r="26.12" gradientTransform="matrix(0.75, -0.03, 0.03, 0.75, -361.1, 116.69)" xlink:href="#Dégradé_sans_nom_615"/><linearGradient id="Dégradé_sans_nom_269-5" x1="343.78" y1="163.48" x2="346.72" y2="173.67" gradientTransform="translate(-35.87 103.99) rotate(-2.12)" xlink:href="#Dégradé_sans_nom_269"/><radialGradient id="Dégradé_sans_nom_615-8" cx="858.07" cy="221.65" r="26.12" gradientTransform="matrix(0.75, -0.03, 0.03, 0.75, -361.1, 116.69)" xlink:href="#Dégradé_sans_nom_615"/><linearGradient id="Dégradé_sans_nom_269-6" x1="373.19" y1="176.32" x2="376.13" y2="186.51" gradientTransform="translate(-35.87 103.99) rotate(-2.12)" xlink:href="#Dégradé_sans_nom_269"/><radialGradient id="Dégradé_sans_nom_615-9" cx="897.17" cy="238.72" r="26.12" gradientTransform="matrix(0.75, -0.03, 0.03, 0.75, -361.1, 116.69)" xlink:href="#Dégradé_sans_nom_615"/><linearGradient id="Dégradé_sans_nom_269-7" x1="5999.44" y1="633.35" x2="6002.38" y2="643.54" gradientTransform="matrix(-0.99, -0.13, -0.13, 0.99, 6467.74, 410.47)" xlink:href="#Dégradé_sans_nom_269"/><radialGradient id="Dégradé_sans_nom_615-10" cx="5379.43" cy="600.65" r="26.12" gradientTransform="matrix(-0.75, -0.1, -0.1, 0.75, 4530.04, 347.4)" xlink:href="#Dégradé_sans_nom_615"/><linearGradient id="Dégradé_sans_nom_269-8" x1="5964.51" y1="616.03" x2="5967.45" y2="626.22" gradientTransform="matrix(-0.99, -0.13, -0.13, 0.99, 6467.74, 410.47)" xlink:href="#Dégradé_sans_nom_269"/><radialGradient id="Dégradé_sans_nom_615-11" cx="5332.98" cy="577.64" r="26.12" gradientTransform="matrix(-0.75, -0.1, -0.1, 0.75, 4530.04, 347.4)" xlink:href="#Dégradé_sans_nom_615"/><linearGradient id="Dégradé_sans_nom_269-9" x1="5929.58" y1="598.71" x2="5932.52" y2="608.9" gradientTransform="matrix(-0.99, -0.13, -0.13, 0.99, 6467.74, 410.47)" xlink:href="#Dégradé_sans_nom_269"/><radialGradient id="Dégradé_sans_nom_615-12" cx="5286.53" cy="554.62" r="26.12" gradientTransform="matrix(-0.75, -0.1, -0.1, 0.75, 4530.04, 347.4)" xlink:href="#Dégradé_sans_nom_615"/><radialGradient id="Dégradé_sans_nom_654" cx="970.95" cy="252.57" r="80.46" gradientTransform="translate(-334.12 145.04) scale(0.75 0.33)" gradientUnits="userSpaceOnUse"><stop offset="0" stop-color="#181a2b"/><stop offset="0.47" stop-color="#242943" stop-opacity="0.58"/><stop offset="1" stop-color="#353d66" stop-opacity="0"/></radialGradient><radialGradient id="Dégradé_sans_nom_650" cx="962.41" cy="168.4" r="72.94" gradientTransform="translate(-334.12 38.4) scale(0.75 0.75)" gradientUnits="userSpaceOnUse"><stop offset="0" stop-color="#ff6a83"/><stop offset="0.98" stop-color="#ff7880"/><stop offset="1" stop-color="#ff7880"/></radialGradient></defs><title>illustration_smart_3</title><ellipse class="cls-1" cx="387.31" cy="262.02" rx="399.13" ry="172.91" transform="translate(-56.13 113.62) rotate(-15.58)"/><g class="cls-2"><rect class="cls-3" x="190.74" y="276.39" width="474.24" height="0.36" transform="translate(-66.01 151.48) rotate(-18.67)"/><rect class="cls-3" x="169.17" y="260.29" width="474.24" height="0.36" transform="translate(-61.99 143.73) rotate(-18.67)"/><rect class="cls-3" x="129.76" y="249.11" width="474.24" height="0.36" transform="translate(-60.49 130.53) rotate(-18.67)"/><rect class="cls-3" x="114.37" y="233.7" width="474.24" height="0.36" transform="translate(-56.37 124.79) rotate(-18.67)"/><rect class="cls-3" x="89.28" y="221.14" width="474.24" height="0.36" transform="translate(-53.69 116.19) rotate(-18.68)"/><rect class="cls-3" x="58.69" y="208.58" width="474.24" height="0.36" transform="translate(-51.25 105.65) rotate(-18.67)"/><rect class="cls-3" x="39.48" y="192.49" width="474.24" height="0.36" transform="translate(-47.11 98.66) rotate(-18.67)"/><rect class="cls-3" x="237.89" y="285.12" width="474.24" height="0.36" transform="translate(-66.32 167.03) rotate(-18.67)"/><rect class="cls-3" x="267.3" y="300.43" width="474.24" height="0.36" transform="translate(-69.68 177.25) rotate(-18.67)"/></g><g class="cls-2"><rect class="cls-3" x="342.9" y="35.39" width="0.36" height="474.26" transform="translate(-43.66 478.45) rotate(-66.5)"/><rect class="cls-3" x="365.73" y="21.16" width="0.36" height="474.26" transform="translate(-16.88 490.83) rotate(-66.5)"/><rect class="cls-3" x="405.94" y="13.31" width="0.36" height="474.27" transform="translate(14.49 522.98) rotate(-66.5)"/><rect class="cls-3" x="422.56" y="-0.76" width="0.36" height="474.27" transform="translate(37.38 529.77) rotate(-66.5)"/><rect class="cls-3" x="448.62" y="-11.17" width="0.36" height="474.26" transform="translate(62.6 547.4) rotate(-66.5)"/><rect class="cls-3" x="480.15" y="-21.13" width="0.36" height="474.26" transform="translate(90.68 570.33) rotate(-66.5)"/><rect class="cls-3" x="512.9" y="-31.05" width="0.36" height="474.27" transform="translate(119.47 594.4) rotate(-66.5)"/><rect class="cls-3" x="295.18" y="40.15" width="0.36" height="474.26" transform="translate(-76.71 437.55) rotate(-66.5)"/><rect class="cls-3" x="262.26" y="52.42" width="0.36" height="474.26" transform="translate(-107.75 414.74) rotate(-66.5)"/></g><path class="cls-4" d="M266.64,298.7l-1.64-.78.15-.33,1.64.78Zm1.83,0-.12-.35,1.73-.57.11.34Zm3.45-1.15-.12-.35,1.73-.57.11.35Zm-8.57-.38-1.64-.78.15-.32,1.64.77Zm12-.76-.12-.35,1.73-.57.11.34Zm-15.31-.79-1.64-.77.15-.33,1.64.77Zm18.76-.36-.11-.34,1.72-.58.12.35Zm3.45-1.14-.11-.35,1.72-.57.12.34Zm-25.5-.05-1.64-.77.15-.33,1.65.77Zm29-1.1-.11-.34,1.72-.58.12.35Zm-32.24-.45-1.64-.77.15-.33,1.65.77Zm35.69-.69-.11-.35,1.72-.57.12.34Zm-39-.85-1.64-.78.15-.33,1.65.78Zm42.43-.3-.11-.34,1.72-.58.12.35Zm3.45-1.14-.11-.35,1.72-.57.12.34Zm-49.17-.11L246,289l.16-.33.94.44Zm52.62-1-.11-.34,1.73-.58.11.35Zm3.46-1.14-.12-.35,1.73-.57.11.34Zm3.45-1.15-.12-.34,1.73-.58.11.35Zm3.45-1.14-.12-.35,1.73-.57.11.34Zm3.45-1.15-.12-.34,1.73-.58.11.35Zm3.45-1.14-.12-.35,1.73-.57.11.34Zm3.45-1.15-.12-.34,1.73-.58.11.35Zm3.45-1.14-.11-.35,1.72-.57.12.34Z"/><ellipse class="cls-5" cx="219.63" cy="269.33" rx="38.21" ry="38.25"/><ellipse class="cls-6" cx="219.63" cy="269.33" rx="23.19" ry="23.21"/><path class="cls-7" d="M213.89,274.13s-9.11-4.42-5.13-14c0,0,3.89,4.82,10,5.3,0,0,1.37-9.14,8.74-4.73l2.39.46h1.73l-.88,1.73a4.91,4.91,0,0,1-1.53,1.3c-.87.43.39,6.1-5.74,12.16s-15.68.32-15.68.32S213.43,276.74,213.89,274.13Z"/><path class="cls-7" d="M216.42,279.5a19.48,19.48,0,0,1-8.83-2.49l-1.14-.68h1.33c1.41,0,5.07-.35,5.68-2-1.5-.85-8.71-5.49-5-14.3l.23-.56.39.47a15.47,15.47,0,0,0,9.39,5.14c.22-1.07,1.08-4.34,3.53-5.5,1.57-.74,3.47-.47,5.64.82l2.29.43,2.29,0L231,263.14a5.43,5.43,0,0,1-1.66,1.41,5.67,5.67,0,0,0-.24,1.22,17.35,17.35,0,0,1-5.41,10.87A10.05,10.05,0,0,1,216.42,279.5ZM209.14,277c2.69,1.26,9.43,3.69,14.05-.87a16.71,16.71,0,0,0,5.2-10.45c.15-1,.22-1.57.64-1.78a4.42,4.42,0,0,0,1.38-1.17l.6-1.17H229.8l-2.45-.47-.06,0c-2-1.18-3.65-1.45-5-.81-2.54,1.2-3.18,5.24-3.18,5.28l0,.34-.34,0a15.73,15.73,0,0,1-9.83-5c-3.25,8.74,4.81,12.79,5.16,13l.25.12,0,.27C213.89,276.23,210.93,276.82,209.14,277Z"/><path class="cls-4" d="M558.66,300.29l-1.66-.75.15-.33,1.66.74Zm-3.32-1.49-1.66-.74.15-.33,1.66.74ZM552,297.32l-1.66-.75.15-.33,1.66.74Zm-3.32-1.49-1.66-.74.15-.33,1.66.74Zm-3.32-1.48-1.66-.74.15-.34,1.66.75Zm-3.32-1.49-1.66-.74.15-.33,1.66.74Zm-3.32-1.48-1.66-.74.15-.34,1.66.75Zm-3.31-1.49-1.66-.74.14-.33,1.66.74Zm-3.32-1.48-1.66-.74.14-.33,1.66.74Zm-3.32-1.48-1.66-.75.15-.33,1.66.74Zm-3.32-1.49-1.66-.74.15-.33,1.66.74ZM522.15,284l-1.66-.75.15-.33,1.66.74Zm-3.32-1.49-1.66-.74.15-.33,1.66.74ZM515.51,281l-1.66-.74.15-.34,1.66.75Zm-3.32-1.49-1.66-.74.15-.33,1.66.74ZM508.87,278l-1.66-.74.15-.34,1.66.75Zm-3.32-1.49-1.66-.74.15-.33,1.66.74Zm-3.32-1.48-1.66-.74.15-.34,1.66.75Zm-3.32-1.48-1.65-.75.14-.33,1.66.74Zm-3.31-1.49-1.66-.74.14-.33,1.66.74Z"/><path class="cls-4" d="M527.94,315.69l-1.66-.72.14-.34,1.67.73Zm-3.33-1.45-1.66-.73.14-.33,1.67.72Zm-3.33-1.46-1.67-.73.15-.33,1.67.73ZM518,311.33l-1.67-.73.15-.34,1.66.73Zm-3.33-1.46-1.67-.73.15-.33,1.66.73Zm-3.34-1.46-1.66-.73.14-.33,1.67.73ZM508,307l-1.66-.73.14-.33,1.67.72Zm-3.33-1.46-1.66-.73.14-.33,1.67.73ZM501.29,304l-1.67-.72.15-.34,1.67.73ZM498,302.59l-1.67-.73.15-.33,1.66.73Zm-3.33-1.46L493,300.4l.15-.33,1.66.73Zm-3.34-1.45-1.66-.73.14-.33,1.67.72ZM488,298.22l-1.66-.73.14-.33,1.67.73Zm-3.33-1.46L483,296l.14-.34,1.67.73Zm-3.33-1.45-1.67-.73.15-.33,1.67.73ZM478,293.85l-1.67-.73.15-.33,1.66.73Zm-3.33-1.45-1.67-.73.15-.33,1.66.72Zm-3.34-1.46-1.66-.73.14-.33,1.67.73ZM468,289.48l-1.66-.72.14-.34,1.67.73ZM464.64,288,463,287.3l.14-.33,1.67.73Zm-3.33-1.46-1.67-.73.15-.33,1.67.73ZM458,285.12l-1.67-.73.15-.33,1.66.72Z"/><path class="cls-4" d="M476.64,199.91l-.12-.35,1.72-.59.12.34Zm3.44-1.2-.12-.34,1.71-.59.12.34Zm3.43-1.19-.12-.34,1.72-.6.12.35Zm3.44-1.19-.12-.34,1.72-.6.11.35Zm3.43-1.19-.12-.34,1.72-.6.12.35Zm3.44-1.19-.12-.34,1.72-.6.11.35Zm3.43-1.19-.12-.34,1.72-.6.12.34Zm3.44-1.19-.12-.34,1.72-.6.12.34Zm3.43-1.19L504,190l1.72-.59.12.34Zm3.44-1.19-.12-.35,1.72-.59.12.34ZM511,188l-.12-.35,1.72-.59.12.34Zm3.44-1.19-.12-.35,1.72-.59.12.34Zm3.43-1.2-.12-.34,1.72-.59.12.34Zm3.44-1.19-.12-.34,1.72-.6.12.35Zm3.43-1.19-.12-.34,1.72-.6.12.35Zm3.44-1.19-.12-.34,1.72-.6.12.35Zm3.43-1.19-.11-.34,1.71-.6.12.35Zm3.44-1.19-.12-.34,1.72-.6.12.35Zm3.43-1.19-.11-.34,1.71-.6.12.34Zm3.44-1.19-.12-.35,1.72-.59.12.34Zm3.43-1.19-.11-.35,1.71-.59.12.34Zm3.44-1.19-.12-.35,1.72-.59.12.34Zm3.44-1.19-.12-.35,1.71-.59.12.34Zm3.43-1.19-.12-.35,1.72-.59.12.34Zm3.44-1.2L559,171l1.71-.6.12.35Z"/><path class="cls-4" d="M454.22,181.33l-.11-.35,1.71-.59.12.34Zm3.44-1.19-.12-.35,1.72-.59.12.34Zm3.43-1.2-.11-.34,1.71-.59.12.34Zm3.44-1.19-.12-.34,1.72-.6.12.35Zm3.43-1.19-.11-.34,1.71-.6.12.35Zm3.44-1.19-.12-.34,1.72-.6.12.35Zm3.44-1.19-.12-.34,1.71-.6.12.35Zm3.43-1.19-.12-.34,1.72-.6.12.34Zm3.44-1.19-.12-.34,1.71-.6.12.34Zm3.43-1.19-.12-.35,1.72-.59.12.34Zm3.44-1.19-.12-.35,1.71-.59.12.34Zm3.43-1.19-.12-.35,1.72-.59.12.34Zm3.44-1.19-.12-.35,1.72-.59.11.34Zm3.43-1.2-.12-.34,1.72-.59.12.34Zm3.44-1.19-.12-.34,1.72-.6.11.35Zm3.43-1.19-.12-.34,1.72-.6.12.35Zm3.44-1.19-.12-.34,1.72-.6.11.35Zm3.43-1.19-.12-.34,1.72-.6.12.35Zm3.44-1.19-.12-.34,1.72-.6.12.35Zm3.43-1.19-.12-.34,1.72-.6.12.34Zm3.44-1.19-.12-.35,1.72-.59.12.34Zm3.43-1.19-.12-.35,1.72-.59.12.34Zm3.44-1.19-.12-.35,1.72-.59.12.34Zm3.43-1.19-.12-.35,1.72-.59.12.34Zm3.44-1.19-.12-.35,1.72-.59.12.34Zm2.52-1.22-1.68-.68.13-.34,1.69.68Zm-3.37-1.36-1.69-.68.14-.34,1.69.68Zm-3.37-1.36-1.69-.68.14-.33,1.68.67Zm-3.37-1.36-1.69-.68.14-.33,1.68.68Zm-3.38-1.36-1.68-.68.13-.33,1.69.68Zm-3.37-1.36-1.68-.68.13-.33,1.69.68ZM519,143.37l-1.69-.68.14-.33,1.69.68ZM515.59,142l-1.69-.68L514,141l1.68.68Zm-3.37-1.36-1.69-.68.14-.34,1.68.68Zm-3.38-1.36-1.68-.68.13-.34L509,139Zm-3.37-1.36-1.68-.68.13-.34,1.69.68Zm-3.37-1.36-1.69-.68.14-.34,1.69.68Zm-3.37-1.36-1.69-.68.14-.34,1.68.68Zm-3.37-1.36-1.69-.68.14-.34,1.68.68Zm-2.81-1.35-.12-.34,1.72-.59.11.34Zm3.43-1.18-.12-.35,1.72-.59.12.35Zm3.44-1.19-.12-.34,1.72-.59.12.34Zm3.44-1.18-.12-.35,1.72-.59.12.35Zm3.43-1.19-.11-.34,1.72-.59.11.34Zm3.44-1.18-.12-.35,1.72-.59.12.35Zm3.44-1.19-.12-.34,1.72-.59.12.34Zm3.44-1.18-.12-.34,1.72-.6.12.35ZM520,123l-.11-.34,1.71-.59.12.34Zm3.44-1.18-.12-.34,1.72-.6.12.35Z"/><path class="cls-4" d="M335.09,191l-1.66-.73.14-.33,1.67.73Zm-3.33-1.46-1.66-.74.14-.33,1.67.73Zm-3.33-1.47-1.66-.73.15-.33,1.66.73Zm-3.32-1.46-1.67-.73.15-.34,1.66.74Zm-3.33-1.47-1.67-.73.15-.33,1.66.73Zm-3.33-1.46-1.66-.73.14-.34,1.67.74Zm-3.33-1.46-1.66-.74.14-.33,1.67.73Zm-3.33-1.47-1.66-.73.15-.33,1.66.73Zm-3.32-1.46-1.67-.74.15-.33,1.66.73Zm-3.33-1.47-1.67-.73.15-.33,1.66.73Zm-3.33-1.46-1.66-.73.14-.34L302,176Zm-3.33-1.47-1.66-.73.14-.33,1.67.73Zm-3.33-1.46-1.66-.73.15-.34,1.66.74ZM291.83,172l-1.67-.73.15-.33,1.66.73Zm-3.33-1.46-1.67-.73.15-.33,1.66.73Zm-3.33-1.46-1.66-.74.14-.33,1.67.73Zm-3.33-1.47-1.66-.73.14-.33,1.67.73Zm-3.33-1.46-1.66-.74.15-.33,1.66.73Zm-3.32-1.47-1.67-.73.15-.33,1.66.73Zm-3.33-1.46-1.67-.73.15-.34,1.66.74Zm-3.33-1.47-1.66-.73.14-.33,1.67.73Z"/><path class="cls-4" d="M317.37,210.06l-1.66-.74.15-.33,1.66.73Zm-3.32-1.47-1.67-.73.15-.33,1.66.73Zm-3.33-1.46-1.67-.74.15-.33,1.66.73Zm-3.33-1.47-1.66-.73.14-.33,1.67.73Zm-3.33-1.46-1.66-.74.14-.33,1.67.73Zm-3.33-1.47-1.66-.73.15-.33,1.66.73Zm-3.32-1.46-1.67-.73.15-.34,1.66.73Zm-3.33-1.47-1.67-.73.15-.33,1.66.73Zm-3.33-1.46-1.66-.73.14-.34,1.67.74Zm-3.33-1.47-1.66-.73.15-.33,1.66.73ZM222.67,196l-1.58-.71.15-.34,1.45.66.08,0,.11.34Zm61.42-.59-1.66-.73.15-.34,1.66.74Zm-59.48,0-.11-.34,1.74-.55.11.34Zm-5.17-.85-1.66-.75.15-.33,1.66.75Zm8.64-.25-.11-.34,1.73-.55.11.34Zm52.69-.34-1.67-.73.15-.33,1.66.73Zm-49.23-.76-.11-.34,1.74-.55.11.34ZM216.13,193l-1.66-.75.15-.33,1.66.75Zm61.31-.54-1.66-.73.14-.34,1.67.74Zm-42.43-.4-.11-.34,1.73-.55.11.34Zm-22.19-.56-1.66-.76.16-.33,1.65.75Zm61.29-.51-1.66-.73.14-.33,1.67.73Zm-35.63,0-.11-.34,1.73-.55.11.34Zm-29-1-1.65-.76.15-.33,1.65.76Zm32.43-.13-.11-.34,1.73-.55.11.34Zm-57.68,0-.11-.34,1.72-.58.12.34Zm-1.82-.17-1.66-.72.14-.34,1.67.73Zm88.34-.12-1.66-.73.15-.34,1.66.74Zm-25.37-.77-.11-.34,1.73-.55.11.34Zm-57.7-.1-.12-.35,1.72-.58.12.35Zm18.49-.18-1.65-.75.15-.34,1.65.76Zm-27.09-.28-1.67-.73.15-.33,1.67.73Zm88.35-.13-1.67-.74.15-.33,1.66.73Zm-18.59-.41-.11-.34,1.73-.55.11.34Zm-57.72-.17-.11-.34,1.72-.58.11.34Zm11.74-.52-1.65-.75.15-.33,1.65.75Zm-27.11-.22,0,0,.15-.33Zm88.35-.15-1.67-.73.15-.33,1.66.73Zm-11.79,0-.11-.34,1.73-.55.11.34Zm-57.74-.23-.12-.34,1.72-.59.12.35Zm5-.87-1-.47-.51.18-.12-.35.65-.22,1.16.53Zm56.22,0-.11-.35,1.73-.55.11.35Zm5-.32-1.66-.74.14-.33,1.67.73Z"/><ellipse class="cls-5" cx="591.84" cy="156.28" rx="39.08" ry="39.12"/><ellipse class="cls-6" cx="591.84" cy="156.28" rx="23.25" ry="23.28"/><path class="cls-8" d="M591.5,168.92a11.73,11.73,0,0,1-3.74-.61,13.59,13.59,0,0,1-7.51-7.05c-2.73-6.18.07-10.5.19-10.68,2.73-4,6-6.27,9.71-6.81a14.16,14.16,0,0,1,10.18,2.87l-2.61,3.2,1.3-1.6-1.29,1.61a10.27,10.27,0,0,0-7-2c-2.52.38-4.82,2.07-6.85,5,0,.07-1.61,2.68.18,6.73a9.47,9.47,0,0,0,5.08,4.79c2.45.82,5.37.29,8.68-1.56a9.43,9.43,0,0,0,2.5-3.81H592V154.9H604.3l.25,1.77c.73,5.14-4,9.25-4.19,9.43l-.32.22A17.43,17.43,0,0,1,591.5,168.92Z"/><path class="cls-9" d="M597.39,163.06c-3.14,1.67-5.93,2.13-8.27,1.35a9.47,9.47,0,0,1-5.08-4.79c-1.79-4.05-.22-6.66-.18-6.73a13.6,13.6,0,0,1,3.67-3.76,10.35,10.35,0,0,1,3.43-5.41c-.27,0-.53,0-.81.05-3.72.54-7,2.82-9.71,6.81-.12.18-2.92,4.5-.19,10.68a13.59,13.59,0,0,0,7.51,7.05,11.73,11.73,0,0,0,3.74.61,16.85,16.85,0,0,0,7.77-2.2A9.2,9.2,0,0,1,597.39,163.06Z"/><path class="cls-10" d="M583.58,158.34a7.09,7.09,0,0,1,.28-5.45c2-3,4.33-4.65,6.85-5a10.27,10.27,0,0,1,7,2l1.29-1.61,1.31-1.6a14.16,14.16,0,0,0-10.18-2.87c-3.72.54-7,2.82-9.71,6.81-.11.18-2.76,4.29-.38,10.2A11.28,11.28,0,0,1,583.58,158.34Z"/><path class="cls-11" d="M585.13,151.26a9.35,9.35,0,0,1,5.58-3.4,10.27,10.27,0,0,1,7,2l1.29-1.61,1.31-1.6a14.16,14.16,0,0,0-10.18-2.87,13.22,13.22,0,0,0-8,4.69A10,10,0,0,1,585.13,151.26Z"/><ellipse class="cls-5" cx="231.48" cy="148.37" rx="43.75" ry="43.79"/><ellipse class="cls-6" cx="231.48" cy="148.37" rx="26.51" ry="26.54"/><path class="cls-12" d="M232.71,139.5a.61.61,0,0,1,.23,0h4.39v-3.75h-4.4a4,4,0,0,0-4.07,4.07v4h-3.25v3.75h3.25V161h3.75v-13.5h4v-3.75h-4v-3.94A1,1,0,0,1,232.71,139.5Z"/><path class="cls-4" d="M376.12,369l-1.25-.59.16-.33,1.24.6Zm-2.89-1.37-1.64-.78.16-.33,1.64.78ZM370,366l-1.64-.79.15-.33,1.64.79Zm-3.28-1.57-1.65-.78.16-.33,1.64.78Zm-3.29-1.56-1.64-.78.16-.33,1.64.78Zm-3.28-1.57-1.64-.78.15-.33,1.65.79Zm-3.28-1.56-1.64-.78.15-.33,1.64.78Zm-3.29-1.56-1.64-.78.16-.33,1.64.78Zm-3.28-1.57-1.64-.78.16-.33,1.64.78ZM347,355.09l-1.64-.78.15-.33,1.65.78Zm-3.28-1.56-1.64-.79.15-.32,1.64.78ZM340.4,352l-1.64-.78.16-.33,1.64.78ZM338,350.45l-.12-.34,1.72-.59.12.35Zm3.44-1.17-.11-.34,1.72-.58.11.34Zm3.45-1.16-.12-.35,1.72-.58.12.34Zm3.44-1.17-.12-.34L350,346l.12.35Zm3.44-1.17-.11-.34,1.72-.58.11.34Zm3.45-1.16-.12-.35,1.72-.58.12.34Zm3.44-1.17-.12-.34,1.73-.59.11.35Zm3.44-1.17-.11-.34,1.72-.58.11.34Zm3.45-1.16-.12-.35,1.72-.58.12.34ZM369,340l-.12-.35,1.73-.58.11.35Zm3.44-1.17-.11-.34,1.72-.59.12.35Zm88.57,0-.42-.18.14-.34.29.13,1.29-.45.12.35Zm-2.09-.91-1.67-.72.15-.34,1.67.73Zm5.22-.18-.12-.34,1.72-.6.12.34Zm-88.25,0-.12-.35,1.72-.58.12.34Zm91.69-1.15-.12-.35,1.72-.6.11.35Zm-88.25,0-.12-.35,1.73-.58.11.35Zm76.26-.06-1.67-.72.14-.34,1.67.73Zm-72.82-1.11-.11-.34,1.72-.59.12.35Zm88.24,0-.12-.34,1.72-.6.12.34Zm-18.76-.33-1.67-.72.15-.34,1.67.73Zm-66-.82-.12-.35,1.72-.58.12.34Zm88.23,0-.12-.35,1.71-.59.12.34Zm-25.53-.59-1.67-.72.14-.34,1.67.73ZM389.67,333l-.12-.35,1.73-.58.11.34Zm88.22-.07-.12-.34,1.72-.6.12.35Zm-32.3-.84-1.66-.72.14-.33,1.67.72Zm-52.48-.26-.11-.34,1.72-.59.12.35Zm88.21-.09-.12-.35,1.72-.59.12.34Zm-84.76-1.08-.12-.34,1.72-.58.12.34Zm45.7,0-1.67-.72.15-.33,1.66.72Zm42.5-.1-.12-.34,1.72-.6.11.35Zm-84.76-1-.12-.35,1.73-.58.11.34Zm88.19-.15-.12-.34,1.72-.6.12.34Zm-49.27-.16-1.66-.72.14-.33,1.67.72Zm-35.48-.86-.11-.34,1.72-.59.12.35Zm88.19-.17-.12-.35,1.71-.59.12.34Zm-56-.41-1.67-.73.15-.33,1.66.72Zm-28.7-.59-.12-.34,1.72-.58.12.34Zm88.17-.2-.12-.34,1.72-.6.12.34Zm-62.81-.66-1.66-.73.14-.33,1.67.72Zm-21.92-.3-.12-.35,1.73-.58.11.34Zm88.16-.23-.12-.35,1.72-.59.12.34Zm-69.57-.92-1.67-.73.15-.33,1.66.72Zm-15.15,0-.11-.34,1.72-.59.12.35Zm88.16-.26-.12-.34,1.72-.6.12.35Zm-84.71-.91-.12-.34,1.72-.58.12.34Zm8.37-.26-1.67-.73.14-.33,1.67.72Zm79.77,0-.12-.34,1.72-.6.12.34Zm-84.7-.88-.12-.35,1.74-.59.12.05-.1.23,0,.09Zm88.14-.31-.12-.35,1.71-.6.12.35Zm3.43-1.2-.12-.34,1.72-.6.12.34Zm3.43-1.19-.11-.35,1.71-.59.12.34Zm3.44-1.2-.12-.34,1.72-.6.12.35Zm3.43-1.19-.12-.35,1.72-.59.12.34Zm3.44-1.2-.12-.34,1.71-.6.12.35Z"/><ellipse class="cls-5" cx="585.29" cy="314.9" rx="38.19" ry="38.23"/><ellipse class="cls-6" cx="585.29" cy="314.9" rx="21.2" ry="21.22"/><rect class="cls-8" x="574.49" y="308.69" width="3.76" height="15.47"/><path class="cls-8" d="M597.2,313.09a5.53,5.53,0,0,0-3.26-3.38c-1.86-.71-4.13-.49-6.77.66v-1.94h-3.76v15.73h3.76v-9.59c3.08-1.73,4.68-1.61,5.37-1.36a1.77,1.77,0,0,1,1,.79v10.16h3.76V313.63Z"/><path class="cls-8" d="M576.11,299.71a2.8,2.8,0,1,0,2.8,2.8A2.8,2.8,0,0,0,576.11,299.71Z"/><path class="cls-4" d="M212,354.71l-.12-.34,1.72-.6.12.34Zm3.44-1.19-.12-.35,1.72-.59.11.34Zm3.43-1.19-.12-.35,1.72-.59.12.34Zm3.44-1.19-.12-.35,1.72-.59.11.34Zm3.43-1.19-.12-.35,1.72-.59.12.34Zm3.44-1.2-.12-.34,1.72-.6.11.35Zm3.43-1.19-.12-.34,1.72-.6.12.35Zm3.44-1.19-.12-.34,1.72-.6.11.35Zm3.43-1.19-.12-.34,1.72-.6.12.34Zm3.44-1.19-.12-.35,1.72-.59.11.34Zm3.43-1.19-.12-.35,1.72-.59.12.34Zm3.44-1.19-.12-.35,1.72-.59.11.34Zm3.43-1.2-.12-.34,1.72-.59.12.34Zm3.44-1.19-.12-.34,1.72-.6.12.35Zm3.43-1.19-.12-.34,1.72-.6.12.35Zm3.44-1.19-.12-.34,1.72-.6.11.35Zm3.43-1.19-.12-.34,1.72-.6.12.34Zm3.44-1.19-.12-.35,1.72-.59.12.34Zm3.43-1.19-.12-.35,1.72-.59.12.34Zm3.44-1.19-.12-.35,1.72-.59.12.34Zm3.43-1.2-.12-.34,1.72-.6.12.35Zm3.44-1.19-.12-.34,1.72-.6.12.35Zm3.43-1.19-.12-.34,1.72-.6.12.35Zm3.44-1.19-.12-.34,1.72-.6.12.34Zm3.43-1.19-.12-.34,1.72-.6.12.34Zm3.44-1.19-.12-.35,1.72-.59.12.34Zm3.43-1.19-.12-.35,1.72-.59.12.34Zm3.44-1.19-.12-.35,1.72-.59.12.34Zm3.43-1.2-.12-.34,1.72-.6.12.35Zm3.44-1.19-.12-.34,1.72-.6.12.35Zm3.43-1.19-.12-.34,1.72-.6.12.35Zm3.44-1.19-.12-.34,1.72-.6.12.34Zm3.43-1.19-.12-.35,1.72-.59.12.34Zm3.44-1.19-.12-.35,1.72-.59.12.34Zm3.43-1.19-.12-.35,1.72-.59.12.34Zm3.44-1.19-.12-.35,1.72-.59.12.34Zm3.43-1.2-.12-.34,1.72-.6.12.35Zm.54-1.27-1.69-.7.14-.33,1.68.69Zm-3.37-1.39-1.68-.69.14-.34,1.68.69Zm-3.36-1.39-1.68-.69.14-.34,1.68.7Zm-3.36-1.39-1.68-.69.14-.34,1.68.7ZM322.75,305l-1.68-.7.14-.33,1.68.69Zm-3.36-1.39-1.68-.7.14-.33,1.68.69ZM316,302.22l-1.68-.69.14-.34,1.68.69Zm-3.36-1.39-1.68-.69.14-.34,1.68.7Zm-3.36-1.39-1.68-.69.14-.34,1.68.7ZM306,298.06l-1.68-.7.14-.33,1.68.69Zm-3.36-1.39-1.68-.7.14-.33,1.68.69Zm-3.36-1.39-1.68-.69.14-.34,1.68.69Zm-3.36-1.39-1.68-.69.14-.34,1.68.7Zm-3.36-1.39-1.68-.69.14-.34,1.68.7Zm-3.36-1.38-1.68-.7.14-.33,1.68.69Zm-3.36-1.39-1.68-.7.14-.33,1.68.69Zm-3.36-1.39-1.68-.69.14-.34,1.68.69ZM279.07,287l-1.68-.69.13-.34,1.68.7Zm-3.36-1.39-1.68-.69.13-.34,1.68.7Zm-3.37-1.38-1.68-.7.14-.33,1.68.69ZM269,282.79l-1.68-.7.14-.33,1.68.69Zm-3.36-1.39-1.68-.69.14-.34,1.68.69ZM262.26,280l-1.68-.69.14-.34,1.68.7Zm-3.36-1.39-1.68-.69.14-.34,1.68.7Zm-.14-1.28-.12-.34,1.72-.58.12.34Zm3.44-1.16-.12-.35,1.73-.58.11.35Zm3.44-1.17-.11-.34,1.72-.58.12.34Zm3.45-1.16-.12-.34,1.72-.59.12.35Zm3.44-1.16-.11-.35,1.72-.58.12.35Zm3.45-1.17-.12-.34,1.72-.58.12.34Zm3.44-1.16-.11-.35,1.72-.58.11.35Zm3.45-1.16-.12-.35,1.72-.58.12.34Zm3.44-1.17-.12-.34,1.73-.58.11.34Zm3.45-1.16-.12-.35,1.72-.58.12.35Zm3.44-1.17-.12-.34,1.73-.58.11.34Z"/><path class="cls-4" d="M342.53,174.72l-1.67-.7.13-.34,1.68.7Zm-3.35-1.4-1.68-.7.14-.33,1.68.69Zm-3.36-1.4-1.68-.69.14-.34,1.68.7Zm-3.36-1.39-1.68-.7.14-.34,1.68.7Zm-3.36-1.4-1.67-.7.14-.33,1.67.7Zm-3.35-1.39-1.68-.7.14-.34,1.68.7Zm-1.32-1.34-.12-.35,1.72-.6.12.34Zm3.43-1.21-.12-.35,1.71-.6.12.34Zm3.43-1.21-.12-.35,1.71-.6.12.34Zm3.43-1.21-.12-.35,1.71-.6.12.34Zm3.43-1.22-.13-.34,1.72-.6.12.34Zm3.42-1.21-.12-.34,1.72-.6.12.34Zm3.43-1.21-.12-.34,1.72-.6.12.34Zm3.43-1.21-.12-.34L350,157l.12.34Zm3.43-1.21-.12-.34,1.71-.61.12.35Zm3.43-1.21-.12-.34,1.71-.61.12.35Zm3.43-1.21,0-.11-1.39-.6.14-.33,1.91.82Zm-3.1-1.42-1.68-.72.15-.33,1.67.71Zm-3.35-1.44-1.67-.71.15-.34,1.67.72ZM348.93,150l-1.67-.72.15-.33,1.67.72Zm-3.34-1.43-1.67-.72.14-.33,1.67.71Zm-3.34-1.44-1.67-.71.14-.34,1.67.72Zm-3.34-1.43-1.67-.72.14-.33,1.67.72Zm-3.34-1.43-1.67-.72.14-.33,1.67.71Zm-46.07-1.13-.1-.35,1.74-.51.1.34Zm42.73-.31-1.68-.71.15-.34,1.67.72Zm-44.54-.27-1.68-.7.14-.33,1.68.69Zm5.3-.45-.11-.35,1.75-.51.1.35Zm35.89-.71-1.67-.72.15-.33,1.67.72Zm-44.55-.23-1.68-.7.14-.33,1.68.69Zm12.14-.09-.1-.34,1.74-.52.11.35Zm3.49-1-.1-.35,1.74-.51.1.34Zm25.58-.09-1.67-.72.15-.34,1.67.72ZM281,139.78l-1.68-.69.14-.34,1.68.69Zm22.48-.75-.1-.35,1.74-.51.1.35Zm18.75-.5-1.67-.71.14-.34,1.67.72Zm-44.59-.14-1.68-.69.14-.34,1.68.69Zm29.33-.39-.11-.35,1.75-.51.1.35Zm11.92-.9-1.67-.72.14-.33,1.67.71Zm-44.61-.1-1.68-.69.14-.34,1.68.7Zm36.17,0-.1-.35,1.75-.52.1.35Zm3.49-1-.1-.35,1.47-.43.38.16-.14.34-.26-.12Zm-43-.34-1.68-.69.14-.34,1.68.7Z"/><path class="cls-4" d="M343.75,165.1h-.37v-1.82h.37Zm0-3.64h-.37v-1.82h.37Zm0-3.64h-.37V156h.37Zm0-3.64h-.37v-1.82h.37Zm0-3.64h-.37v-1.82h.37Zm0-3.64h-.37v-1.82h.37Zm0-3.64h-.37v-1.82h.37Zm0-3.63h-.37v-1.82h.37Zm0-3.64h-.37v-1.82h.37Zm0-3.64h-.37v-1.82h.37Zm0-3.64h-.37v-1.82h.37Zm0-3.64h-.37v-1.82h.37Zm0-3.64h-.37v-1.82h.37Zm0-3.64h-.37V116h.37Zm0-3.64h-.37v-1.82h.37Zm0-3.64h-.37v-1.82h.37Zm0-3.64h-.37v-1.82h.37Zm0-3.63h-.37v-1.82h.37Zm0-3.64h-.37V97.78h.37Zm0-3.64h-.37V94.14h.37Zm0-3.64h-.37V90.5h.37Zm0-3.64h-.37V86.86h.37Zm0-3.64h-.37V83.22h.37Zm0-3.64h-.37V79.58h.37Zm0-3.64h-.37V75.94h.37Zm0-3.64h-.37V72.3h.37Z"/><path class="cls-13" d="M346.34,164.63H346v-1.82h.37Zm0-3.64H346v-1.82h.37Zm0-3.64H346v-1.82h.37Zm0-3.64H346v-1.82h.37Zm0-3.64H346v-1.82h.37Zm0-3.64H346v-1.82h.37Zm0-3.64H346V141h.37Zm0-3.64H346v-1.81h.37Zm0-3.63H346V133.7h.37Zm0-3.64H346v-1.82h.37Zm0-3.64H346v-1.82h.37Zm0-3.64H346v-1.82h.37Zm0-3.64H346v-1.82h.37Zm0-3.64H346V115.5h.37Zm0-3.64H346v-1.82h.37Zm0-3.64H346v-1.82h.37Zm0-3.64H346v-1.82h.37Zm0-3.63H346V101h.37Zm0-3.64H346V97.31h.37Zm0-3.64H346V93.67h.37Zm0-3.64H346V90h.37Zm0-3.64H346V86.39h.37Zm0-3.64H346V82.75h.37Zm0-3.64H346V79.11h.37Zm0-3.64H346V75.47h.37Zm0-3.64H346V71.83h.37Z"/><path class="cls-14" d="M341.59,165.57h-.36v-1.82h.36Zm0-3.64h-.36v-1.82h.36Zm0-3.64h-.36v-1.82h.36Zm0-3.64h-.36v-1.82h.36Zm0-3.64h-.36v-1.82h.36Zm0-3.64h-.36v-1.82h.36Zm0-3.64h-.36v-1.82h.36Zm0-3.63h-.36v-1.82h.36Zm0-3.64h-.36v-1.82h.36Zm0-3.64h-.36V131h.36Zm0-3.64h-.36v-1.82h.36Zm0-3.64h-.36v-1.82h.36Zm0-3.64h-.36v-1.82h.36Zm0-3.64h-.36v-1.82h.36Zm0-3.64h-.36V112.8h.36Zm0-3.64h-.36v-1.82h.36Zm0-3.64h-.36v-1.81h.36Zm0-3.63h-.36v-1.82h.36Zm0-3.64h-.36V98.25h.36Zm0-3.64h-.36V94.61h.36Zm0-3.64h-.36V91h.36Zm0-3.64h-.36V87.33h.36Zm0-3.64h-.36V83.69h.36Zm0-3.64h-.36V80.05h.36Zm0-3.64h-.36V76.41h.36Zm0-3.64h-.36V72.77h.36Z"/><path class="cls-15" d="M341,163.14h-.36v-1.82H341Zm0-3.64h-.36v-1.82H341Zm0-3.64h-.36V154H341Zm0-3.64h-.36V150.4H341Zm0-3.64h-.36v-1.82H341Zm0-3.64h-.36v-1.82H341Zm0-3.64h-.36v-1.82H341Zm0-3.64h-.36v-1.82H341Zm0-3.64h-.36V132.2H341Zm0-3.64h-.36v-1.81H341Zm0-3.63h-.36v-1.82H341Zm0-3.64h-.36v-1.82H341Zm0-3.64h-.36v-1.82H341Zm0-3.64h-.36V114H341Zm0-3.64h-.36v-1.82H341Zm0-3.64h-.36v-1.82H341Zm0-3.64h-.36v-1.82H341Zm0-3.64h-.36V99.45H341Zm0-3.64h-.36V95.81H341ZM341,94h-.36V92.18H341Zm0-3.63h-.36V88.54H341Zm0-3.64h-.36V84.9H341Zm0-3.64h-.36V81.26H341Zm0-3.64h-.36V77.62H341Zm0-3.64h-.36V74H341Zm0-3.64h-.36V70.34H341Z"/><path class="cls-16" d="M345.17,162.67h-.37v-1.82h.37Zm0-3.64h-.37v-1.82h.37Zm0-3.64h-.37v-1.82h.37Zm0-3.64h-.37v-1.82h.37Zm0-3.64h-.37v-1.82h.37Zm0-3.64h-.37v-1.82h.37Zm0-3.64h-.37V139h.37Zm0-3.64h-.37v-1.82h.37Zm0-3.64h-.37v-1.82h.37Zm0-3.64h-.37v-1.82h.37Zm0-3.63h-.37v-1.82h.37Zm0-3.64h-.37v-1.82h.37Zm0-3.64h-.37v-1.82h.37Zm0-3.64h-.37v-1.82h.37Zm0-3.64h-.37V109.9h.37Zm0-3.64h-.37v-1.82h.37Zm0-3.64h-.37v-1.82h.37Zm0-3.64h-.37V99h.37Zm0-3.64h-.37V95.34h.37Zm0-3.64h-.37V91.71h.37Zm0-3.63h-.37V88.07h.37Zm0-3.64h-.37V84.43h.37Zm0-3.64h-.37V80.79h.37Zm0-3.64h-.37V77.15h.37Zm0-3.64h-.37V73.51h.37Zm0-3.64h-.37V69.87h.37Z"/><path class="cls-17" d="M344.53,163.61h-.36v-1.82h.36Zm0-3.64h-.36v-1.82h.36Zm0-3.64h-.36v-1.82h.36Zm0-3.64h-.36v-1.82h.36Zm0-3.64h-.36v-1.82h.36Zm0-3.64h-.36v-1.82h.36Zm0-3.64h-.36V140h.36Zm0-3.64h-.36v-1.82h.36Zm0-3.64h-.36v-1.82h.36Zm0-3.64h-.36V129h.36Zm0-3.63h-.36V125.4h.36Zm0-3.64h-.36v-1.82h.36Zm0-3.64h-.36v-1.82h.36Zm0-3.64h-.36v-1.82h.36Zm0-3.64h-.36v-1.82h.36Zm0-3.64h-.36V107.2h.36Zm0-3.64h-.36v-1.82h.36Zm0-3.64h-.36V99.92h.36Zm0-3.64h-.36V96.28h.36Zm0-3.63h-.36V92.65h.36Zm0-3.64h-.36V89h.36Zm0-3.64h-.36V85.37h.36Zm0-3.64h-.36V81.73h.36Zm0-3.64h-.36V78.09h.36Zm0-3.64h-.36V74.45h.36Zm0-3.64h-.36V70.81h.36Z"/><path class="cls-4" d="M371.48,160.22h-.36V158.4h.36Zm0-3.64h-.36v-1.82h.36Zm0-3.64h-.36v-1.82h.36Zm0-3.64h-.36v-1.82h.36Zm0-3.64h-.36v-1.82h.36Zm0-3.64h-.36V140.2h.36Zm0-3.64h-.36v-1.82h.36Zm0-3.64h-.36v-1.82h.36Zm0-3.64h-.36v-1.81h.36Zm0-3.63h-.36v-1.82h.36Zm0-3.64h-.36V122h.36Zm0-3.64h-.36v-1.82h.36Zm0-3.64h-.36v-1.82h.36Zm0-3.64h-.36v-1.82h.36Zm0-3.64h-.36v-1.82h.36Zm0-3.64h-.36v-1.82h.36Zm0-3.64h-.36v-1.82h.36Zm0-3.64h-.36V96.53h.36Zm0-3.63h-.36V92.9h.36Zm0-3.64h-.36V89.26h.36Zm0-3.64h-.36V85.62h.36Zm0-3.64h-.36V82h.36Zm0-3.64h-.36V78.34h.36Zm0-3.64h-.36V74.7h.36Zm0-3.64h-.36V71.06h.36Zm0-3.64h-.36V67.42h.36Zm0-3.64h-.36V63.78h.36Zm0-3.64h-.36V60.14h.36Zm0-3.63h-.36V56.51h.36Zm0-3.64h-.36V52.87h.36Zm0-3.64h-.36V49.23h.36Zm0-3.64h-.36V45.73h.36Z"/><path class="cls-13" d="M372.87,159.81h-.36V158h.36Zm0-3.64h-.36v-1.82h.36Zm0-3.64h-.36v-1.82h.36Zm0-3.64h-.36v-1.82h.36Zm0-3.64h-.36v-1.82h.36Zm0-3.64h-.36v-1.82h.36Zm0-3.64h-.36v-1.82h.36Zm0-3.64h-.36v-1.82h.36Zm0-3.63h-.36v-1.82h.36Zm0-3.64h-.36v-1.82h.36Zm0-3.64h-.36V121.6h.36Zm0-3.64h-.36V118h.36Zm0-3.64h-.36v-1.82h.36Zm0-3.64h-.36v-1.82h.36Zm0-3.64h-.36V107h.36Zm0-3.64h-.36V103.4h.36Zm0-3.64h-.36V99.76h.36Zm0-3.64h-.36V96.13h.36Zm0-3.63h-.36V92.49h.36Zm0-3.64h-.36V88.85h.36Zm0-3.64h-.36V85.21h.36Zm0-3.64h-.36V81.57h.36Zm0-3.64h-.36V77.93h.36Zm0-3.64h-.36V74.29h.36Zm0-3.64h-.36V70.65h.36Zm0-3.64h-.36V67h.36Zm0-3.64h-.36V63.37h.36Zm0-3.63h-.36V59.74h.36Zm0-3.64h-.36V56.1h.36Zm0-3.64h-.36V52.46h.36Zm0-3.64h-.36V48.82h.36Zm0-3.64h-.36V45.32h.36Z"/><path class="cls-14" d="M368.76,161h-.37v-1.82h.37Zm0-3.64h-.37v-1.82h.37Zm0-3.64h-.37v-1.82h.37Zm0-3.63h-.37v-1.82h.37Zm0-3.64h-.37v-1.82h.37Zm0-3.64h-.37v-1.82h.37Zm0-3.64h-.37V137.3h.37Zm0-3.64h-.37v-1.82h.37Zm0-3.64h-.37V130h.37Zm0-3.64h-.37v-1.82h.37Zm0-3.64h-.37v-1.82h.37Zm0-3.64h-.37V119.1h.37Zm0-3.64h-.37v-1.82h.37Zm0-3.63h-.37v-1.82h.37Zm0-3.64h-.37v-1.82h.37Zm0-3.64h-.37v-1.82h.37Zm0-3.64h-.37v-1.82h.37Zm0-3.64h-.37V97.27h.37Zm0-3.64h-.37V93.63h.37Zm0-3.64h-.37V90h.37Zm0-3.64h-.37V86.35h.37Zm0-3.64h-.37V82.71h.37Zm0-3.64h-.37V79.08h.37Zm0-3.63h-.37V75.44h.37Zm0-3.64h-.37V71.8h.37Zm0-3.64h-.37V68.16h.37Zm0-3.64h-.37V64.52h.37Zm0-3.64h-.37V60.88h.37Zm0-3.64h-.37V57.24h.37Zm0-3.64h-.37V53.6h.37Zm0-3.64h-.37V50h.37Zm0-3.64h-.37V46.46h.37Z"/><path class="cls-15" d="M369.26,158.25h-.36v-1.82h.36Zm0-3.63h-.36V152.8h.36Zm0-3.64h-.36v-1.82h.36Zm0-3.64h-.36v-1.82h.36Zm0-3.64h-.36v-1.82h.36Zm0-3.64h-.36v-1.82h.36Zm0-3.64h-.36V134.6h.36Zm0-3.64h-.36V131h.36Zm0-3.64h-.36v-1.82h.36Zm0-3.64h-.36v-1.82h.36Zm0-3.64h-.36V120h.36Zm0-3.63h-.36v-1.82h.36Zm0-3.64h-.36v-1.82h.36Zm0-3.64h-.36v-1.82h.36Zm0-3.64h-.36v-1.82h.36Zm0-3.64h-.36v-1.82h.36Zm0-3.64h-.36V98.21h.36Zm0-3.64h-.36V94.57h.36Zm0-3.64h-.36V90.93h.36Zm0-3.64h-.36V87.29h.36Zm0-3.64h-.36V83.66h.36Zm0-3.63h-.36V80h.36Zm0-3.64h-.36V76.38h.36Zm0-3.64h-.36V72.74h.36Zm0-3.64h-.36V69.1h.36Zm0-3.64h-.36V65.46h.36Zm0-3.64h-.36V61.82h.36Zm0-3.64h-.36V58.18h.36Zm0-3.64h-.36V54.54h.36Zm0-3.64h-.36V50.9h.36Zm0-3.64h-.36V47.27h.36Zm0-3.63h-.36V43.77h.36Z"/><path class="cls-16" d="M373.66,157.84h-.37V156h.37Zm0-3.63h-.37v-1.82h.37Zm0-3.64h-.37v-1.82h.37Zm0-3.64h-.37v-1.82h.37Zm0-3.64h-.37v-1.82h.37Zm0-3.64h-.37v-1.82h.37Zm0-3.64h-.37v-1.82h.37Zm0-3.64h-.37v-1.82h.37Zm0-3.64h-.37v-1.82h.37Zm0-3.64h-.37v-1.82h.37Zm0-3.64h-.37v-1.81h.37Zm0-3.63h-.37V116h.37Zm0-3.64h-.37v-1.82h.37Zm0-3.64h-.37v-1.82h.37Zm0-3.64h-.37v-1.82h.37Zm0-3.64h-.37v-1.82h.37Zm0-3.64h-.37V97.8h.37Zm0-3.64h-.37V94.16h.37Zm0-3.64h-.37V90.52h.37Zm0-3.64h-.37V86.88h.37Zm0-3.63h-.37V83.25h.37Zm0-3.64h-.37V79.61h.37Zm0-3.64h-.37V76h.37Zm0-3.64h-.37V72.33h.37Zm0-3.64h-.37V68.69h.37Zm0-3.64h-.37V65.05h.37Zm0-3.64h-.37V61.41h.37Zm0-3.64h-.37V57.77h.37Zm0-3.64h-.37V54.13h.37Zm0-3.64h-.37V50.49h.37Zm0-3.63h-.37V46.86h.37Zm0-3.64h-.37V43.36h.37Z"/><path class="cls-17" d="M370.32,159H370v-1.82h.36Zm0-3.64H370v-1.82h.36Zm0-3.64H370v-1.82h.36Zm0-3.64H370v-1.82h.36Zm0-3.64H370v-1.82h.36Zm0-3.64H370V139h.36Zm0-3.63H370v-1.82h.36Zm0-3.64H370V131.7h.36Zm0-3.64H370v-1.82h.36Zm0-3.64H370v-1.82h.36Zm0-3.64H370v-1.82h.36Zm0-3.64H370v-1.82h.36Zm0-3.64H370V113.5h.36Zm0-3.64H370v-1.82h.36Zm0-3.64H370v-1.82h.36Zm0-3.64H370v-1.81h.36Zm0-3.63H370V99h.36Zm0-3.64H370V95.31h.36Zm0-3.64H370V91.67h.36Zm0-3.64H370V88h.36Zm0-3.64H370V84.39h.36Zm0-3.64H370V80.75h.36Zm0-3.64H370V77.11h.36Zm0-3.64H370V73.47h.36Zm0-3.64H370V69.83h.36Zm0-3.63H370V66.2h.36Zm0-3.64H370V62.56h.36Zm0-3.64H370V58.92h.36Zm0-3.64H370V55.28h.36Zm0-3.64H370V51.64h.36Zm0-3.64H370V48h.36Zm0-3.64H370V44.5h.36Z"/><path class="cls-4" d="M407.36,141.84H407V140h.37Zm0-3.64H407v-1.82h.37Zm0-3.63H407v-1.82h.37Zm0-3.64H407v-1.82h.37Zm0-3.64H407v-1.82h.37Zm0-3.64H407v-1.82h.37Zm0-3.64H407v-1.82h.37Zm0-3.64H407v-1.82h.37Zm0-3.64H407v-1.82h.37Zm0-3.64H407v-1.82h.37Zm0-3.64H407v-1.82h.37Zm0-3.64H407V100h.37Zm0-3.63H407V96.36h.37Zm0-3.64H407V92.72h.37Zm0-3.64H407V89.08h.37Zm0-3.64H407V85.44h.37Zm0-3.64H407V81.8h.37Zm0-3.64H407V78.16h.37Zm0-3.64H407V74.52h.37Zm0-3.64H407V70.88h.37Zm0-3.64H407V67.24h.37Zm0-3.64H407V63.61h.37Zm0-3.63H407V60h.37Zm0-3.64H407V56.33h.37Zm0-3.64H407V52.69h.37Zm0-3.64H407V49.05h.37Zm0-3.64H407V45.41h.37Zm0-3.64H407V41.77h.37Zm0-3.64H407V38.13h.37Zm0-3.64H407V34.49h.37Zm0-3.64H407V30.85h.37Zm0-3.63H407V27.22h.37Zm0-3.64H407V23.58h.37Zm0-3.64H407V19.94h.37Zm0-3.64H407V16.3h.37Zm0-3.64H407v-.1h.37Z"/><path class="cls-13" d="M409.6,153.45h-.36v-1.82h.36Zm0-3.63h-.36V148h.36Zm0-3.64h-.36v-1.82h.36Zm0-3.64h-.36v-1.82h.36Zm0-3.64h-.36v-1.82h.36Zm0-3.64h-.36v-1.82h.36Zm0-3.64h-.36V129.8h.36Zm0-3.64h-.36v-1.82h.36Zm0-3.64h-.36v-1.82h.36Zm0-3.64h-.36v-1.82h.36Zm0-3.64h-.36v-1.81h.36Zm0-3.63h-.36v-1.82h.36Zm0-3.64h-.36V108h.36Zm0-3.64h-.36v-1.82h.36Zm0-3.64h-.36v-1.82h.36Zm0-3.64h-.36V97.05h.36Zm0-3.64h-.36V93.41h.36Zm0-3.64h-.36V89.77h.36Zm0-3.64h-.36V86.13h.36Zm0-3.64h-.36V82.49h.36Zm0-3.64h-.36V78.86h.36Zm0-3.63h-.36V75.22h.36Zm0-3.64h-.36V71.58h.36Zm0-3.64h-.36V67.94h.36Zm0-3.64h-.36V64.3h.36Zm0-3.64h-.36V60.66h.36Zm0-3.64h-.36V57h.36Zm0-3.64h-.36V53.38h.36Zm0-3.64h-.36V49.74h.36Zm0-3.64h-.36V46.1h.36Zm0-3.63h-.36V42.47h.36Zm0-3.64h-.36V38.83h.36Zm0-3.64h-.36V35.19h.36Zm0-3.64h-.36V31.55h.36Zm0-3.64h-.36V27.91h.36Zm0-3.64h-.36V24.27h.36Zm0-3.64h-.36V20.63h.36Zm0-3.64h-.36v-.59h.36Z"/><path class="cls-14" d="M405.49,154.81h-.37V153h.37Zm0-3.64h-.37v-1.82h.37Zm0-3.64h-.37v-1.82h.37Zm0-3.64h-.37v-1.82h.37Zm0-3.64h-.37v-1.82h.37Zm0-3.64h-.37v-1.82h.37Zm0-3.64h-.37v-1.82h.37Zm0-3.64h-.37v-1.82h.37Zm0-3.64h-.37v-1.81h.37Zm0-3.63h-.37v-1.82h.37Zm0-3.64h-.37V116.6h.37Zm0-3.64h-.37V113h.37Zm0-3.64h-.37v-1.82h.37Zm0-3.64h-.37v-1.82h.37Zm0-3.64h-.37V102h.37Zm0-3.64h-.37V98.4h.37Zm0-3.64h-.37V94.76h.37Zm0-3.64h-.37V91.12h.37Zm0-3.63h-.37V87.49h.37Zm0-3.64h-.37V83.85h.37Zm0-3.64h-.37V80.21h.37Zm0-3.64h-.37V76.57h.37Zm0-3.64h-.37V72.93h.37Zm0-3.64h-.37V69.29h.37Zm0-3.64h-.37V65.65h.37Zm0-3.64h-.37V62h.37Zm0-3.64h-.37V58.37h.37Zm0-3.64h-.37V54.73h.37Zm0-3.63h-.37V51.1h.37Zm0-3.64h-.37V47.46h.37Zm0-3.64h-.37V43.82h.37Zm0-3.64h-.37V40.18h.37Zm0-3.64h-.37V36.54h.37Zm0-3.64h-.37V32.9h.37Zm0-3.64h-.37V29.26h.37Zm0-3.64h-.37V25.62h.37Zm0-3.64h-.37V22h.37Zm0-3.64h-.37v-.58h.37Z"/><path class="cls-15" d="M408.92,139.88h-.36v-1.82h.36Zm0-3.64h-.36v-1.82h.36Zm0-3.64h-.36v-1.82h.36Zm0-3.64h-.36v-1.82h.36Zm0-3.64h-.36v-1.81h.36Zm0-3.63h-.36v-1.82h.36Zm0-3.64h-.36v-1.82h.36Zm0-3.64h-.36v-1.82h.36Zm0-3.64h-.36V109h.36Zm0-3.64h-.36v-1.82h.36Zm0-3.64h-.36v-1.82h.36Zm0-3.64h-.36V98h.36Zm0-3.64h-.36V94.39h.36Zm0-3.64h-.36V90.75h.36Zm0-3.63h-.36V87.12h.36Zm0-3.64h-.36V83.48h.36Zm0-3.64h-.36V79.84h.36Zm0-3.64h-.36V76.2h.36Zm0-3.64h-.36V72.56h.36Zm0-3.64h-.36V68.92h.36Zm0-3.64h-.36V65.28h.36Zm0-3.64h-.36V61.64h.36Zm0-3.64h-.36V58h.36Zm0-3.64h-.36V54.37h.36Zm0-3.63h-.36V50.73h.36Zm0-3.64h-.36V47.09h.36Zm0-3.64h-.36V43.45h.36Zm0-3.64h-.36V39.81h.36Zm0-3.64h-.36V36.17h.36Zm0-3.64h-.36V32.53h.36Zm0-3.64h-.36V28.89h.36Zm0-3.64h-.36V25.25h.36Zm0-3.64h-.36V21.61h.36Zm0-3.64h-.36V18h.36Zm0-3.63h-.36V14.34h.36Zm0-3.64h-.36v-.1h.36Z"/><path class="cls-16" d="M411.17,151.49h-.36v-1.82h.36Zm0-3.64h-.36V146h.36Zm0-3.64h-.36v-1.82h.36Zm0-3.64h-.36v-1.81h.36Zm0-3.63h-.36v-1.82h.36Zm0-3.64h-.36v-1.82h.36Zm0-3.64h-.36v-1.82h.36Zm0-3.64h-.36V124.2h.36Zm0-3.64h-.36v-1.82h.36Zm0-3.64h-.36v-1.82h.36Zm0-3.64h-.36v-1.82h.36Zm0-3.64h-.36v-1.82h.36Zm0-3.64h-.36V106h.36Zm0-3.63h-.36v-1.82h.36Zm0-3.64h-.36V98.73h.36Zm0-3.64h-.36V95.09h.36Zm0-3.64h-.36V91.45h.36Zm0-3.64h-.36V87.81h.36Zm0-3.64h-.36V84.17h.36Zm0-3.64h-.36V80.53h.36Zm0-3.64h-.36V76.89h.36Zm0-3.64h-.36V73.25h.36Zm0-3.64h-.36V69.61h.36Zm0-3.63h-.36V66h.36Zm0-3.64h-.36V62.34h.36Zm0-3.64h-.36V58.7h.36Zm0-3.64h-.36V55.06h.36Zm0-3.64h-.36V51.42h.36Zm0-3.64h-.36V47.78h.36Zm0-3.64h-.36V44.14h.36Zm0-3.64h-.36V40.5h.36Zm0-3.64h-.36V36.86h.36Zm0-3.64h-.36V33.23h.36Zm0-3.63h-.36V29.59h.36Zm0-3.64h-.36V26h.36Zm0-3.64h-.36V22.31h.36Zm0-3.64h-.36V18.67h.36Zm0-3.64h-.36v-.59h.36Z"/><path class="cls-17" d="M407.05,152.84h-.36V151h.36Zm0-3.63h-.36v-1.82h.36Zm0-3.64h-.36v-1.82h.36Zm0-3.64h-.36v-1.82h.36Zm0-3.64h-.36v-1.82h.36Zm0-3.64h-.36v-1.82h.36Zm0-3.64h-.36v-1.82h.36Zm0-3.64h-.36v-1.82h.36Zm0-3.64h-.36v-1.82h.36Zm0-3.64h-.36v-1.82h.36Zm0-3.64h-.36v-1.82h.36Zm0-3.63h-.36V111h.36Zm0-3.64h-.36v-1.82h.36Zm0-3.64h-.36v-1.82h.36Zm0-3.64h-.36v-1.82h.36Zm0-3.64h-.36V96.44h.36Zm0-3.64h-.36V92.8h.36Zm0-3.64h-.36V89.16h.36Zm0-3.64h-.36V85.52h.36Zm0-3.64h-.36V81.88h.36Zm0-3.64h-.36V78.25h.36Zm0-3.63h-.36V74.61h.36Zm0-3.64h-.36V71h.36Zm0-3.64h-.36V67.33h.36Zm0-3.64h-.36V63.69h.36Zm0-3.64h-.36V60.05h.36Zm0-3.64h-.36V56.41h.36Zm0-3.64h-.36V52.77h.36Zm0-3.64h-.36V49.13h.36Zm0-3.64h-.36V45.49h.36Zm0-3.63h-.36V41.86h.36Zm0-3.64h-.36V38.22h.36Zm0-3.64h-.36V34.58h.36Zm0-3.64h-.36V30.94h.36Zm0-3.64h-.36V27.3h.36Zm0-3.64h-.36V23.66h.36Zm0-3.64h-.36V20h.36Zm0-3.64h-.36v-.59h.36Z"/><path class="cls-4" d="M438.59,154.79h-.36V153h.36Zm0-3.64h-.36v-1.82h.36Zm0-3.64h-.36v-1.82h.36Zm0-3.64h-.36v-1.82h.36Zm0-3.64h-.36v-1.82h.36Zm0-3.64h-.36v-1.81h.36Zm0-3.63h-.36v-1.82h.36Zm0-3.64h-.36V127.5h.36Zm0-3.64h-.36v-1.82h.36Zm0-3.64h-.36v-1.82h.36Zm0-3.64h-.36v-1.82h.36Zm0-3.64h-.36v-1.82h.36Zm0-3.64h-.36V109.3h.36Zm0-3.64h-.36v-1.82h.36Zm0-3.64h-.36V102h.36Zm0-3.63h-.36V98.39h.36Zm0-3.64h-.36V94.75h.36Zm0-3.64h-.36V91.11h.36Zm0-3.64h-.36V87.47h.36Zm0-3.64h-.36V83.83h.36Zm0-3.64h-.36V80.19h.36Zm0-3.64h-.36V76.55h.36Zm0-3.64h-.36V72.91h.36Zm0-3.64h-.36V69.27h.36Zm0-3.64h-.36V65.63h.36Zm0-3.63h-.36V62h.36Zm0-3.64h-.36V58.36h.36Z"/><path class="cls-13" d="M442.16,155.33h-.37v-1.82h.37Zm0-3.64h-.37v-1.82h.37Zm0-3.64h-.37v-1.82h.37Zm0-3.64h-.37V142.6h.37Zm0-3.63h-.37V139h.37Zm0-3.64h-.37v-1.82h.37Zm0-3.64h-.37v-1.82h.37Zm0-3.64h-.37V128h.37Zm0-3.64h-.37V124.4h.37Zm0-3.64h-.37v-1.82h.37Zm0-3.64h-.37v-1.82h.37Zm0-3.64h-.37v-1.82h.37Zm0-3.64h-.37v-1.82h.37Zm0-3.63h-.37v-1.82h.37Zm0-3.64h-.37v-1.82h.37Zm0-3.64h-.37V98.93h.37Zm0-3.64h-.37V95.29h.37Zm0-3.64h-.37V91.65h.37Zm0-3.64h-.37V88h.37Zm0-3.64h-.37V84.37h.37Zm0-3.64h-.37V80.73h.37Zm0-3.64h-.37V77.09h.37Zm0-3.64h-.37V73.45h.37Zm0-3.63h-.37V69.82h.37Zm0-3.64h-.37V66.18h.37Zm0-3.64h-.37V62.54h.37Zm0-3.64h-.37V58.9h.37Z"/><path class="cls-14" d="M436.08,156.3h-.36v-1.82h.36Zm0-3.64h-.36v-1.82h.36Zm0-3.64h-.36V147.2h.36Zm0-3.64h-.36v-1.82h.36Zm0-3.63h-.36v-1.82h.36Zm0-3.64h-.36v-1.82h.36Zm0-3.64h-.36v-1.82h.36Zm0-3.64h-.36V129h.36Zm0-3.64h-.36v-1.82h.36Zm0-3.64h-.36v-1.82h.36Zm0-3.64h-.36v-1.82h.36Zm0-3.64h-.36v-1.82h.36Zm0-3.64h-.36v-1.82h.36Zm0-3.64h-.36v-1.81h.36Zm0-3.63h-.36v-1.82h.36Zm0-3.64h-.36V99.9h.36Zm0-3.64h-.36V96.26h.36Zm0-3.64h-.36V92.62h.36Zm0-3.64h-.36V89h.36Zm0-3.64h-.36V85.34h.36Zm0-3.64h-.36V81.7h.36Zm0-3.64h-.36V78.06h.36Zm0-3.64h-.36V74.42h.36Zm0-3.64h-.36V70.79h.36Zm0-3.63h-.36V67.15h.36Zm0-3.64h-.36V63.51h.36Zm0-3.64h-.36V59.87h.36Z"/><path class="cls-15" d="M441,156.56h-.36v-1.82H441Zm0-3.64h-.36V151.1H441Zm0-3.63h-.36v-1.82H441Zm0-3.64h-.36v-1.82H441Zm0-3.64h-.36v-1.82H441Zm0-3.64h-.36v-1.82H441Zm0-3.64h-.36v-1.82H441Zm0-3.64h-.36v-1.82H441Zm0-3.64h-.36v-1.82H441Zm0-3.64h-.36V122H441Zm0-3.64h-.36v-1.82H441Zm0-3.64h-.36v-1.82H441Zm0-3.63h-.36v-1.82H441Zm0-3.64h-.36v-1.82H441Zm0-3.64h-.36V103.8H441Zm0-3.64h-.36v-1.82H441Zm0-3.64h-.36V96.52H441Zm0-3.64h-.36V92.88H441Zm0-3.64h-.36V89.24H441Zm0-3.64h-.36V85.6H441Zm0-3.64h-.36V82H441Zm0-3.64h-.36V78.33H441Zm0-3.63h-.36V74.69H441Zm0-3.64h-.36V71.05H441Zm0-3.64h-.36V67.41H441Zm0-3.64h-.36V63.77H441ZM441,62h-.36V60.13H441Zm0-3.64h-.36V56.49H441Z"/><path class="cls-16" d="M439.48,157.13h-.36v-1.82h.36Zm0-3.64h-.36v-1.82h.36Zm0-3.64h-.36V148h.36Zm0-3.64h-.36v-1.82h.36Zm0-3.64h-.36v-1.82h.36Zm0-3.64h-.36v-1.82h.36Zm0-3.64h-.36v-1.82h.36Zm0-3.64h-.36v-1.82h.36Zm0-3.64h-.36v-1.82h.36Zm0-3.63h-.36v-1.82h.36Zm0-3.64h-.36v-1.82h.36Zm0-3.64h-.36v-1.82h.36Zm0-3.64h-.36v-1.82h.36Zm0-3.64h-.36V108h.36Zm0-3.64h-.36v-1.82h.36Zm0-3.64h-.36v-1.82h.36Zm0-3.64h-.36V97.08h.36Zm0-3.64h-.36V93.44h.36Zm0-3.64h-.36V89.8h.36Zm0-3.63h-.36V86.17h.36Zm0-3.64h-.36V82.53h.36Zm0-3.64h-.36V78.89h.36Zm0-3.64h-.36V75.25h.36Zm0-3.64h-.36V71.61h.36Zm0-3.64h-.36V68h.36Zm0-3.64h-.36V64.33h.36Zm0-3.64h-.36V60.69h.36Zm0-3.64h-.36V57.05h.36Z"/><path class="cls-17" d="M437.65,158.13h-.36v-1.82h.36Zm0-3.64h-.36v-1.82h.36Zm0-3.64h-.36V149h.36Zm0-3.63h-.36V145.4h.36Zm0-3.64h-.36v-1.82h.36Zm0-3.64h-.36v-1.82h.36Zm0-3.64h-.36v-1.82h.36Zm0-3.64h-.36v-1.82h.36Zm0-3.64h-.36V127.2h.36Zm0-3.64h-.36v-1.82h.36Zm0-3.64h-.36v-1.82h.36Zm0-3.64h-.36v-1.82h.36Zm0-3.63h-.36v-1.82h.36Zm0-3.64h-.36V109h.36Zm0-3.64h-.36v-1.82h.36Zm0-3.64h-.36v-1.82h.36Zm0-3.64h-.36V98.09h.36Zm0-3.64h-.36V94.45h.36Zm0-3.64h-.36V90.81h.36Zm0-3.64h-.36V87.17h.36Zm0-3.64h-.36V83.53h.36Zm0-3.64h-.36V79.9h.36Zm0-3.63h-.36V76.26h.36Zm0-3.64h-.36V72.62h.36Zm0-3.64h-.36V69h.36Zm0-3.64h-.36V65.34h.36Zm0-3.64h-.36V61.7h.36Zm0-3.64h-.36V58.06h.36Z"/><g class="cls-2"><rect class="cls-18" x="414.71" y="51.92" width="51.07" height="21.5" rx="10.62"/><ellipse class="cls-19" cx="454.22" cy="62.67" rx="6.93" ry="6.94"/></g><rect class="cls-20" x="411.59" y="54.17" width="51.07" height="21.5" rx="10.62"/><ellipse class="cls-19" cx="451.11" cy="64.92" rx="6.93" ry="6.94"/><g class="cls-2"><rect class="cls-21" x="387.92" width="41.41" height="17.43" rx="8.61"/><ellipse class="cls-19" cx="419.96" cy="8.71" rx="5.62" ry="5.63"/></g><rect class="cls-22" x="385.39" y="1.82" width="41.41" height="17.43" rx="8.61"/><ellipse class="cls-19" cx="417.44" cy="10.54" rx="5.62" ry="5.63"/><rect class="cls-23" x="346.06" y="28.64" width="52.34" height="22.03" rx="10.89" transform="translate(744.46 79.31) rotate(-180)"/><rect class="cls-24" x="342.87" y="30.81" width="52.34" height="22.03" rx="10.89" transform="translate(738.07 83.66) rotate(180)"/><ellipse class="cls-19" cx="354.71" cy="41.83" rx="7.11" ry="7.11"/><rect class="cls-25" x="326.52" y="61.73" width="36.09" height="15.19" rx="7.51" transform="translate(689.12 138.65) rotate(180)"/><rect class="cls-26" x="324.32" y="63.23" width="36.09" height="15.19" rx="7.51" transform="translate(684.72 141.65) rotate(-180)"/><ellipse class="cls-19" cx="332.48" cy="70.82" rx="4.9" ry="4.9"/><ellipse class="cls-27" cx="523.59" cy="206.38" rx="10.92" ry="10.93"/><path class="cls-28" d="M523.45,210.77,485,223.52c-1.48.49-3.3-1-4.06-3.26l0-.09c-.75-2.28-2.48-3.78-1-4.27l38.44-12.74c1.48-.49,5.62.21,6.38,2.49l0,.09C525.51,208,524.92,210.28,523.45,210.77Z"/><ellipse class="cls-29" cx="490.07" cy="195.7" rx="10.92" ry="10.93"/><path class="cls-30" d="M489.93,200.1l-38.44,12.75c-1.48.49-3.3-1-4.06-3.26l0-.09c-.75-2.28-2.48-3.78-1-4.27l38.44-12.74c1.48-.49,5.62.2,6.38,2.48l0,.1C492,197.35,491.4,199.61,489.93,200.1Z"/><ellipse class="cls-31" cx="456.55" cy="185.03" rx="10.92" ry="10.93"/><path class="cls-32" d="M456.41,189.43,418,202.17c-1.48.49-3.3-1-4.06-3.25l0-.1c-.75-2.27-2.48-3.77-1-4.26l38.44-12.74c1.48-.49,5.62.2,6.38,2.48l0,.09C458.47,186.67,457.88,188.94,456.41,189.43Z"/><ellipse class="cls-33" cx="299.81" cy="202.19" rx="10.92" ry="10.93"/><path class="cls-34" d="M303,199.5,339.5,215c1.43.61,1.83,2.91.89,5.12l0,.09c-.95,2.21-.63,4.48-2.07,3.87L301,208.22c-1.43-.61-4.7-2.58-3.14-6.09l0-.09C298.84,200.14,301.6,198.89,303,199.5Z"/><ellipse class="cls-35" cx="335.46" cy="189.17" rx="10.92" ry="10.93"/><path class="cls-36" d="M338.66,186.49,375.12,202c1.43.61,1.83,2.91.89,5.12l0,.09c-.94,2.21-.63,4.48-2.06,3.87L336.66,195.2c-1.43-.61-4.7-2.58-3.14-6.09l0-.09C334.46,187.12,337.22,185.87,338.66,186.49Z"/><ellipse class="cls-37" cx="371.1" cy="176.16" rx="10.92" ry="10.93"/><path class="cls-38" d="M374.28,173.44,410.74,189c1.43.61,1.84,2.92.9,5.13l0,.09c-.94,2.21-.63,4.48-2.06,3.87l-37.25-15.89c-1.44-.61-4.71-2.58-3.15-6.08l0-.09C370.08,174.08,372.85,172.83,374.28,173.44Z"/><polygon class="cls-39" points="512.27 224.05 388.25 267.87 285.25 223.37 409.15 179.55 512.27 224.05"/><polyline class="cls-40" points="388.04 267.71 512.74 223.85 512.74 240.04 388.04 283.9"/><polygon class="cls-41" points="388.27 284.2 285.22 239.64 285.22 223.28 388.27 267.84 388.27 284.2"/><path class="cls-42" d="M306.2,245.37,267.72,258c-1.48.48-3.3-1-4.05-3.27l0-.1c-.74-2.28-2.47-3.78-1-4.27l38.48-12.59c1.48-.49,5.63.22,6.37,2.51l0,.09C308.28,242.62,307.68,244.89,306.2,245.37Z"/><ellipse class="cls-43" cx="264.8" cy="253.61" rx="10.92" ry="10.93"/><path class="cls-44" d="M336.07,257.12l-38.49,12.6c-1.48.48-3.3-1-4-3.27l0-.1c-.75-2.28-2.47-3.78-1-4.27L331,249.49c1.48-.49,5.62.22,6.37,2.51l0,.09C338.15,254.37,337.55,256.64,336.07,257.12Z"/><ellipse class="cls-45" cx="294.67" cy="265.36" rx="10.92" ry="10.93"/><path class="cls-46" d="M365.93,268.87l-38.48,12.6c-1.48.48-3.3-1-4.05-3.27l0-.1c-.74-2.28-2.47-3.78-1-4.27l38.48-12.59c1.48-.49,5.63.22,6.37,2.51l0,.09C368,266.12,367.41,268.39,365.93,268.87Z"/><ellipse class="cls-47" cx="324.53" cy="277.11" rx="10.92" ry="10.93"/><path class="cls-48" d="M414.13,270.41l37.17,16.06c1.43.62,3.37-.68,4.33-2.88l0-.09c1-2.21,2.81-3.55,1.38-4.16l-37.17-16.07c-1.43-.61-5.62-.29-6.57,1.92l0,.09C412.31,267.49,412.7,269.79,414.13,270.41Z"/><ellipse class="cls-49" cx="454.6" cy="282.4" rx="10.92" ry="10.93"/><path class="cls-50" d="M451,257.71l37.17,16.06c1.43.62,3.38-.68,4.33-2.89l0-.09c1-2.2,2.8-3.54,1.37-4.16l-37.17-16.06c-1.43-.62-5.62-.29-6.57,1.92l0,.09C449.17,254.78,449.56,257.09,451,257.71Z"/><ellipse class="cls-51" cx="491.46" cy="269.7" rx="10.92" ry="10.93"/><path class="cls-52" d="M487.85,245,525,261.07c1.43.62,3.38-.68,4.33-2.89l0-.09c1-2.2,2.8-3.54,1.37-4.16l-37.17-16.06c-1.43-.62-5.62-.29-6.57,1.92l0,.09C486,242.08,486.42,244.39,487.85,245Z"/><ellipse class="cls-53" cx="528.32" cy="257" rx="10.92" ry="10.93"/><ellipse class="cls-54" cx="396.1" cy="228.53" rx="80.62" ry="28.73"/><g class="cls-55"><path class="cls-56" d="M391.21,112.68s13.3-6.36,20.92,2.51c0,0,12-4.46,12.68,8.22,0,0,17.12,7.59,15.25,22.18,0,0,7.63,19-1.24,21.57,0,0,11.43,15.84-3.77,24.11,0,0-.61,12.69-10.12,10.8,0,0,0,15.22-9.48,14.6,0,0-12.65,17.78-22.81,1.94,0,0-6.32,10.79-18.37,5.74,0,0-3.17,0-7.62-8.87,0,0-17-1.29-9.53-15.21,0,0-12.68-8.23-8.27-22.83,0,0-17.76-8.85-4.48-27.27,0,0-6.36-15.21,13.27-25.39,0,0,0-9.51,12-9.53C369.67,115.25,382.33,105.72,391.21,112.68Z"/><line class="cls-56" x1="391.94" y1="112.13" x2="392.1" y2="219.17"/><path class="cls-56" d="M421.89,162.4c-1.56-.77,8.22,10.61,19.15,2.23"/><path class="cls-56" d="M422,138.59s-.54,10.52-12.5,14.37"/><path class="cls-56" d="M419.15,191.63s-9.77-3.93-9.52-16.49"/><path class="cls-56" d="M344.8,149.62s10.08-3,17.72,7"/><path class="cls-56" d="M373.66,190.19s3.35,17.94-7.43,25.05"/><path class="cls-56" d="M377.41,171.4s-2.43,5-6.34,4.76"/><path class="cls-56" d="M380.69,142.33s.95-6.55-15.36-8.76"/><path class="cls-56" d="M399.4,200.15s11.18-.4,11,8.55"/><path class="cls-56" d="M410.8,135s-5.94-8.7,1.23-19"/></g><path class="cls-57" d="M389.61,109.94s13.3-6.36,20.91,2.51c0,0,12-4.46,12.69,8.22,0,0,17.12,7.59,15.24,22.18,0,0,7.64,19-1.23,21.57,0,0,11.43,15.84-3.77,24.11,0,0-.61,12.69-10.12,10.8,0,0,0,15.22-9.49,14.6,0,0-12.64,17.78-22.81,1.94,0,0-6.32,10.79-18.37,5.74,0,0-3.16,0-7.61-8.87,0,0-17-1.29-9.53-15.21,0,0-12.69-8.23-8.27-22.83,0,0-17.76-8.85-4.48-27.27,0,0-6.36-15.21,13.27-25.39,0,0,0-9.51,12-9.53C368.07,112.51,380.73,103,389.61,109.94Z"/><path class="cls-58" d="M390.5,217a.55.55,0,0,1-.55-.54l-.16-107a.55.55,0,0,1,.55-.54h0a.54.54,0,0,1,.54.54l.16,107a.54.54,0,0,1-.54.54Z"/><path class="cls-58" d="M431,165.73a16.22,16.22,0,0,1-10.45-4.36c-1.1-1.06-1.38-1.64-1-2.15a.81.81,0,0,1,1.07-.21.7.7,0,0,1,.4.73,14.61,14.61,0,0,0,7.23,4.2A12.49,12.49,0,0,0,439,161.31a.73.73,0,1,1,.88,1.16A14.35,14.35,0,0,1,431,165.73Z"/><path class="cls-58" d="M407.93,151a.73.73,0,0,1-.69-.51.71.71,0,0,1,.47-.91c11.31-3.64,12-13.31,12-13.72a.73.73,0,0,1,.76-.69.74.74,0,0,1,.69.77c0,.11-.71,11.07-13,15A.57.57,0,0,1,407.93,151Z"/><path class="cls-58" d="M417.55,189.62a.81.81,0,0,1-.27-.05c-.11,0-10.23-4.27-10-17.19a.73.73,0,0,1,1.46,0c-.24,11.93,9,15.77,9.06,15.81a.73.73,0,0,1-.27,1.4Z"/><path class="cls-58" d="M360.91,154.56a.69.69,0,0,1-.57-.28c-7.23-9.44-16.55-6.82-16.94-6.7a.73.73,0,0,1-.42-1.39c.11,0,10.66-3.05,18.51,7.2a.73.73,0,0,1-.14,1A.65.65,0,0,1,360.91,154.56Z"/><path class="cls-58" d="M364.63,213.23a.75.75,0,0,1-.61-.33.74.74,0,0,1,.21-1c10.25-6.77,7.14-24.14,7.11-24.31a.73.73,0,0,1,1.43-.27c.14.75,3.31,18.5-7.74,25.8A.72.72,0,0,1,364.63,213.23Z"/><path class="cls-58" d="M369.72,174.15h-.3a.72.72,0,0,1-.68-.76.74.74,0,0,1,.77-.69c3.4.19,5.62-4.31,5.64-4.35a.72.72,0,0,1,1-.34.73.73,0,0,1,.34,1C376.35,169.19,373.88,174.15,369.72,174.15Z"/><path class="cls-58" d="M379.09,140.31H379a.74.74,0,0,1-.61-.82c0-.11.42-5.89-14.74-7.94a.73.73,0,0,1,.19-1.44c9.39,1.27,13.24,4,14.8,6.1a5,5,0,0,1,1.19,3.48A.74.74,0,0,1,379.09,140.31Z"/><path class="cls-58" d="M408.8,206.69h0a.74.74,0,0,1-.72-.74,6.64,6.64,0,0,0-1.88-5.08c-2.94-2.89-8.32-2.73-8.37-2.73a.72.72,0,0,1-.75-.7.73.73,0,0,1,.7-.76c.24,0,6.06-.17,9.44,3.16a8,8,0,0,1,2.32,6.14A.73.73,0,0,1,408.8,206.69Z"/><path class="cls-58" d="M409.19,133a.74.74,0,0,1-.6-.31c-.06-.09-6.14-9.24,1.24-19.84a.74.74,0,0,1,1-.18.72.72,0,0,1,.18,1c-6.79,9.76-1.47,17.85-1.24,18.19a.72.72,0,0,1-.6,1.13Z"/><path class="cls-4" d="M576.22,278.9l-1.36-.59L575,278l1.23.54.32-.12.12.34Zm2.16-.78-.12-.35,1.7-.62.13.35Zm-5.19-.53-1.67-.72.14-.34,1.67.72Zm8.61-.71-.13-.34,1.71-.62.13.34Zm-11.95-.73-1.67-.72.14-.34,1.67.72Zm15.37-.51-.13-.34,1.71-.62.12.34Zm-18.71-.93-1.67-.72.15-.34,1.66.72Zm22.12-.31-.12-.34,1.71-.62.12.34Zm-25.46-1.13-1.67-.72.15-.34,1.67.72Zm-3.34-1.44-1.67-.72.15-.34,1.67.72Zm-3.34-1.44-1.66-.72.14-.34,1.67.72ZM553.16,269l-1.67-.72.14-.34,1.67.72Zm-3.34-1.44-1.67-.72.14-.33,1.67.71Zm-3.34-1.44-1.67-.72L545,265l1.67.72Zm-3.34-1.44-1.67-.72.14-.33,1.67.72Zm-3.34-1.44-1.67-.72.15-.33,1.66.72Zm-3.34-1.44-1.67-.72.15-.33,1.67.72Zm-3.34-1.44-1.67-.72.15-.33,1.67.72Zm-3.33-1.44-1.67-.72.14-.33,1.67.72Zm-3.34-1.44-1.67-.72.14-.33,1.67.72Z"/></svg>