<svg xmlns="http://www.w3.org/2000/svg" xmlns:xlink="http://www.w3.org/1999/xlink" viewBox="0 0 678.13 517.54"><defs><style>.cls-1,.cls-3{fill:#011625;}.cls-1{opacity:0.1;}.cls-2,.cls-28{opacity:0.05;}.cls-4{fill:url(#Dégradé_sans_nom_11);}.cls-5{fill:url(#Dégradé_sans_nom_11-2);}.cls-6{fill:url(#Dégradé_sans_nom_11-3);}.cls-7{fill:url(#Dégradé_sans_nom_11-4);}.cls-8{fill:url(#Dégradé_sans_nom_11-5);}.cls-9{fill:url(#Dégradé_sans_nom_11-6);}.cls-10{fill:url(#Dégradé_sans_nom_16);}.cls-11{fill:url(#Dégradé_sans_nom_16-2);}.cls-12{fill:url(#Dégradé_sans_nom_16-3);}.cls-13{fill:url(#Dégradé_sans_nom_16-4);}.cls-14{fill:url(#Dégradé_sans_nom_16-5);}.cls-15{fill:url(#Dégradé_sans_nom_16-6);}.cls-16{fill:url(#Dégradé_sans_nom_15);}.cls-17{fill:url(#Dégradé_sans_nom_15-2);}.cls-18{fill:url(#Dégradé_sans_nom_15-3);}.cls-19{fill:url(#Dégradé_sans_nom_15-4);}.cls-20{fill:url(#Dégradé_sans_nom_15-5);}.cls-21{fill:url(#Dégradé_sans_nom_15-6);}.cls-22{fill:url(#Dégradé_sans_nom_14);}.cls-23{fill:url(#Dégradé_sans_nom_14-2);}.cls-24{fill:url(#Dégradé_sans_nom_14-3);}.cls-25{fill:url(#Dégradé_sans_nom_14-4);}.cls-26{fill:url(#Dégradé_sans_nom_14-5);}.cls-27{fill:url(#Dégradé_sans_nom_14-6);}.cls-28,.cls-33,.cls-35{fill:#fff;}.cls-29,.cls-35,.cls-66{opacity:0.8;}.cls-30{fill:#424d63;}.cls-31{fill:url(#Dégradé_sans_nom_530);}.cls-32{opacity:0.3;fill:url(#Dégradé_sans_nom_87);}.cls-33{opacity:0.07;}.cls-34,.cls-66{fill:#c0d562;}.cls-36{fill:url(#Dégradé_sans_nom_580);}.cls-37{fill:url(#Dégradé_sans_nom_580-2);}.cls-38{fill:url(#Dégradé_sans_nom_580-3);}.cls-39{fill:url(#Dégradé_sans_nom_580-4);}.cls-40{fill:url(#Dégradé_sans_nom_580-5);}.cls-41{fill:url(#Dégradé_sans_nom_580-6);}.cls-42{fill:url(#Dégradé_sans_nom_13);}.cls-43{fill:url(#Dégradé_sans_nom_13-2);}.cls-44{fill:url(#Dégradé_sans_nom_13-3);}.cls-45{fill:url(#Dégradé_sans_nom_13-4);}.cls-46{fill:url(#Dégradé_sans_nom_13-5);}.cls-47{fill:url(#Dégradé_sans_nom_13-6);}.cls-48{fill:url(#Dégradé_sans_nom_12);}.cls-49{fill:url(#Dégradé_sans_nom_12-2);}.cls-50{fill:url(#Dégradé_sans_nom_12-3);}.cls-51{fill:url(#Dégradé_sans_nom_12-4);}.cls-52{fill:url(#Dégradé_sans_nom_12-5);}.cls-53{fill:url(#Dégradé_sans_nom_12-6);}.cls-54{fill:url(#Dégradé_sans_nom_11-7);}.cls-55{fill:url(#Dégradé_sans_nom_11-8);}.cls-56{fill:url(#Dégradé_sans_nom_11-9);}.cls-57{fill:url(#Dégradé_sans_nom_11-10);}.cls-58{fill:url(#Dégradé_sans_nom_11-11);}.cls-59{fill:url(#Dégradé_sans_nom_11-12);}.cls-60{fill:url(#Dégradé_sans_nom_10);}.cls-61{fill:url(#Dégradé_sans_nom_10-2);}.cls-62{fill:url(#Dégradé_sans_nom_10-3);}.cls-63{fill:url(#Dégradé_sans_nom_10-4);}.cls-64{fill:url(#Dégradé_sans_nom_10-5);}.cls-65{fill:url(#Dégradé_sans_nom_10-6);}.cls-67{opacity:0.2;}</style><linearGradient id="Dégradé_sans_nom_11" x1="425.94" y1="93.05" x2="444.01" y2="85.19" gradientTransform="translate(69.45 -164.38) rotate(23.06)" gradientUnits="userSpaceOnUse"><stop offset="0" stop-color="#424d80"/><stop offset="0.25" stop-color="#2e3559"/><stop offset="0.48" stop-color="#2c3355"/><stop offset="0.72" stop-color="#242c48"/><stop offset="0.97" stop-color="#182133"/><stop offset="1" stop-color="#161f30"/></linearGradient><linearGradient id="Dégradé_sans_nom_11-2" x1="437.34" y1="144.71" x2="481.15" y2="144.71" gradientTransform="translate(918.5 289.42) rotate(180)" xlink:href="#Dégradé_sans_nom_11"/><linearGradient id="Dégradé_sans_nom_11-3" x1="443.29" y1="224.8" x2="462.1" y2="224.8" gradientTransform="translate(905.39 449.6) rotate(-180)" xlink:href="#Dégradé_sans_nom_11"/><linearGradient id="Dégradé_sans_nom_11-4" x1="454.64" y1="224.8" x2="473.46" y2="224.8" gradientTransform="translate(928.1 449.6) rotate(180)" xlink:href="#Dégradé_sans_nom_11"/><linearGradient id="Dégradé_sans_nom_11-5" x1="2405.81" y1="101.66" x2="2428.4" y2="101.66" gradientTransform="translate(2860.85 418.45) rotate(-175.88)" xlink:href="#Dégradé_sans_nom_11"/><linearGradient id="Dégradé_sans_nom_11-6" x1="434.87" y1="81.62" x2="477.51" y2="81.62" gradientTransform="matrix(1, 0, 0, 1, 0, 0)" xlink:href="#Dégradé_sans_nom_11"/><linearGradient id="Dégradé_sans_nom_16" x1="381.57" y1="136.96" x2="404.16" y2="136.96" gradientTransform="translate(774.87 301.8) rotate(-175.88)" gradientUnits="userSpaceOnUse"><stop offset="0" stop-color="#161f30"/><stop offset="0.02" stop-color="#182133"/><stop offset="0.14" stop-color="#242c48"/><stop offset="0.26" stop-color="#2c3355"/><stop offset="0.38" stop-color="#2e3559"/><stop offset="0.61" stop-color="#2f375c"/><stop offset="0.78" stop-color="#343d65"/><stop offset="0.93" stop-color="#3c4675"/><stop offset="1" stop-color="#424d80"/></linearGradient><linearGradient id="Dégradé_sans_nom_16-2" x1="356.96" y1="135.38" x2="400.2" y2="135.38" gradientTransform="translate(757.16 270.76) rotate(180)" xlink:href="#Dégradé_sans_nom_16"/><linearGradient id="Dégradé_sans_nom_16-3" x1="373.42" y1="215.47" x2="392.23" y2="215.47" gradientTransform="translate(765.65 430.94) rotate(180)" xlink:href="#Dégradé_sans_nom_16"/><linearGradient id="Dégradé_sans_nom_16-4" x1="361.89" y1="70.81" x2="404.53" y2="70.81" gradientTransform="matrix(1, 0, 0, 1, 0, 0)" xlink:href="#Dégradé_sans_nom_16"/><linearGradient id="Dégradé_sans_nom_16-5" x1="363.54" y1="215.47" x2="382.35" y2="215.47" gradientTransform="translate(745.89 430.94) rotate(180)" xlink:href="#Dégradé_sans_nom_16"/><linearGradient id="Dégradé_sans_nom_16-6" x1="-4535.62" y1="-5354.08" x2="-4484.71" y2="-5354.08" gradientTransform="matrix(-0.79, 0.61, -0.61, -0.79, -6456.82, -1354.38)" xlink:href="#Dégradé_sans_nom_16"/><linearGradient id="Dégradé_sans_nom_15" x1="225.7" y1="237.08" x2="244.51" y2="237.08" gradientTransform="translate(470.21 474.15) rotate(-180)" gradientUnits="userSpaceOnUse"><stop offset="0" stop-color="#161f30"/><stop offset="0.36" stop-color="#2e3559"/><stop offset="1" stop-color="#424d80"/></linearGradient><linearGradient id="Dégradé_sans_nom_15-2" x1="-3145.63" y1="231.98" x2="-3122.54" y2="231.98" gradientTransform="matrix(-0.6, -0.07, 0.04, -1, -1640.65, 164.72)" xlink:href="#Dégradé_sans_nom_15"/><linearGradient id="Dégradé_sans_nom_15-3" x1="207.86" y1="237.08" x2="226.68" y2="237.08" gradientTransform="translate(434.54 474.15) rotate(180)" xlink:href="#Dégradé_sans_nom_15"/><linearGradient id="Dégradé_sans_nom_15-4" x1="198.67" y1="156.99" x2="252.48" y2="156.99" gradientTransform="translate(451.15 313.97) rotate(180)" xlink:href="#Dégradé_sans_nom_15"/><linearGradient id="Dégradé_sans_nom_15-5" x1="-3002.19" y1="-2269.15" x2="-2951.28" y2="-2269.15" gradientTransform="translate(-3542.47 179.96) rotate(142.33)" xlink:href="#Dégradé_sans_nom_15"/><linearGradient id="Dégradé_sans_nom_15-6" x1="208.87" y1="94.78" x2="251.51" y2="94.78" gradientTransform="matrix(1, 0, 0, 1, 0, 0)" xlink:href="#Dégradé_sans_nom_15"/><linearGradient id="Dégradé_sans_nom_14" x1="-1876.89" y1="-1767.99" x2="-1825.98" y2="-1767.99" gradientTransform="matrix(-0.79, -0.61, -0.61, 0.79, -2231.12, 417.34)" gradientUnits="userSpaceOnUse"><stop offset="0" stop-color="#2e3559"/><stop offset="0.27" stop-color="#2b3355"/><stop offset="0.52" stop-color="#252d4a"/><stop offset="0.85" stop-color="#1b243a"/><stop offset="1" stop-color="#161f30"/></linearGradient><linearGradient id="Dégradé_sans_nom_14-2" x1="1426.58" y1="152.67" x2="1480.38" y2="152.67" gradientTransform="matrix(-1, 0, 0, 1, 1747.12, 0)" xlink:href="#Dégradé_sans_nom_14"/><linearGradient id="Dégradé_sans_nom_14-3" x1="1433.41" y1="230.99" x2="1452.22" y2="230.99" gradientTransform="matrix(-1, 0, 0, 1, 1747.12, 0)" xlink:href="#Dégradé_sans_nom_14"/><linearGradient id="Dégradé_sans_nom_14-4" x1="1452.2" y1="232.75" x2="1471.01" y2="232.75" gradientTransform="matrix(-1, 0, 0, 1, 1747.12, 0)" xlink:href="#Dégradé_sans_nom_14"/><linearGradient id="Dégradé_sans_nom_14-5" x1="1463.52" y1="154.25" x2="1486.11" y2="154.25" gradientTransform="matrix(-1, 0.07, 0.07, 1, 1732.22, -105.59)" xlink:href="#Dégradé_sans_nom_14"/><linearGradient id="Dégradé_sans_nom_14-6" x1="1432.06" y1="88.1" x2="1474.7" y2="88.1" gradientTransform="matrix(-1, 0, 0, 1, 1747.12, 0)" xlink:href="#Dégradé_sans_nom_14"/><linearGradient id="Dégradé_sans_nom_530" x1="218.37" y1="338.73" x2="478.49" y2="338.73" gradientUnits="userSpaceOnUse"><stop offset="0" stop-color="#192129"/><stop offset="0.06" stop-color="#2e3948"/><stop offset="0.12" stop-color="#404c61"/><stop offset="0.18" stop-color="#4d5b74"/><stop offset="0.26" stop-color="#576582"/><stop offset="0.36" stop-color="#5c6b8a"/><stop offset="0.54" stop-color="#5e6d8c"/><stop offset="0.63" stop-color="#5b6987"/><stop offset="0.73" stop-color="#515f79"/><stop offset="0.83" stop-color="#414d62"/><stop offset="0.94" stop-color="#2a3441"/><stop offset="1" stop-color="#1d252e"/></linearGradient><radialGradient id="Dégradé_sans_nom_87" cx="347.85" cy="513.76" r="77.42" gradientTransform="matrix(-1, 0.01, 0, -0.29, 696.18, 440.08)" gradientUnits="userSpaceOnUse"><stop offset="0"/><stop offset="1" stop-color="#011625" stop-opacity="0"/></radialGradient><linearGradient id="Dégradé_sans_nom_580" x1="262.8" y1="386.29" x2="281.61" y2="386.29" gradientUnits="userSpaceOnUse"><stop offset="0" stop-color="#89a191"/><stop offset="0.21" stop-color="#a0b67e"/><stop offset="0.46" stop-color="#b2c86e"/><stop offset="0.71" stop-color="#bdd265"/><stop offset="1" stop-color="#c0d562"/></linearGradient><linearGradient id="Dégradé_sans_nom_580-2" x1="247.35" y1="309.42" x2="265.03" y2="308.25" gradientTransform="translate(-56.7 58.45) rotate(-11.59)" xlink:href="#Dégradé_sans_nom_580"/><linearGradient id="Dégradé_sans_nom_580-3" x1="265.54" y1="249.68" x2="302.87" y2="237.9" xlink:href="#Dégradé_sans_nom_580"/><linearGradient id="Dégradé_sans_nom_580-4" x1="254.95" y1="308.85" x2="303.16" y2="308.85" xlink:href="#Dégradé_sans_nom_580"/><linearGradient id="Dégradé_sans_nom_580-5" x1="276.61" y1="388.94" x2="295.43" y2="388.94" xlink:href="#Dégradé_sans_nom_580"/><linearGradient id="Dégradé_sans_nom_580-6" x1="295.31" y1="309.25" x2="314.17" y2="300.6" gradientTransform="translate(123.31 -85.01) rotate(20.06)" xlink:href="#Dégradé_sans_nom_580"/><linearGradient id="Dégradé_sans_nom_13" x1="-736.1" y1="1509.21" x2="-684.3" y2="1509.21" gradientTransform="matrix(-0.65, 0.61, -0.5, -0.79, 668.86, 1946.13)" gradientUnits="userSpaceOnUse"><stop offset="0" stop-color="#2e3559"/><stop offset="0.31" stop-color="#2c3355"/><stop offset="0.63" stop-color="#242c48"/><stop offset="0.96" stop-color="#182133"/><stop offset="1" stop-color="#161f30"/></linearGradient><linearGradient id="Dégradé_sans_nom_13-2" x1="-5171.96" y1="-5636.44" x2="-5120.13" y2="-5636.44" gradientTransform="matrix(-0.64, 0.61, -0.5, -0.79, -5682.29, -992.87)" xlink:href="#Dégradé_sans_nom_13"/><linearGradient id="Dégradé_sans_nom_13-3" x1="377.96" y1="321.91" x2="429.73" y2="321.91" gradientTransform="translate(807.69 643.82) rotate(180)" xlink:href="#Dégradé_sans_nom_13"/><linearGradient id="Dégradé_sans_nom_13-4" x1="383.22" y1="402" x2="402.03" y2="402" gradientTransform="translate(785.25 804) rotate(180)" xlink:href="#Dégradé_sans_nom_13"/><linearGradient id="Dégradé_sans_nom_13-5" x1="406.55" y1="402" x2="425.37" y2="402" gradientTransform="translate(831.92 804) rotate(180)" xlink:href="#Dégradé_sans_nom_13"/><linearGradient id="Dégradé_sans_nom_13-6" x1="383.44" y1="257.35" x2="426.08" y2="257.35" gradientTransform="matrix(1, 0, 0, 1, 0, 0)" xlink:href="#Dégradé_sans_nom_13"/><linearGradient id="Dégradé_sans_nom_12" x1="168.87" y1="324.19" x2="187.68" y2="324.19" gradientTransform="translate(356.55 648.39) rotate(-180)" gradientUnits="userSpaceOnUse"><stop offset="0" stop-color="#161f30"/><stop offset="0.03" stop-color="#182133"/><stop offset="0.29" stop-color="#242c48"/><stop offset="0.54" stop-color="#2c3355"/><stop offset="0.78" stop-color="#2e3559"/><stop offset="1" stop-color="#424d80"/></linearGradient><linearGradient id="Dégradé_sans_nom_12-2" x1="-3069.15" y1="-2205.01" x2="-3018.25" y2="-2205.01" gradientTransform="translate(-3590.85 357.69) rotate(142.33)" xlink:href="#Dégradé_sans_nom_12"/><linearGradient id="Dégradé_sans_nom_12-3" x1="158.51" y1="249.7" x2="200.62" y2="249.7" gradientTransform="translate(359.13 499.41) rotate(180)" xlink:href="#Dégradé_sans_nom_12"/><linearGradient id="Dégradé_sans_nom_12-4" x1="173.84" y1="329.79" x2="192.65" y2="329.79" gradientTransform="translate(366.49 659.59) rotate(180)" xlink:href="#Dégradé_sans_nom_12"/><linearGradient id="Dégradé_sans_nom_12-5" x1="-730.84" y1="14.89" x2="-708.25" y2="14.89" gradientTransform="translate(-529.8 205.4) rotate(-175.88)" xlink:href="#Dégradé_sans_nom_12"/><linearGradient id="Dégradé_sans_nom_12-6" x1="165.26" y1="186.32" x2="207.9" y2="186.32" gradientTransform="matrix(1, 0, 0, 1, 0, 0)" xlink:href="#Dégradé_sans_nom_12"/><linearGradient id="Dégradé_sans_nom_11-7" x1="-2750.87" y1="-2108.87" x2="-2699.96" y2="-2108.87" gradientTransform="matrix(-0.79, 0.61, -0.61, -0.79, -2950.55, 195.66)" xlink:href="#Dégradé_sans_nom_11"/><linearGradient id="Dégradé_sans_nom_11-8" x1="491.75" y1="203.74" x2="545.56" y2="203.74" gradientTransform="translate(1037.32 407.48) rotate(180)" xlink:href="#Dégradé_sans_nom_11"/><linearGradient id="Dégradé_sans_nom_11-9" x1="500.94" y1="283.83" x2="519.76" y2="283.83" gradientTransform="translate(1020.7 567.66) rotate(180)" xlink:href="#Dégradé_sans_nom_11"/><linearGradient id="Dégradé_sans_nom_11-10" x1="518.78" y1="283.83" x2="537.59" y2="283.83" gradientTransform="translate(1056.37 567.66) rotate(-180)" xlink:href="#Dégradé_sans_nom_11"/><linearGradient id="Dégradé_sans_nom_11-11" x1="526.93" y1="205.32" x2="549.52" y2="205.32" gradientTransform="translate(1060.3 448.79) rotate(-175.88)" xlink:href="#Dégradé_sans_nom_11"/><linearGradient id="Dégradé_sans_nom_11-12" x1="497.24" y1="139.17" x2="539.87" y2="139.17" gradientTransform="matrix(1, 0, 0, 1, 0, 0)" xlink:href="#Dégradé_sans_nom_11"/><linearGradient id="Dégradé_sans_nom_10" x1="2940.01" y1="354.84" x2="2958.82" y2="354.84" gradientTransform="matrix(-1, 0, 0, 1, 3433.54, 0)" gradientUnits="userSpaceOnUse"><stop offset="0" stop-color="#161f30"/><stop offset="0.02" stop-color="#182133"/><stop offset="0.22" stop-color="#242c48"/><stop offset="0.41" stop-color="#2c3355"/><stop offset="0.6" stop-color="#2e3559"/><stop offset="1" stop-color="#424d80"/></linearGradient><linearGradient id="Dégradé_sans_nom_10-2" x1="-557.04" y1="-1034.79" x2="-506.13" y2="-1034.79" gradientTransform="matrix(-0.79, -0.61, -0.61, 0.79, -556.65, 767.59)" xlink:href="#Dégradé_sans_nom_10"/><linearGradient id="Dégradé_sans_nom_10-3" x1="2929.65" y1="280.35" x2="2971.76" y2="280.35" xlink:href="#Dégradé_sans_nom_10"/><linearGradient id="Dégradé_sans_nom_10-4" x1="2944.98" y1="360.44" x2="2963.79" y2="360.44" xlink:href="#Dégradé_sans_nom_10"/><linearGradient id="Dégradé_sans_nom_10-5" x1="2790.49" y1="663.71" x2="2813.08" y2="663.71" gradientTransform="matrix(-1, 0.07, 0.07, 1, 3227.05, -586.03)" xlink:href="#Dégradé_sans_nom_10"/><linearGradient id="Dégradé_sans_nom_10-6" x1="2934.34" y1="215.19" x2="2976.98" y2="215.19" xlink:href="#Dégradé_sans_nom_10"/></defs><title>Fichier 2</title><g id="Calque_2" data-name="Calque 2"><g id="Calque_1-2" data-name="Calque 1"><ellipse class="cls-1" cx="339.07" cy="331.43" rx="342.44" ry="179.73" transform="translate(-50.04 60.49) rotate(-9.5)"/><g class="cls-2"><path class="cls-3" d="M248.44,132.82a26.09,26.09,0,0,0-.37-3.33l-.59-5.32a5.85,5.85,0,0,0-3.49-4.73,26.35,26.35,0,0,0-10.87-9.15,22.12,22.12,0,1,0-19.31-1.84,26.1,26.1,0,0,0-15.56,9.48,9.77,9.77,0,0,0-7,7.18l-8.87,37.43c-.76-.07-1.52-.12-2.3-.12a22.12,22.12,0,0,0-9.87,41.91,21.6,21.6,0,0,0-9.2,3.33,9.8,9.8,0,0,0-4.31,3.63A21.77,21.77,0,0,0,151,226v7l-8.14,34.34a9.79,9.79,0,0,0,7.25,11.74h0c.3.07.59.13.89.17v13.39a3.75,3.75,0,0,0,3.73,3.74h7v58.39a9.78,9.78,0,0,0,5.65,8.84,9.79,9.79,0,0,0,9.27,6.72h0a9.79,9.79,0,0,0,9.76-9.76V296.43h4.53a3.75,3.75,0,0,0,3.73-3.74V277.53a9.78,9.78,0,0,0,5.87-12.27l-5.87-17.38V226a21.91,21.91,0,0,0-12-19.5,22,22,0,0,0,13.24-6.45,4.23,4.23,0,0,0,1.24.18h5.08v64.2a9.79,9.79,0,0,0,9.76,9.76h0a9.81,9.81,0,0,0,9.26-6.67,9.78,9.78,0,0,0,9.25,6.67h0a9.79,9.79,0,0,0,9.76-9.76v-64.2H244a4.46,4.46,0,0,0,4.44-4.44v-3.23q.36,0,.72,0h0a5.89,5.89,0,0,0,5.18-6.49Z"/><path class="cls-3" d="M319.06,128.91a25.67,25.67,0,0,0-2.48-10.49l-.21-.85a9.71,9.71,0,0,0-4.83-6.32,26,26,0,0,0-14.08-7.37,22.11,22.11,0,1,0-12.45,0,26.11,26.11,0,0,0-17.21,11,9.77,9.77,0,0,0-6.54,8.52l-3.92,54.35a9.8,9.8,0,0,0,5.92,9.67v3.9a4.46,4.46,0,0,0,4.44,4.44H273V260a9.79,9.79,0,0,0,9.76,9.76h0A9.79,9.79,0,0,0,292.5,260v-1.17a9.78,9.78,0,0,0,9.73,9.09h0a9.79,9.79,0,0,0,9.76-9.76V195.76h2.64a4.46,4.46,0,0,0,4.45-4.44v-8.73a10.13,10.13,0,0,0,2.61-.25h0a9.8,9.8,0,0,0,7.25-11.75Z"/><path class="cls-3" d="M432.35,305.38v-.79a25.6,25.6,0,0,0-20.29-25,22.12,22.12,0,1,0-18.61-39.29v-62.5h4.43a3.84,3.84,0,0,0,3.83-3.83v-5.54a9.76,9.76,0,0,0,4.08-8.65l-.47-6.49a9.73,9.73,0,0,0,4.93-2.24h0a9.79,9.79,0,0,0,1.05-13.76l-7.78-9.07-1.64-22.78a9.71,9.71,0,0,0-1.1-3.85,22.62,22.62,0,0,0-14.44-14.9,22.13,22.13,0,1,0-9.29-1A22.5,22.5,0,0,0,356.86,108v66a3.84,3.84,0,0,0,3.83,3.83h3V242a9.78,9.78,0,0,0,9.76,9.75,9.65,9.65,0,0,0,5.12-1.46,9.66,9.66,0,0,0,5.13,1.46h0a9.69,9.69,0,0,0,1.63-.14,22.17,22.17,0,0,0,14.76,27.77,25.66,25.66,0,0,0-19.43,15.28l-27.2,47.11a8,8,0,0,0,2.92,10.9h0a8,8,0,0,0,10.9-2.92l11.37-19.69V367a4.37,4.37,0,0,0,4.36,4.36h1.1v64.2a9.79,9.79,0,0,0,9.76,9.76h0a9.78,9.78,0,0,0,9.75-9.76v-64.2h4.7v64.2a9.78,9.78,0,0,0,9.75,9.76h0a9.79,9.79,0,0,0,9.76-9.76v-64.2H428a4.37,4.37,0,0,0,4.36-4.36v-4a7.85,7.85,0,0,0,3.13,0h0a8,8,0,0,0,6.27-9.29Z"/><path class="cls-3" d="M556.59,230.73l-3.92-54.35a9.69,9.69,0,0,0-3.74-7,26.13,26.13,0,0,0-18.17-12.54,22.1,22.1,0,1,0-12.45,0,25.8,25.8,0,0,0-11.08,4.75,9.76,9.76,0,0,0-9.87,7.51l-6,25.2a22,22,0,0,0-9.08-2,22.33,22.33,0,0,0-4.59.48v-5.35h4.1a3.89,3.89,0,0,0,3.88-3.89V118A22.8,22.8,0,0,0,469,96.06a22.12,22.12,0,1,0-26.53-33.81l-3.66-8.59A9.79,9.79,0,0,0,426,48.5h0a9.79,9.79,0,0,0-5.16,12.8l20.82,48.9a22.58,22.58,0,0,0-1.38,7.78V162a9.8,9.8,0,0,0,0,5.37v16.21a3.9,3.9,0,0,0,3.89,3.89h2.28V251.7a9.79,9.79,0,0,0,9.76,9.76h0a9.68,9.68,0,0,0,5.89-2,9.64,9.64,0,0,0,3.53,1.7v63.31a3.74,3.74,0,0,0,3.73,3.73h4.54v64.2a9.79,9.79,0,0,0,9.76,9.76h0a9.81,9.81,0,0,0,9.27-6.72,9.79,9.79,0,0,0,5.64-8.84v-58.4h7a3.74,3.74,0,0,0,3.74-3.73V320a9.72,9.72,0,0,0,6.7,2.69h0a9.8,9.8,0,0,0,9.25-6.67,9.81,9.81,0,0,0,9.25,6.67h0a9.79,9.79,0,0,0,9.76-9.76v-64.2h3.82a4.46,4.46,0,0,0,4.45-4.44v-4.93A9.79,9.79,0,0,0,556.59,230.73Zm-59.9,3.12V238a21.74,21.74,0,0,0-9.08-2.07,21.78,21.78,0,0,0,5.08-1.94A9.6,9.6,0,0,0,496.69,233.85Zm-14.52,2.76a22.05,22.05,0,0,0-4.46,1.65v-2.13A21.84,21.84,0,0,0,482.17,236.61Z"/></g><rect class="cls-4" x="428.14" y="52.33" width="18.81" height="71.34" rx="9.41" transform="translate(0.5 178.44) rotate(-23.06)"/><path class="cls-5" d="M441.08,100.24h36.33a3.74,3.74,0,0,1,3.74,3.74v63.28a21.91,21.91,0,0,1-21.91,21.91h0a21.91,21.91,0,0,1-21.91-21.91V104a3.74,3.74,0,0,1,3.74-3.74Z" transform="translate(918.5 289.42) rotate(-180)"/><path class="cls-6" d="M452.7,189.13h0a9.41,9.41,0,0,1,9.41,9.41v61.93a0,0,0,0,1,0,0H443.29a0,0,0,0,1,0,0V198.54A9.41,9.41,0,0,1,452.7,189.13Z" transform="translate(905.39 449.6) rotate(180)"/><path class="cls-7" d="M464,189.13h0a9.41,9.41,0,0,1,9.41,9.41v61.93a0,0,0,0,1,0,0H454.64a0,0,0,0,1,0,0V198.54a9.41,9.41,0,0,1,9.41-9.41Z" transform="translate(928.1 449.6) rotate(-180)"/><rect class="cls-8" x="447.89" y="107.68" width="18.81" height="71.34" rx="9.41" transform="translate(813.66 463.76) rotate(-155.45)"/><circle class="cls-9" cx="456.19" cy="81.62" r="21.32"/><rect class="cls-10" x="383.45" y="101.29" width="18.81" height="71.34" rx="9.41" transform="translate(794.55 245.34) rotate(175.88)"/><path class="cls-11" d="M360.65,90.91H396.5a3.69,3.69,0,0,1,3.69,3.69v63.62a21.62,21.62,0,0,1-21.62,21.62h0A21.62,21.62,0,0,1,357,158.22V94.61a3.69,3.69,0,0,1,3.69-3.69Z" transform="translate(757.16 270.76) rotate(-180)"/><path class="cls-12" d="M382.82,179.8h0a9.41,9.41,0,0,1,9.41,9.41v61.93a0,0,0,0,1,0,0H373.42a0,0,0,0,1,0,0V189.21A9.41,9.41,0,0,1,382.82,179.8Z" transform="translate(765.65 430.94) rotate(-180)"/><circle class="cls-13" cx="383.21" cy="70.81" r="21.32"/><path class="cls-14" d="M372.94,179.8h0a9.41,9.41,0,0,1,9.41,9.41v61.93a0,0,0,0,1,0,0H363.54a0,0,0,0,1,0,0V189.21a9.41,9.41,0,0,1,9.41-9.41Z" transform="translate(745.89 430.94) rotate(-180)"/><rect class="cls-15" x="375.79" y="91.32" width="18.81" height="71.34" rx="9.41" transform="translate(760.22 -27.49) rotate(139.37)"/><path class="cls-16" d="M235.1,201.41h0a9.41,9.41,0,0,1,9.41,9.41v61.93a0,0,0,0,1,0,0H225.7a0,0,0,0,1,0,0V210.81a9.41,9.41,0,0,1,9.41-9.41Z" transform="translate(470.21 474.15) rotate(180)"/><rect class="cls-17" x="243.57" y="122.9" width="11.31" height="71.34" rx="5.66" transform="translate(514.48 288.57) rotate(173.64)"/><path class="cls-18" d="M217.27,201.41h0a9.41,9.41,0,0,1,9.41,9.41v61.93a0,0,0,0,1,0,0H207.86a0,0,0,0,1,0,0V210.81a9.41,9.41,0,0,1,9.41-9.41Z" transform="translate(434.54 474.15) rotate(-180)"/><path class="cls-19" d="M203,112.52H248.2a4.28,4.28,0,0,1,4.28,4.28v59.58a25.07,25.07,0,0,1-25.07,25.07h-3.67a25.07,25.07,0,0,1-25.07-25.07V116.8A4.28,4.28,0,0,1,203,112.52Z" transform="translate(451.15 313.97) rotate(-180)"/><rect class="cls-20" x="191.04" y="121.08" width="18.81" height="71.34" rx="9.41" transform="translate(359.36 355.49) rotate(-166.67)"/><circle class="cls-21" cx="230.19" cy="94.78" r="21.32"/><rect class="cls-22" x="305.43" y="113.81" width="18.81" height="71.34" rx="9.41" transform="translate(-25.98 76.61) rotate(-13.33)"/><path class="cls-23" d="M291.8,108.2h3.67a25.07,25.07,0,0,1,25.07,25.07v59.58a4.28,4.28,0,0,1-4.28,4.28H271a4.28,4.28,0,0,1-4.28-4.28V133.27A25.07,25.07,0,0,1,291.8,108.2Z"/><path class="cls-24" d="M294.9,195.32h18.81a0,0,0,0,1,0,0v61.93a9.41,9.41,0,0,1-9.41,9.41h0a9.41,9.41,0,0,1-9.41-9.41V195.32a0,0,0,0,1,0,0Z"/><path class="cls-25" d="M276.11,197.08h18.81a0,0,0,0,1,0,0V259a9.41,9.41,0,0,1-9.41,9.41h0a9.41,9.41,0,0,1-9.41-9.41V197.08A0,0,0,0,1,276.11,197.08Z"/><rect class="cls-26" x="262.9" y="118.58" width="18.81" height="71.34" rx="9.41" transform="translate(11.79 -19.17) rotate(4.12)"/><circle class="cls-27" cx="293.74" cy="88.1" r="21.32"/><circle class="cls-28" cx="347.09" cy="211.53" r="114.42"/><g class="cls-29"><ellipse class="cls-30" cx="348.43" cy="296.6" rx="130.24" ry="57.95"/><path class="cls-31" d="M218.37,301V333.2s3.75,49.43,135,49.43c113.05,0,125.15-50.2,125.15-50.2V294.82s-9.37,56.84-123.14,58.23S218.37,301,218.37,301Z"/></g><path class="cls-32" d="M252.19,289.25s79.62,85.86,186.18,2.32C438.37,291.57,379.05,234.81,252.19,289.25Z"/><circle class="cls-33" cx="348.43" cy="212.26" r="83.66"/><path class="cls-34" d="M317.36,246.45c.37.51.74,1,1.12,1.49l.19-.15c-.22-.28-.43-.57-.65-.86l0,0Z"/><path class="cls-34" d="M383,255.6l-.15-.19c-.78.62-1.59,1.21-2.4,1.78l.14.21C381.4,256.83,382.21,256.22,383,255.6Z"/><path class="cls-34" d="M316.9,245.37l-.2.15.1.14.75.62C317.33,246,317.11,245.68,316.9,245.37Z"/><path class="cls-34" d="M309.93,229l-.24,0c.2,1,.44,2,.7,2.93l.24-.07C310.37,230.92,310.13,229.94,309.93,229Z"/><path class="cls-34" d="M311.29,234.81c.33.94.69,1.89,1.08,2.81l.23-.1c-.38-.92-.75-1.86-1.07-2.79Z"/><path class="cls-34" d="M313.64,240.34c.45.89.94,1.78,1.44,2.64l.22-.13c-.51-.85-1-1.74-1.44-2.62Z"/><path class="cls-34" d="M400.09,218.82c0,1,0,2,0,3h.25c.05-1,.06-2,0-3Z"/><path class="cls-34" d="M399.64,227.8c.17-1,.32-2,.43-3l-.25,0c-.11,1-.26,2-.43,3Z"/><path class="cls-34" d="M391.14,246.83c-.59.8-1.22,1.59-1.86,2.34l.19.17c.65-.77,1.28-1.56,1.87-2.36Z"/><path class="cls-34" d="M399,230.74l-.24-.06c-.24,1-.52,1.94-.82,2.88l.24.08C398.49,232.69,398.77,231.72,399,230.74Z"/><path class="cls-34" d="M395.76,239.14l.22.1c.43-.9.83-1.83,1.2-2.76l-.23-.09C396.58,237.31,396.18,238.24,395.76,239.14Z"/><path class="cls-34" d="M392.85,244.37l.21.13c.54-.84,1.06-1.7,1.55-2.58l-.22-.12C393.9,242.67,393.39,243.53,392.85,244.37Z"/><path class="cls-34" d="M385.29,253.66c.74-.67,1.47-1.38,2.16-2.09l-.18-.18c-.69.72-1.41,1.42-2.15,2.08Z"/><path class="cls-34" d="M350.4,174.34l0-.25c-1,.09-2,.21-3,.36l0,.25C348.41,174.55,349.41,174.43,350.4,174.34Z"/><path class="cls-34" d="M344.5,175.26l-.06-.24c-1,.22-1.95.47-2.91.75l.07.25C342.55,175.73,343.53,175.48,344.5,175.26Z"/><path class="cls-34" d="M356.39,173.93c-1,0-2,0-3,0v.25c1,0,2,0,3,0Z"/><path class="cls-34" d="M368.71,164.17c-.91-.41-1.84-.81-2.78-1.17l-.09.24c.93.35,1.86.75,2.77,1.16Z"/><path class="cls-34" d="M360.13,161.44c1,.24,1.94.51,2.88.81l.08-.24c-.95-.3-1.93-.57-2.9-.81Z"/><path class="cls-34" d="M374,167c-.85-.53-1.73-1-2.61-1.5l-.12.22c.88.47,1.75,1,2.6,1.49Z"/><path class="cls-34" d="M354.25,160.36c1,.12,2,.27,3,.45l0-.25c-1-.18-2-.33-3-.45Z"/><path class="cls-34" d="M348.27,160c1,0,2,0,3,.08v-.25c-1-.05-2-.08-3-.08Z"/><path class="cls-34" d="M303.72,228c-.39-.91-.77-1.85-1.1-2.78l-.24.08c.34.94.71,1.89,1.11,2.8Z"/><path class="cls-34" d="M306.43,233.3c-.51-.86-1-1.74-1.44-2.62l-.22.11c.45.89.94,1.78,1.44,2.64Z"/><path class="cls-34" d="M316.14,245.41l-.37-.48-.08.09C315.84,245.16,316,245.28,316.14,245.41Z"/><path class="cls-34" d="M383.48,242.36c-.69.72-1.41,1.42-2.14,2.1l.17.18c.74-.68,1.46-1.39,2.15-2.11Z"/><path class="cls-34" d="M387.35,237.8c-.59.79-1.22,1.58-1.86,2.34l.19.16c.64-.76,1.27-1.55,1.87-2.35Z"/><path class="cls-34" d="M318.14,246.77l-.59-.49c.15.22.31.43.47.65Z"/><path class="cls-34" d="M317.36,246.45c-.19-.26-.38-.52-.56-.79l-.48-.42c.27.35.53.68.81,1A2.11,2.11,0,0,0,317.36,246.45Z"/><path class="cls-34" d="M311.47,240.74c.66.75,1.35,1.49,2,2.2l.17-.17c-.69-.71-1.38-1.45-2-2.2Z"/><path class="cls-34" d="M389.28,235.49c.55-.84,1.08-1.7,1.58-2.57l-.22-.12c-.49.86-1,1.72-1.57,2.55Z"/><path class="cls-34" d="M392.05,230.15l.22.11c.45-.9.87-1.82,1.25-2.74l-.23-.1C392.91,228.34,392.49,229.26,392.05,230.15Z"/><path class="cls-34" d="M394.6,224.71c.33-1,.63-1.92.9-2.88l-.24-.07c-.27,1-.57,1.92-.9,2.86Z"/><path class="cls-34" d="M307.81,236c.56.83,1.15,1.65,1.76,2.44l.2-.15c-.61-.79-1.19-1.61-1.75-2.43Z"/><path class="cls-34" d="M337.59,161l-1.23.29.06.25c1-.25,1.95-.46,2.93-.65l-.05-.24-.91.18-.74.32Z"/><path class="cls-34" d="M320.23,169c.81-.58,1.64-1.14,2.49-1.66l-.14-.21c-.84.52-1.69,1.08-2.5,1.66Z"/><path class="cls-34" d="M342.3,160.39c1-.12,2-.22,3-.28v-.25c-1,.06-2,.16-3,.28Z"/><path class="cls-34" d="M330.72,163.32c.93-.36,1.88-.7,2.83-1l-.08-.24c-1,.31-1.91.64-2.84,1Z"/><path class="cls-34" d="M325.3,165.83c.88-.47,1.78-.92,2.67-1.34l-.1-.23c-.9.42-1.81.87-2.69,1.35Z"/><path class="cls-34" d="M318,247l0,0c-.16-.22-.32-.43-.47-.65l-.75-.62c.18.27.37.53.56.79Z"/><path class="cls-34" d="M343.76,165.62l0-.25c-1,.07-2,.17-3,.3l0,.25C341.77,165.79,342.77,165.68,343.76,165.62Z"/><path class="cls-34" d="M349.76,165.36c-1-.07-2-.1-3-.1v.25c1,0,2,0,3,.1Z"/><path class="cls-34" d="M361.52,167.77c-.95-.33-1.91-.63-2.87-.9l-.07.24c.95.27,1.92.57,2.85.9Z"/><path class="cls-34" d="M309.56,234.12c-.45-.71-.9-1.42-1.32-2.15l-.21.12c.49.87,1,1.73,1.58,2.56l0,0c-.07-.15-.15-.3-.21-.45Z"/><path class="cls-34" d="M305.4,226.68c.38.93.79,1.85,1.22,2.75l.23-.11c-.43-.89-.84-1.81-1.22-2.74Z"/><path class="cls-34" d="M317.54,243.66l.16-.18c-.75-.65-1.49-1.34-2.19-2l-.18.18C316,242.32,316.78,243,317.54,243.66Z"/><path class="cls-34" d="M355.72,166.17c-1-.21-2-.38-3-.51l0,.25c1,.13,2,.3,2.95.5Z"/><path class="cls-34" d="M383.77,234.47c-.55.83-1.13,1.65-1.74,2.44l.2.15c.61-.8,1.19-1.62,1.75-2.45Z"/><path class="cls-34" d="M311.36,237.1c.6.8,1.25,1.58,1.91,2.33l.18-.17c-.65-.74-1.29-1.52-1.89-2.31Z"/><path class="cls-34" d="M337.78,166.18c-1,.21-2,.44-2.92.71l.06.24c1-.26,1.94-.5,2.91-.7Z"/><path class="cls-34" d="M332,167.79c-.95.33-1.89.7-2.81,1.09l.1.23c.91-.39,1.85-.75,2.79-1.08Z"/><path class="cls-34" d="M386.73,229.27c-.44.9-.9,1.79-1.39,2.65l.21.12c.5-.86,1-1.76,1.4-2.66Z"/><path class="cls-34" d="M307.27,228.56c.31,1,.65,1.91,1,2.84l.24-.09c-.36-.92-.69-1.87-1-2.82Z"/><path class="cls-34" d="M369.92,157c-1-.18-2-.33-3-.46l0,.25c1,.13,2,.28,3,.46Z"/><path class="cls-34" d="M355,156.6c1-.1,2-.16,3-.2v-.25c-1,0-2,.1-3,.2Z"/><path class="cls-34" d="M343.25,159c.95-.3,1.92-.58,2.88-.83l-.07-.24c-1,.25-1.93.53-2.89.83Z"/><path class="cls-34" d="M361,156.37c1,0,2,.06,3,.13l0-.25c-1-.07-2-.12-3-.13Z"/><path class="cls-34" d="M327.3,167.1c.8-.59,1.63-1.16,2.47-1.71l-.14-.2c-.84.54-1.67,1.12-2.47,1.71Z"/><path class="cls-34" d="M337.59,161l.8-.17c.67-.28,1.35-.56,2-.82l-.09-.24c-.93.36-1.87.74-2.78,1.15Z"/><path class="cls-34" d="M332.32,163.82c.86-.49,1.74-1,2.63-1.43l-.12-.22c-.89.45-1.78.94-2.64,1.44Z"/><path class="cls-34" d="M349,157.47c1-.2,2-.37,2.95-.52l0-.24c-1,.14-2,.32-3,.52Z"/><path class="cls-34" d="M309.56,234.12l.26.39-.18.12c.34.76.71,1.52,1.09,2.26l.22-.11c-.45-.89-.89-1.79-1.3-2.7Z"/><path class="cls-34" d="M316.32,245.24l-.64-.83-.2.14.29.38.09-.09Z"/><path class="cls-34" d="M367.66,266.19l0,.12.46-.2Z"/><path class="cls-34" d="M379.25,263.25l.09.24c.93-.35,1.87-.73,2.79-1.13l-.1-.23C381.12,262.53,380.18,262.91,379.25,263.25Z"/><path class="cls-34" d="M390,257.9l.13.21c.84-.54,1.68-1.11,2.49-1.7l-.15-.2C391.61,256.79,390.78,257.36,390,257.9Z"/><path class="cls-34" d="M384.74,260.86l.11.23c.9-.45,1.79-.93,2.66-1.42l-.13-.22C386.52,259.94,385.63,260.42,384.74,260.86Z"/><path class="cls-34" d="M394.8,254.39l.15.19c.78-.63,1.55-1.29,2.29-2l-.17-.18C396.33,253.1,395.57,253.76,394.8,254.39Z"/><path class="cls-34" d="M414.74,218.64l.25,0c.13-1,.23-2,.31-3l-.25,0C415,216.65,414.87,217.65,414.74,218.64Z"/><path class="cls-34" d="M413.65,224.52l.24.06c.24-1,.45-2,.63-2.94l-.24,0C414.09,222.57,413.88,223.56,413.65,224.52Z"/><path class="cls-34" d="M411.92,230.25l.24.09c.33-.94.65-1.9.94-2.86l-.24-.07C412.58,228.36,412.26,229.32,411.92,230.25Z"/><path class="cls-34" d="M399.24,250.36l.17.18c.71-.71,1.4-1.45,2.06-2.2l-.18-.16C400.62,248.92,399.94,249.66,399.24,250.36Z"/><path class="cls-34" d="M409.81,235.88c.08-.18.16-.35.25-.52.35-.73.68-1.48,1-2.22l-.23-.1c-.32.74-.65,1.48-1,2.21-.08.17-.16.35-.25.52Z"/><path class="cls-34" d="M406.67,241l.21.13c.53-.84,1.05-1.72,1.54-2.59l-.22-.12C407.71,239.29,407.2,240.16,406.67,241Z"/><path class="cls-34" d="M403.21,245.88l.2.16c.62-.78,1.23-1.59,1.8-2.41l-.2-.14C404.43,244.3,403.83,245.1,403.21,245.88Z"/><path class="cls-34" d="M386.85,163.05c-.88-.48-1.78-1-2.68-1.38l-.1.22c.89.44,1.79.9,2.65,1.38Z"/><path class="cls-34" d="M381.43,160.43c-.92-.39-1.86-.76-2.8-1.09l-.08.23c.93.34,1.87.7,2.79,1.09Z"/><path class="cls-34" d="M317.34,246.92l.19-.16c-.14-.16-.27-.33-.4-.5-.34-.28-.67-.56-1-.85C316.53,245.93,316.93,246.43,317.34,246.92Z"/><path class="cls-34" d="M375.77,158.4c-1-.28-1.93-.55-2.9-.78l-.06.24c1,.24,1.94.5,2.89.78Z"/><path class="cls-34" d="M312.17,239.53c.51.87,1,1.73,1.59,2.56L314,242c-.55-.83-1.08-1.68-1.58-2.54Z"/><path class="cls-34" d="M317.13,246.26c-.28-.34-.54-.67-.81-1l-.46-.4-.09.09.37.48C316.46,245.7,316.79,246,317.13,246.26Z"/><path class="cls-34" d="M337.65,161.11l.74-.32-.8.17Z"/><path class="cls-34" d="M309.56,234.12l-.13.06c.06.15.14.3.21.45l.18-.12Z"/><path class="cls-34" d="M373.37,160.28c-.87-.49-1.77-.95-2.67-1.39l-.11.22c.9.44,1.79.91,2.66,1.39Z"/><path class="cls-34" d="M316.61,264.12c.88.47,1.78.93,2.68,1.36l.11-.23c-.9-.43-1.8-.88-2.67-1.35Z"/><path class="cls-34" d="M298.29,248.75c.62.78,1.27,1.56,1.93,2.31l.19-.16c-.66-.75-1.3-1.52-1.92-2.3Z"/><path class="cls-34" d="M399.91,232.7l.23.09c.35-.93.68-1.89,1-2.84l-.24-.08C400.59,230.82,400.26,231.77,399.91,232.7Z"/><path class="cls-34" d="M402.41,224.08c-.2,1-.43,1.95-.68,2.92l.24.06c.25-1,.49-1.95.69-2.93Z"/><path class="cls-34" d="M398.79,235.48c-.28.63-.57,1.27-.87,1.89-.13.28-.26.55-.4.82l.23.12c.13-.28.27-.55.4-.83.3-.63.59-1.27.86-1.9Z"/><path class="cls-34" d="M368,157.64c-.92-.4-1.86-.77-2.79-1.12l-.09.24c.93.34,1.87.72,2.78,1.11Z"/><path class="cls-34" d="M306.67,257.38c.76.64,1.55,1.27,2.35,1.87l.15-.2c-.79-.6-1.58-1.23-2.34-1.87Z"/><path class="cls-34" d="M311.47,261c.82.56,1.68,1.11,2.53,1.62l.13-.21c-.85-.51-1.7-1.06-2.52-1.62Z"/><path class="cls-34" d="M378.34,163.65l.14-.2c-.82-.57-1.66-1.13-2.51-1.65l-.13.21C376.68,162.53,377.52,163.09,378.34,163.65Z"/><path class="cls-34" d="M302.26,253.28c.69.71,1.42,1.42,2.15,2.1l.17-.18c-.73-.68-1.45-1.38-2.14-2.1Z"/><path class="cls-34" d="M294.81,243.84c.54.85,1.1,1.69,1.68,2.5l.2-.14c-.57-.81-1.13-1.65-1.67-2.49Z"/><path class="cls-34" d="M291.85,238.61c.44.89.92,1.79,1.41,2.65l.22-.12c-.49-.86-1-1.75-1.41-2.64Z"/><path class="cls-34" d="M387.24,252.86l.18.17c.7-.72,1.38-1.47,2-2.22l-.19-.17C388.61,251.39,387.93,252.14,387.24,252.86Z"/><path class="cls-34" d="M338.58,153.44l0-.25c-1,.11-2,.24-3,.4l0,.24C336.59,153.68,337.59,153.55,338.58,153.44Z"/><path class="cls-34" d="M332.66,154.37l-.05-.24c-1,.2-2,.44-2.92.69l.06.24C330.71,154.81,331.69,154.58,332.66,154.37Z"/><path class="cls-34" d="M367.68,266.31l-.06,0,.1.23.49-.21-.51.08Z"/><path class="cls-34" d="M344.56,153.12v-.25c-.55,0-1.09,0-1.64,0l-1.37,0v.25C342.56,153.15,343.56,153.12,344.56,153.12Z"/><path class="cls-34" d="M350.56,153.15c-1-.1-2-.17-3-.22v.25c1,0,2,.12,3,.22Z"/><path class="cls-34" d="M356.51,154.05c-1-.2-2-.37-3-.52l0,.24c1,.15,2,.33,2.95.53Z"/><path class="cls-34" d="M310.83,163.84l-.15-.2c-.82.57-1.63,1.18-2.42,1.79l.16.2C309.2,165,310,164.42,310.83,163.84Z"/><path class="cls-34" d="M391.17,248.33l.2.15c.61-.79,1.21-1.6,1.78-2.42l-.2-.14C392.38,246.73,391.78,247.54,391.17,248.33Z"/><path class="cls-34" d="M362.33,155.55c-.95-.3-1.93-.57-2.89-.82l-.06.24c1,.25,1.93.52,2.87.82Z"/><path class="cls-34" d="M315.9,160.66l-.12-.22c-.88.49-1.75,1-2.59,1.53l.13.22C314.16,161.66,315,161.14,315.9,160.66Z"/><path class="cls-34" d="M403.59,218.19l-.25,0c-.1,1-.23,2-.39,3l.25,0C403.35,220.19,403.49,219.19,403.59,218.19Z"/><path class="cls-34" d="M394.81,243.55c.53-.84,1.05-1.71,1.54-2.58l-.22-.13c-.49.87-1,1.74-1.53,2.58Z"/><path class="cls-34" d="M326.87,155.9l-.07-.24c-.95.3-1.91.63-2.84,1l.08.24C325,156.53,325.93,156.2,326.87,155.9Z"/><path class="cls-34" d="M321.27,158l-.1-.23c-.92.4-1.84.82-2.73,1.27l.11.22C319.44,158.82,320.35,158.4,321.27,158Z"/><path class="cls-34" d="M385.11,255c-.72.68-1.47,1.35-2.23,2l.16.2c.76-.65,1.52-1.33,2.25-2Z"/><path class="cls-34" d="M320.92,266.22c.91.4,1.85.79,2.78,1.14l.09-.23c-.93-.36-1.86-.74-2.77-1.14Z"/><path class="cls-34" d="M353.71,260.94c.61.1,1.23.19,1.84.27l0-.25-1.07-.15v.05Z"/><path class="cls-34" d="M406.6,221l-.25,0c-.11,1-.26,2-.44,3l.25,0C406.34,223,406.49,222,406.6,221Z"/><path class="cls-34" d="M352.62,260.5l0,.25.17,0,1-.09Z"/><path class="cls-34" d="M336.09,253.82,336,254c.84.55,1.7,1.08,2.57,1.57l.12-.22C337.78,254.89,336.92,254.37,336.09,253.82Z"/><path class="cls-34" d="M341.18,257c.9.43,1.83.84,2.76,1.22L344,258c-.92-.37-1.84-.78-2.74-1.21Z"/><path class="cls-34" d="M346.76,259.25c.94.31,1.91.59,2.88.84l.06-.24c-1-.25-1.92-.53-2.86-.84Z"/><path class="cls-34" d="M392.69,182.92c.72.69,1.42,1.41,2.09,2.14l.18-.17c-.67-.74-1.38-1.46-2.1-2.15Z"/><path class="cls-34" d="M398.72,189.59c-.57-.82-1.18-1.63-1.8-2.41l-.2.15c.62.78,1.22,1.59,1.79,2.4Z"/><path class="cls-34" d="M406.16,209.05c.15,1,.26,2,.34,3l.25,0c-.08-1-.2-2-.34-3Z"/><path class="cls-34" d="M400.35,192.11l-.21.13c.51.85,1,1.73,1.46,2.61l.22-.11C401.36,193.85,400.87,193,400.35,192.11Z"/><path class="cls-34" d="M404,200.35l.24-.09c-.34-.94-.71-1.88-1.11-2.8l-.23.1C403.28,198.47,403.65,199.41,404,200.35Z"/><path class="cls-34" d="M405.63,206.1l.24,0c-.21-1-.45-2-.73-2.92l-.24.07C405.17,204.16,405.42,205.13,405.63,206.1Z"/><path class="cls-34" d="M406.85,218c0-1,.06-2,0-3h-.25c0,1,0,2,0,3Z"/><path class="cls-34" d="M326.1,186.57l-.19-.16c-.64.77-1.27,1.57-1.85,2.37l.2.15C324.84,188.13,325.46,187.34,326.1,186.57Z"/><path class="cls-34" d="M322.58,191.41l-.22-.14c-.53.85-1,1.72-1.52,2.6l.22.11C321.53,193.11,322,192.25,322.58,191.41Z"/><path class="cls-34" d="M330.05,182.05c-.73.68-1.45,1.39-2.14,2.12l.18.17c.69-.72,1.4-1.43,2.13-2.1Z"/><path class="cls-34" d="M331.86,166.44c-.93.35-1.87.73-2.79,1.14l.1.23c.91-.4,1.85-.78,2.78-1.13Z"/><path class="cls-34" d="M323.86,170.57c.85-.51,1.73-1,2.61-1.46l-.11-.22c-.89.46-1.77,1-2.63,1.47Z"/><path class="cls-34" d="M337.62,164.7c-1,.23-1.95.49-2.9.78l.07.24c.95-.29,1.92-.55,2.89-.78Z"/><path class="cls-34" d="M318.94,174c.78-.61,1.59-1.21,2.41-1.77l-.14-.21c-.83.57-1.64,1.17-2.43,1.78Z"/><path class="cls-34" d="M314.47,178c.7-.71,1.43-1.4,2.17-2.06l-.16-.19q-1.12,1-2.19,2.07Z"/><path class="cls-34" d="M331,257.51c-.93-.36-1.85-.76-2.75-1.19l-.11.23c.91.42,1.84.83,2.76,1.19Z"/><path class="cls-34" d="M336.68,259.37c-1-.25-1.93-.54-2.87-.84l-.08.23c.95.31,1.92.6,2.88.85Z"/><path class="cls-34" d="M352.11,261.07l-.6-.08v.12Z"/><path class="cls-34" d="M397.58,211.31c0,1,0,2,0,3h.25c0-1,.05-2,0-3Z"/><path class="cls-34" d="M397.1,205.34c.14,1,.25,2,.33,3l.25,0c-.08-1-.19-2-.34-3Z"/><path class="cls-34" d="M354.49,260.61l-.77.08.79.12Z"/><path class="cls-34" d="M353.71,260.94l-1-.16-.63,0,1.28.15Z"/><path class="cls-34" d="M345.5,261.06c1,.07,2,.11,3,.12v-.25c-1,0-2-.05-3-.12Z"/><path class="cls-34" d="M396.83,202.34c-.21-1-.44-2-.7-2.93l-.24.07c.26,1,.49,1.94.69,2.91Z"/><path class="cls-34" d="M395,196.61l.24-.08c-.32-.95-.68-1.9-1.06-2.82l-.23.1C394.34,194.72,394.69,195.67,395,196.61Z"/><path class="cls-34" d="M393,191c-.44-.9-.91-1.8-1.4-2.67l-.22.12c.49.87,1,1.76,1.39,2.66Z"/><path class="cls-34" d="M339.54,260.27c1,.19,2,.36,3,.49l0-.25c-1-.13-2-.29-3-.48Z"/><path class="cls-34" d="M307.58,186.17c-.22.36-.45.72-.66,1.08l.21.13c.51-.86,1.06-1.71,1.62-2.53l-.21-.14-.51.78c-.1.25-.21.49-.3.74Z"/><path class="cls-34" d="M301,204.12c.17-1,.37-2,.59-2.93l-.24-.06c-.23,1-.43,2-.59,3Z"/><path class="cls-34" d="M310.51,182.44c.61-.78,1.25-1.56,1.91-2.31l-.19-.16c-.66.75-1.3,1.53-1.92,2.31Z"/><path class="cls-34" d="M304.39,192.69c.4-.91.84-1.82,1.29-2.7l-.22-.11c-.46.88-.9,1.8-1.3,2.71Z"/><path class="cls-34" d="M302.33,198.3c.28-1,.6-1.91.94-2.84l-.23-.08c-.34.93-.66,1.89-1,2.85Z"/><path class="cls-34" d="M354.52,260.86v-.05l-.79-.12-1,.09,1,.16Z"/><path class="cls-34" d="M315.24,185.1l-.19-.16c-.66.75-1.3,1.54-1.9,2.33l.2.15C314,186.63,314.58,185.85,315.24,185.1Z"/><path class="cls-34" d="M319.3,180.68c-.75.66-1.49,1.35-2.2,2.06l.18.17c.7-.7,1.44-1.39,2.18-2Z"/><path class="cls-34" d="M329.32,174.07c-.9.44-1.8.91-2.67,1.4l.13.21c.86-.48,1.75-1,2.65-1.38Z"/><path class="cls-34" d="M339.47,257.73c-.82-.18-1.64-.37-2.45-.59l-.07.24c1,.26,1.95.5,2.93.7v0l-.47-.17Z"/><path class="cls-34" d="M331.27,255.41c.92.39,1.87.75,2.81,1.08l.08-.24c-.94-.32-1.88-.68-2.79-1.07Z"/><path class="cls-34" d="M351.86,258.84l0-.25c-1,.07-2,.11-3,.12V259C349.85,259,350.87,258.91,351.86,258.84Z"/><path class="cls-34" d="M324.08,177c-.83.55-1.66,1.13-2.45,1.74l.15.2c.79-.61,1.61-1.19,2.44-1.73Z"/><path class="cls-34" d="M392.21,205.52c.19,1,.36,2,.49,2.95l.25,0c-.13-1-.3-2-.5-3Z"/><path class="cls-34" d="M342.85,258.57c1,.13,2,.23,3,.3v-.25c-1-.07-2-.17-3-.3Z"/><path class="cls-34" d="M311.41,189.73c-.55.83-1.08,1.7-1.57,2.57l.22.12c.49-.86,1-1.72,1.56-2.55Z"/><path class="cls-34" d="M308.45,195c-.44.91-.84,1.83-1.21,2.76l.23.09c.37-.92.77-1.84,1.2-2.74Z"/><path class="cls-34" d="M390.63,199.75c.32.94.62,1.9.88,2.86l.24-.07c-.26-1-.56-1.93-.89-2.87Z"/><path class="cls-34" d="M333.93,255.42c.89.46,1.8.89,2.71,1.3l.1-.23c-.9-.4-1.81-.84-2.7-1.29Z"/><path class="cls-34" d="M327.65,160.51c-.82.57-1.64,1.17-2.42,1.78l.15.2c.78-.61,1.6-1.2,2.41-1.77Z"/><path class="cls-34" d="M316.78,170.8c.64-.76,1.3-1.52,2-2.25l-.18-.17c-.68.73-1.35,1.49-2,2.26Z"/><path class="cls-34" d="M310.19,180.77c.45-.88.94-1.77,1.44-2.62l-.21-.13c-.51.86-1,1.75-1.46,2.63Z"/><path class="cls-34" d="M320.85,166.41c.72-.69,1.46-1.37,2.21-2l-.16-.19c-.76.65-1.5,1.34-2.22,2Z"/><path class="cls-34" d="M304.65,197.79c.15-1,.33-2,.53-2.95l-.24-.05c-.21,1-.39,2-.54,3Z"/><path class="cls-34" d="M307.58,186.17l.45-.68c.27-.68.55-1.36.85-2l-.22-.11c-.41.91-.8,1.85-1.16,2.78Z"/><path class="cls-34" d="M305.87,191.92c.26-1,.55-1.92.85-2.87l-.23-.08c-.31.95-.6,1.93-.86,2.89Z"/><path class="cls-34" d="M313.22,175.61c.54-.83,1.12-1.66,1.72-2.45l-.21-.15c-.59.8-1.17,1.63-1.72,2.46Z"/><path class="cls-34" d="M339.47,257.73l.46.1,0,.21c.78.29,1.58.57,2.37.83l.07-.24c-.94-.3-1.89-.64-2.82-1Z"/><path class="cls-34" d="M352.12,260.82l-1-.14,0,.25.47.06v-.13Z"/><path class="cls-34" d="M403.24,239.34l.1.08.18-.47Z"/><path class="cls-34" d="M409.36,229.07l.23.11c.41-.91.81-1.84,1.18-2.77l-.24-.09C410.17,227.24,409.77,228.17,409.36,229.07Z"/><path class="cls-34" d="M413.14,217.73l.24.05c.21-1,.4-2,.56-3l-.25,0C413.54,215.76,413.35,216.75,413.14,217.73Z"/><path class="cls-34" d="M411.56,223.5l.23.08c.32-1,.61-1.92.88-2.88l-.24-.06C412.16,221.59,411.87,222.56,411.56,223.5Z"/><path class="cls-34" d="M414.09,211.81l.25,0c.1-1,.18-2,.23-3l-.25,0C414.27,209.82,414.19,210.82,414.09,211.81Z"/><path class="cls-34" d="M402.92,172.43l.2-.16c-.61-.79-1.25-1.57-1.9-2.33l-.19.16C401.68,170.86,402.32,171.64,402.92,172.43Z"/><path class="cls-34" d="M406.31,177.36l.21-.13c-.52-.85-1.07-1.7-1.63-2.52l-.21.14C405.25,175.67,405.79,176.51,406.31,177.36Z"/><path class="cls-34" d="M409.14,182.64l.23-.11c-.43-.9-.88-1.81-1.35-2.69l-.22.12C408.27,180.84,408.72,181.74,409.14,182.64Z"/><path class="cls-34" d="M414.38,205.83h.25c0-1,0-2-.09-3h-.25C414.35,203.83,414.38,204.84,414.38,205.83Z"/><path class="cls-34" d="M411.62,188.11l-.19-.54c-.27-.77-.56-1.53-.86-2.28l-.24.09c.31.75.59,1.51.87,2.27l.18.54Z"/><path class="cls-34" d="M413,194l.25-.06c-.23-1-.48-1.95-.75-2.91l-.24.07C412.55,192,412.8,193,413,194Z"/><path class="cls-34" d="M414,199.85l.25,0c-.12-1-.26-2-.43-3l-.25,0C413.77,197.86,413.91,198.86,414,199.85Z"/><path class="cls-34" d="M343.9,152.83c-1,.27-1.93.58-2.87.91l.08.24c.94-.33,1.9-.64,2.86-.91Z"/><path class="cls-34" d="M338.21,154.8c-.92.38-1.85.79-2.75,1.21l.11.23c.9-.43,1.82-.83,2.74-1.21Z"/><path class="cls-34" d="M354,261.29l0-.25-.65-.07-1.29.1C352.75,261.15,353.39,261.23,354,261.29Z"/><path class="cls-34" d="M332.78,157.37c-.88.48-1.76,1-2.61,1.5l.13.22c.85-.52,1.72-1,2.6-1.5Z"/><path class="cls-34" d="M345.15,259.71c1,.26,2,.49,2.93.69l.05-.25c-1-.2-2-.43-2.92-.68Z"/><path class="cls-34" d="M353.4,261l-1.28-.15-.62,0V261l.6.08Z"/><path class="cls-34" d="M307.73,186.23c.09-.25.2-.49.3-.74l-.45.68Z"/><path class="cls-34" d="M339.47,257.73l-.05.14.47.17,0-.21Z"/><path class="cls-34" d="M332.41,160.39c-1,.28-1.93.58-2.87.91l.08.23c.94-.32,1.9-.62,2.86-.9Z"/><path class="cls-34" d="M365.67,274c.95-.28,1.91-.6,2.85-.93l-.08-.24c-.94.34-1.9.65-2.85.93Z"/><path class="cls-34" d="M341.85,276.05c1,.11,2,.21,3,.27l0-.25c-1-.06-2-.16-3-.27Z"/><path class="cls-34" d="M402.37,192.86l.23-.1c-.41-.91-.85-1.82-1.31-2.71l-.22.12C401.52,191.05,402,192,402.37,192.86Z"/><path class="cls-34" d="M398.05,185c.55.83,1.08,1.69,1.58,2.55l.21-.12c-.5-.87-1-1.73-1.58-2.56Z"/><path class="cls-34" d="M403.54,195.62c.25.64.5,1.29.73,1.95l.3.86.24-.08-.3-.87c-.24-.65-.48-1.31-.74-1.95Z"/><path class="cls-34" d="M326.72,162.35c-.93.37-1.86.77-2.76,1.18l.1.23c.9-.41,1.83-.81,2.75-1.18Z"/><path class="cls-34" d="M353.87,276.23c1-.09,2-.2,3-.34l0-.25c-1,.14-2,.25-3,.34Z"/><path class="cls-34" d="M359.83,275.4c1-.19,2-.41,2.93-.65l-.06-.24c-1,.24-1.95.45-2.92.64Z"/><path class="cls-34" d="M338.31,159.27l-.05-.25c-1,.18-2,.38-2.94.61l.05.25C336.34,159.65,337.33,159.44,338.31,159.27Z"/><path class="cls-34" d="M347.85,276.44c1,0,2,0,3,0v-.25c-1,0-2,0-3,0Z"/><path class="cls-34" d="M335.91,275c1,.21,2,.41,3,.58l0-.25c-1-.17-2-.36-2.94-.58Z"/><path class="cls-34" d="M330.12,273.43c.94.31,1.91.61,2.88.88l.06-.25c-1-.26-1.92-.55-2.86-.87Z"/><path class="cls-34" d="M407.67,216.07h.25c0-1-.07-2-.14-3h-.25C407.6,214.07,407.64,215.07,407.67,216.07Z"/><path class="cls-34" d="M303,180.16l-.2-.16c-.63.77-1.24,1.58-1.83,2.38l.2.15C301.73,181.73,302.34,180.93,303,180.16Z"/><path class="cls-34" d="M299.44,185l-.21-.13c-.54.83-1.08,1.69-1.58,2.56l.22.12C298.37,186.68,298.9,185.83,299.44,185Z"/><path class="cls-34" d="M403.34,239.42l0,.06.24.09.19-.49-.3.41Z"/><path class="cls-34" d="M307,175.7l-.17-.18c-.39.39-.77.78-1.14,1.18l-.93,1,.19.17C305.57,177.14,306.26,176.41,307,175.7Z"/><path class="cls-34" d="M311.24,171.48c-.77.63-1.54,1.29-2.28,2l.17.19c.73-.67,1.5-1.33,2.27-2Z"/><path class="cls-34" d="M316.08,167.91c-.84.55-1.66,1.13-2.47,1.72l.15.2c.8-.58,1.63-1.16,2.46-1.71Z"/><path class="cls-34" d="M290.69,207.13l-.25,0c-.17,1-.32,2-.44,3l.25,0C290.37,209.11,290.52,208.11,290.69,207.13Z"/><path class="cls-34" d="M407.24,210.09l.24,0c-.12-1-.27-2-.44-3l-.25,0C407,208.11,407.11,209.1,407.24,210.09Z"/><path class="cls-34" d="M321.26,164.86c-.89.46-1.77.95-2.63,1.46l.13.21c.85-.5,1.73-1,2.61-1.45Z"/><path class="cls-34" d="M292,201.29l-.24-.07c-.27,1-.52,1.94-.74,2.92l.24.05C291.5,203.22,291.75,202.25,292,201.29Z"/><path class="cls-34" d="M394.72,180l-.19.16c.62.77,1.24,1.57,1.82,2.37l.2-.15C396,181.58,395.35,180.77,394.72,180Z"/><path class="cls-34" d="M406.44,204.14c-.22-1-.47-1.95-.74-2.92l-.24.07c.27,1,.52,1.94.74,2.9Z"/><path class="cls-34" d="M296.42,190.17l-.22-.12c-.46.89-.9,1.8-1.31,2.71l.22.1C295.53,192,296,191.05,296.42,190.17Z"/><path class="cls-34" d="M293.94,195.62l-.23-.1c-.37.93-.72,1.88-1,2.83l.24.08C293.23,197.49,293.58,196.54,293.94,195.62Z"/><path class="cls-34" d="M407.65,219.07c0,1-.09,2-.17,3l.25,0c.08-1,.14-2,.17-3Z"/><path class="cls-34" d="M370.2,272.41c.93-.36,1.86-.75,2.77-1.16l-.1-.23c-.91.41-1.84.8-2.76,1.16Z"/><path class="cls-34" d="M389.68,245.47c.5-.36,1-.73,1.49-1.11l-.16-.2-.86.65,0,0C390,245.06,389.85,245.26,389.68,245.47Z"/><path class="cls-34" d="M398.83,179.84l-.2.16c.62.77,1.22,1.58,1.79,2.4l.2-.14C400.05,181.43,399.45,180.62,398.83,179.84Z"/><path class="cls-34" d="M388.6,245.93l.14.21.15-.11c.21-.24.41-.49.62-.74Z"/><path class="cls-34" d="M372.19,252.9l.05.25c1-.21,2-.44,2.92-.71l-.06-.24C374.14,252.46,373.16,252.7,372.19,252.9Z"/><path class="cls-34" d="M378,251.54c.94-.32,1.88-.69,2.8-1.08l-.1-.23c-.91.39-1.85.75-2.79,1.08Z"/><path class="cls-34" d="M383.57,249.19c.89-.45,1.77-.93,2.63-1.44l-.12-.22c-.86.51-1.74,1-2.63,1.44Z"/><path class="cls-34" d="M362.05,162.74c1,0,2,0,3,0v-.25c-1,0-2-.05-3,0Z"/><path class="cls-34" d="M371,163.2c-1-.18-2-.32-3-.43l0,.25c1,.11,2,.25,3,.42Z"/><path class="cls-34" d="M390.06,171.69c.79.59,1.58,1.22,2.34,1.86l.16-.19c-.76-.64-1.55-1.27-2.36-1.87Z"/><path class="cls-34" d="M374,163.82l-.06.25q1.45.36,2.88.81l.08-.24C375.92,164.34,374.94,164.07,374,163.82Z"/><path class="cls-34" d="M382.36,167.08l.11-.23c-.91-.43-1.84-.83-2.77-1.19l-.09.23C380.54,166.25,381.46,166.65,382.36,167.08Z"/><path class="cls-34" d="M387.59,170l.14-.21c-.84-.55-1.71-1.07-2.58-1.55l-.12.22C385.9,168.93,386.76,169.45,387.59,170Z"/><path class="cls-34" d="M396.88,177.55c-.67-.74-1.37-1.47-2.09-2.17l-.17.18c.71.69,1.41,1.42,2.08,2.15Z"/><path class="cls-34" d="M317.56,212.43l-.25,0c.09,1,.22,2,.37,3l.25,0C317.77,214.42,317.65,213.42,317.56,212.43Z"/><path class="cls-34" d="M318.49,218.34l-.25,0c.22,1,.48,2,.76,2.92l.24-.08C319,220.28,318.71,219.31,318.49,218.34Z"/><path class="cls-34" d="M317.16,206.44c0,1-.05,2,0,3h.25c0-1,0-2,0-3Z"/><path class="cls-34" d="M307.4,194.12c-.42.91-.81,1.85-1.17,2.78l.23.09c.36-.93.75-1.86,1.16-2.76Z"/><path class="cls-34" d="M304.66,202.7c.24-1,.52-1.93.81-2.88l-.23-.07c-.3.95-.58,1.92-.82,2.89Z"/><path class="cls-34" d="M310.24,188.82c-.53.85-1,1.73-1.51,2.61l.23.11c.46-.87,1-1.75,1.49-2.59Z"/><path class="cls-34" d="M303.58,208.59c.12-1,.27-2,.45-3l-.24,0c-.18,1-.33,2-.45,3Z"/><path class="cls-34" d="M303.24,214.56c0-1,0-2,.08-3l-.25,0c-.06,1-.09,2-.08,3Z"/><path class="cls-34" d="M371.2,259.11c-.91.4-1.85.77-2.79,1.11l.09.23c.94-.34,1.88-.71,2.8-1.11Z"/><path class="cls-34" d="M376.52,256.41c-.85.5-1.73,1-2.62,1.43l.12.23c.89-.46,1.77-.94,2.63-1.45Z"/><path class="cls-34" d="M388.64,246.7l-.48.36.09.08Z"/><path class="cls-34" d="M385.59,179.35c.71.69,1.42,1.41,2.09,2.14l.19-.17c-.68-.73-1.39-1.46-2.11-2.15Z"/><path class="cls-34" d="M381,175.48c.8.6,1.59,1.22,2.35,1.87l.16-.19c-.76-.65-1.56-1.28-2.36-1.88Z"/><path class="cls-34" d="M390,244.69l-.49.6.64-.48Z"/><path class="cls-34" d="M389.68,245.47l-.79.56-.42.48,1-.8Z"/><path class="cls-34" d="M384,251.36c.76-.66,1.5-1.34,2.21-2l-.18-.18c-.7.7-1.44,1.38-2.19,2Z"/><path class="cls-34" d="M378.71,173.55c-.83-.55-1.7-1.08-2.56-1.57l-.13.21c.86.5,1.72,1,2.55,1.57Z"/><path class="cls-34" d="M373.38,170.79l.11-.23c-.9-.44-1.82-.86-2.74-1.25l-.1.23C371.57,169.93,372.48,170.34,373.38,170.79Z"/><path class="cls-34" d="M367.93,168.24c-.94-.33-1.91-.64-2.88-.9l-.06.24c1,.26,1.92.57,2.86.89Z"/><path class="cls-34" d="M379.19,255c.83-.56,1.65-1.15,2.44-1.76l-.15-.19c-.79.6-1.6,1.19-2.43,1.74Z"/><path class="cls-34" d="M304.19,225.24c.09.42.19.83.29,1.23l.24-.06c-.24-1-.46-1.94-.64-2.92l-.25,0c.06.31.13.61.19.92s.2.49.31.73Z"/><path class="cls-34" d="M312.21,242.61c-.57-.81-1.13-1.65-1.66-2.49l-.21.13c.53.85,1.09,1.69,1.67,2.5Z"/><path class="cls-34" d="M303.62,220.53c-.13-1-.22-2-.28-3l-.25,0c.06,1,.15,2,.28,3Z"/><path class="cls-34" d="M306.54,232.11c-.36-.93-.69-1.88-1-2.82l-.23.08c.3.95.64,1.9,1,2.83Z"/><path class="cls-34" d="M309.05,237.53c-.47-.87-.92-1.77-1.34-2.67l-.22.1c.42.91.87,1.81,1.34,2.69Z"/><path class="cls-34" d="M390.19,244.85l0,0-.64.48c-.21.25-.41.5-.62.74l.79-.56C389.85,245.26,390,245.06,390.19,244.85Z"/><path class="cls-34" d="M308.84,219.07l-.25,0c.07,1,.17,2,.31,3l.25,0C309,221.07,308.91,220.06,308.84,219.07Z"/><path class="cls-34" d="M308.58,213.07c-.06,1-.09,2-.09,3h.25c0-1,0-2,.09-3Z"/><path class="cls-34" d="M311,201.32c-.34.94-.64,1.91-.9,2.87l.24.06c.26-.95.56-1.91.89-2.85Z"/><path class="cls-34" d="M377.34,253.27c-.7.46-1.42.9-2.15,1.32l.13.22c.87-.5,1.73-1,2.56-1.58l0,0-.45.21Z"/><path class="cls-34" d="M369.9,257.43c.93-.37,1.86-.78,2.75-1.22l-.1-.22c-.9.43-1.82.84-2.74,1.21Z"/><path class="cls-34" d="M386.89,245.3l-.19-.17c-.65.75-1.33,1.49-2,2.2l.17.17C385.55,246.79,386.24,246.05,386.89,245.3Z"/><path class="cls-34" d="M309.39,207.11c-.2,1-.37,2-.5,3l.24,0c.14-1,.31-2,.51-3Z"/><path class="cls-34" d="M377.69,179.07c.83.54,1.65,1.13,2.44,1.73l.15-.2c-.79-.6-1.61-1.19-2.45-1.74Z"/><path class="cls-34" d="M380.33,251.48c.79-.61,1.57-1.25,2.32-1.91l-.16-.19c-.75.66-1.53,1.29-2.31,1.9Z"/><path class="cls-34" d="M309.41,225.05c.2,1,.44,2,.71,2.93l.24-.07c-.27-1-.5-1.94-.71-2.91Z"/><path class="cls-34" d="M311,230.85c.33.94.7,1.88,1.09,2.8l.23-.1c-.39-.91-.76-1.85-1.09-2.79Z"/><path class="cls-34" d="M372.49,176.11c.9.43,1.79.9,2.65,1.39l.13-.22c-.87-.49-1.77-1-2.67-1.4Z"/><path class="cls-34" d="M371.79,255.56c.95-.31,1.91-.64,2.84-1l-.09-.23c-.93.35-1.88.69-2.83,1Z"/><path class="cls-34" d="M300.23,192.91c-.18,1-.34,2-.46,3l.25,0c.12-1,.27-2,.45-3Z"/><path class="cls-34" d="M299.82,207.87c-.09-1-.16-2-.19-3h-.25c0,1,.1,2,.19,3Z"/><path class="cls-34" d="M302.21,219.58c-.31-.94-.59-1.91-.84-2.87l-.24.06c.25,1,.53,1.94.84,2.89Z"/><path class="cls-34" d="M299.59,201.89c0-1,.06-2,.13-3l-.25,0c-.07,1-.11,2-.13,3Z"/><path class="cls-34" d="M310.33,235.53c-.59-.8-1.17-1.63-1.71-2.46l-.21.14c.55.83,1.12,1.66,1.72,2.47Z"/><path class="cls-34" d="M304.19,225.24c-.06-.26-.12-.53-.17-.79-.29-.68-.57-1.36-.83-2l-.23.09c.35.93.74,1.87,1.14,2.78Z"/><path class="cls-34" d="M307.05,230.52c-.5-.86-1-1.75-1.43-2.63l-.22.11c.45.89.93,1.78,1.43,2.64Z"/><path class="cls-34" d="M300.7,213.79c-.2-1-.38-2-.52-2.95l-.25,0c.15,1,.32,2,.52,3Z"/><path class="cls-34" d="M377.34,253.27l.4-.25.12.18c.76-.35,1.52-.71,2.26-1.09l-.12-.23c-.88.46-1.79.89-2.7,1.3Z"/><path class="cls-34" d="M388.47,246.51l-.84.64.15.2.38-.29-.1-.08Z"/><path class="cls-34" d="M409.41,195.17l.13,0-.2-.45C409.36,194.86,409.39,195,409.41,195.17Z"/><path class="cls-34" d="M406.48,183.58l.23-.08c-.35-.94-.72-1.88-1.12-2.79l-.23.09C405.75,181.72,406.13,182.65,406.48,183.58Z"/><path class="cls-34" d="M401.12,172.89l.21-.14c-.54-.84-1.11-1.67-1.69-2.48l-.21.15C400,171.22,400.59,172.05,401.12,172.89Z"/><path class="cls-34" d="M404.09,178.09l.22-.11c-.44-.89-.92-1.79-1.41-2.65l-.22.12C403.17,176.31,403.65,177.2,404.09,178.09Z"/><path class="cls-34" d="M397.61,168l.2-.16c-.63-.78-1.29-1.54-2-2.29l-.19.17C396.33,166.5,397,167.27,397.61,168Z"/><path class="cls-34" d="M361.86,148.09l0-.25c-1-.13-2-.23-3-.3l0,.25C359.87,147.86,360.88,148,361.86,148.09Z"/><path class="cls-34" d="M367.75,149.19l.06-.25c-1-.23-2-.45-2.94-.63l-.05.25C365.8,148.74,366.78,149,367.75,149.19Z"/><path class="cls-34" d="M373.48,150.91l.08-.23c-.94-.34-1.9-.66-2.85-1l-.07.24C371.59,150.26,372.54,150.58,373.48,150.91Z"/><path class="cls-34" d="M393.59,163.6l.18-.18c-.71-.7-1.45-1.4-2.2-2.06l-.17.19C392.15,162.21,392.88,162.9,393.59,163.6Z"/><path class="cls-34" d="M379.1,153l-.51-.25c-.74-.35-1.49-.69-2.23-1l-.09.23c.73.31,1.48.65,2.21,1l.51.25Z"/><path class="cls-34" d="M384.22,156.16l.13-.21c-.84-.53-1.71-1-2.58-1.53l-.12.22C382.51,155.12,383.38,155.63,384.22,156.16Z"/><path class="cls-34" d="M389.11,159.62l.15-.19c-.78-.62-1.59-1.23-2.4-1.81l-.15.21C387.52,158.4,388.33,159,389.11,159.62Z"/><path class="cls-34" d="M306.27,176c-.48.87-.94,1.77-1.38,2.67l.23.11c.43-.9.89-1.79,1.37-2.66Z"/><path class="cls-34" d="M303.65,181.4c-.38.92-.75,1.87-1.09,2.8l.24.09c.33-.94.7-1.88,1.08-2.79Z"/><path class="cls-34" d="M390.15,245.49l-.16-.19-.5.41-.85,1C389.15,246.3,389.66,245.9,390.15,245.49Z"/><path class="cls-34" d="M301.63,187.06c-.29,1-.55,1.94-.78,2.91l.24.06c.23-1,.49-1.94.78-2.9Z"/><path class="cls-34" d="M382.76,250.66c.86-.5,1.72-1,2.55-1.59l-.13-.21c-.83.55-1.69,1.08-2.55,1.58Z"/><path class="cls-34" d="M389.49,245.71l-1,.8-.41.47.1.08.48-.36Z"/><path class="cls-34" d="M304.33,225.18c-.11-.24-.21-.49-.31-.73.05.26.11.53.17.79Z"/><path class="cls-34" d="M377.34,253.27l.07.14.45-.21-.12-.18Z"/><path class="cls-34" d="M303.5,189.46c-.48.87-.95,1.77-1.39,2.67l.23.11c.44-.89.9-1.79,1.38-2.66Z"/><path class="cls-34" d="M407.34,246.22c.48-.87.93-1.78,1.36-2.68l-.22-.11c-.43.9-.89,1.8-1.36,2.67Z"/><path class="cls-34" d="M392,264.54c.78-.62,1.56-1.27,2.31-1.92l-.16-.19c-.75.65-1.53,1.3-2.31,1.91Z"/><path class="cls-34" d="M375.93,162.93l.09-.24c-.94-.35-1.89-.68-2.85-1l-.07.23C374.05,162.25,375,162.58,375.93,162.93Z"/><path class="cls-34" d="M367.31,160.42c1,.2,1.95.43,2.91.69l.07-.24c-1-.26-2-.49-2.93-.7Z"/><path class="cls-34" d="M378.7,164.05c.63.27,1.27.56,1.9.86l.82.4.11-.22-.83-.41c-.62-.29-1.26-.59-1.9-.86Z"/><path class="cls-34" d="M300.86,194.86c-.39.92-.77,1.86-1.11,2.8l.23.08c.35-.93.72-1.86,1.11-2.78Z"/><path class="cls-34" d="M400.6,256.17c.64-.77,1.27-1.56,1.88-2.36l-.2-.15c-.6.8-1.23,1.59-1.87,2.35Z"/><path class="cls-34" d="M404.23,251.36c.56-.82,1.1-1.67,1.62-2.53l-.21-.13c-.52.85-1.06,1.7-1.62,2.52Z"/><path class="cls-34" d="M306.88,184.49l-.21-.14c-.57.82-1.12,1.67-1.65,2.52l.21.13C305.76,186.15,306.31,185.31,306.88,184.49Z"/><path class="cls-34" d="M396.5,260.58c.72-.7,1.43-1.42,2.11-2.16l-.18-.17c-.68.73-1.39,1.45-2.1,2.15Z"/><path class="cls-34" d="M387.07,268c.84-.53,1.68-1.1,2.5-1.68l-.15-.2c-.81.57-1.64,1.14-2.49,1.67Z"/><path class="cls-34" d="M381.84,271c.89-.45,1.78-.93,2.65-1.42l-.12-.22c-.87.49-1.76,1-2.65,1.41Z"/><path class="cls-34" d="M396.08,175.59l.18-.18c-.73-.69-1.47-1.38-2.23-2l-.16.19C394.62,174.22,395.36,174.9,396.08,175.59Z"/><path class="cls-34" d="M296.67,224.26l-.25,0c.1,1,.24,2,.39,3l.25,0C296.9,226.24,296.77,225.24,296.67,224.26Z"/><path class="cls-34" d="M297.6,230.17l-.24.05c.2,1,.43,2,.69,2.93l.24-.07C298,232.12,297.8,231.14,297.6,230.17Z"/><path class="cls-34" d="M409.54,195.15a.14.14,0,0,1,0,.06l.24-.09c-.07-.17-.15-.33-.22-.49,0,.17.06.34.08.51Z"/><path class="cls-34" d="M296.34,218.28h-.25c0,.54,0,1.09,0,1.63s0,.92.06,1.38l.25,0C296.38,220.28,296.35,219.28,296.34,218.28Z"/><path class="cls-34" d="M296.38,212.27c-.1,1-.17,2-.22,3h.25c0-1,.12-2,.22-3Z"/><path class="cls-34" d="M297.28,206.33c-.2,1-.38,2-.53,3l.25,0c.15-1,.32-2,.52-2.94Z"/><path class="cls-34" d="M307.07,252l-.2.14c.57.82,1.17,1.63,1.79,2.42l.19-.15C308.24,253.63,307.64,252.82,307.07,252Z"/><path class="cls-34" d="M391.55,171.67l.15-.2c-.78-.62-1.6-1.22-2.41-1.79l-.15.21C390,170.46,390.77,171.05,391.55,171.67Z"/><path class="cls-34" d="M298.78,200.5c-.3,1-.58,1.93-.83,2.9l.25.06c.24-1,.52-1.93.82-2.88Z"/><path class="cls-34" d="M303.88,246.94l-.22.12c.49.87,1,1.74,1.54,2.59l.21-.14C304.88,248.67,304.37,247.8,303.88,246.94Z"/><path class="cls-34" d="M361.42,159.25l0,.24c1,.11,2,.24,3,.39l0-.25C363.42,159.48,362.41,159.35,361.42,159.25Z"/><path class="cls-34" d="M386.78,168c-.84-.53-1.72-1.05-2.59-1.53l-.12.21c.87.49,1.74,1,2.58,1.53Z"/><path class="cls-34" d="M299.12,236l-.23.08c.3,1,.63,1.9,1,2.84l.23-.09C299.76,237.86,299.43,236.91,299.12,236Z"/><path class="cls-34" d="M301.23,241.57l-.23.1c.39.91.82,1.83,1.26,2.73l.23-.11C302.05,243.39,301.62,242.48,301.23,241.57Z"/><path class="cls-34" d="M398.19,177.72c.68.72,1.36,1.48,2,2.23l.19-.16c-.65-.76-1.32-1.51-2-2.24Z"/><path class="cls-34" d="M409.45,241.92c.4-.92.78-1.85,1.14-2.78l-.24-.09c-.35.92-.73,1.86-1.13,2.77Z"/><circle class="cls-35" cx="348.43" cy="212.26" r="44.8"/><path class="cls-36" d="M262.8,350.62h14.44a4.37,4.37,0,0,1,4.37,4.37v57.56a9.41,9.41,0,0,1-9.41,9.41h0a9.41,9.41,0,0,1-9.41-9.41V350.62a0,0,0,0,1,0,0Z"/><rect class="cls-37" x="250.27" y="272.93" width="18.81" height="71.34" rx="9.41" transform="translate(67.28 -45.87) rotate(11.59)"/><circle class="cls-38" cx="282.64" cy="244.28" r="21.32"/><path class="cls-39" d="M278.68,264.38h.75a23.73,23.73,0,0,1,23.73,23.73v61.15a4.05,4.05,0,0,1-4.05,4.05H259a4.05,4.05,0,0,1-4.05-4.05V288.11A23.73,23.73,0,0,1,278.68,264.38Z"/><path class="cls-40" d="M276.61,353.27h18.81a0,0,0,0,1,0,0V415.2a9.41,9.41,0,0,1-9.41,9.41h0a9.41,9.41,0,0,1-9.41-9.41V353.27A0,0,0,0,1,276.61,353.27Z"/><rect class="cls-41" x="292.63" y="270.5" width="18.81" height="71.34" rx="9.41" transform="translate(-86.68 122.14) rotate(-20.06)"/><rect class="cls-42" x="366.63" y="281.86" width="15.38" height="71.34" rx="7.69" transform="matrix(-0.87, -0.5, 0.5, -0.87, 539.74, 779.68)"/><rect class="cls-43" x="418.3" y="287.69" width="15.29" height="71.34" rx="7.64" transform="translate(905.77 559.5) rotate(169)"/><path class="cls-44" d="M382.16,277.45h43.37a4.2,4.2,0,0,1,4.2,4.2v60.14a24.59,24.59,0,0,1-24.59,24.59h-2.59A24.59,24.59,0,0,1,378,341.79V281.65a4.2,4.2,0,0,1,4.2-4.2Z" transform="translate(807.69 643.82) rotate(-180)"/><path class="cls-45" d="M392.63,366.33h0a9.41,9.41,0,0,1,9.41,9.41v61.93a0,0,0,0,1,0,0H383.22a0,0,0,0,1,0,0V375.74a9.41,9.41,0,0,1,9.41-9.41Z" transform="translate(785.25 804) rotate(-180)"/><path class="cls-46" d="M416,366.33h0a9.41,9.41,0,0,1,9.41,9.41v61.93a0,0,0,0,1,0,0H406.55a0,0,0,0,1,0,0V375.74A9.41,9.41,0,0,1,416,366.33Z" transform="translate(831.92 804) rotate(-180)"/><circle class="cls-47" cx="404.76" cy="257.35" r="21.32"/><path class="cls-48" d="M178.28,288.53h0a9.41,9.41,0,0,1,9.41,9.41v61.93a0,0,0,0,1,0,0H168.87a0,0,0,0,1,0,0V297.93A9.41,9.41,0,0,1,178.28,288.53Z" transform="translate(356.55 648.39) rotate(180)"/><rect class="cls-49" x="156.47" y="207.12" width="18.81" height="71.34" rx="9.41" transform="translate(271.31 517.28) rotate(-166.67)"/><path class="cls-50" d="M162.11,205.24H197a3.6,3.6,0,0,1,3.6,3.6v64.28a21.06,21.06,0,0,1-21.06,21.06h0a21.06,21.06,0,0,1-21.06-21.06V208.84A3.6,3.6,0,0,1,162.11,205.24Z" transform="translate(359.13 499.41) rotate(-180)"/><path class="cls-51" d="M183.25,294.12h0a9.41,9.41,0,0,1,9.41,9.41v61.93a0,0,0,0,1,0,0H173.84a0,0,0,0,1,0,0V303.53A9.41,9.41,0,0,1,183.25,294.12Z" transform="translate(366.49 659.59) rotate(-180)"/><rect class="cls-52" x="179.55" y="206.58" width="18.81" height="71.34" rx="9.41" transform="translate(445.48 411.33) rotate(161.35)"/><circle class="cls-53" cx="186.58" cy="186.32" r="21.32"/><rect class="cls-54" x="486.09" y="163.51" width="18.81" height="71.34" rx="9.41" transform="translate(931.72 507.23) rotate(-166.67)"/><path class="cls-55" d="M496,159.27h45.24a4.28,4.28,0,0,1,4.28,4.28v59.58a25.07,25.07,0,0,1-25.07,25.07h-3.67a25.07,25.07,0,0,1-25.07-25.07V163.56a4.28,4.28,0,0,1,4.28-4.28Z" transform="translate(1037.32 407.48) rotate(-180)"/><path class="cls-56" d="M510.35,248.16h0a9.41,9.41,0,0,1,9.41,9.41V319.5a0,0,0,0,1,0,0H500.94a0,0,0,0,1,0,0V257.57a9.41,9.41,0,0,1,9.41-9.41Z" transform="translate(1020.7 567.66) rotate(-180)"/><path class="cls-57" d="M528.19,248.16h0a9.41,9.41,0,0,1,9.41,9.41V319.5a0,0,0,0,1,0,0H518.78a0,0,0,0,1,0,0V257.57A9.41,9.41,0,0,1,528.19,248.16Z" transform="translate(1056.37 567.66) rotate(180)"/><rect class="cls-58" x="528.82" y="169.65" width="18.81" height="71.34" rx="9.41" transform="translate(1089.81 371.43) rotate(175.88)"/><circle class="cls-59" cx="518.56" cy="139.17" r="21.32"/><path class="cls-60" d="M474.71,319.17h18.81a0,0,0,0,1,0,0V381.1a9.41,9.41,0,0,1-9.41,9.41h0a9.41,9.41,0,0,1-9.41-9.41V319.17A0,0,0,0,1,474.71,319.17Z"/><rect class="cls-61" x="487.11" y="237.76" width="18.81" height="71.34" rx="9.41" transform="translate(-49.66 121.84) rotate(-13.33)"/><path class="cls-62" d="M482.83,235.88h0a21.06,21.06,0,0,1,21.06,21.06v64.28a3.6,3.6,0,0,1-3.6,3.6H465.37a3.6,3.6,0,0,1-3.6-3.6V256.94a21.06,21.06,0,0,1,21.06-21.06Z"/><path class="cls-63" d="M469.74,324.77h18.81a0,0,0,0,1,0,0V386.7a9.41,9.41,0,0,1-9.41,9.41h0a9.41,9.41,0,0,1-9.41-9.41V324.77A0,0,0,0,1,469.74,324.77Z"/><rect class="cls-64" x="470.8" y="241.65" width="18.81" height="71.34" rx="9.41" transform="matrix(1, 0.1, -0.1, 1, 29.6, -45.88)"/><circle class="cls-65" cx="477.88" cy="215.19" r="21.32"/><path class="cls-34" d="M231.41,89.18l-1.25-4.85,1-.25,1.25,4.85Zm-2.5-9.69-1.25-4.84,1-.25,1.25,4.84Zm-2.5-9.68L225.17,65l1-.25,1.24,4.84Zm-2.49-9.68-1.25-4.85,1-.25,1.25,4.85Zm-2.5-9.69-1.25-4.84,1-.25,1.25,4.84Zm-4.69-5.84h-5v-1h5Zm-10,0h-5v-1h5Z"/><path class="cls-34" d="M382.28,60.15l-.85-.53,2.64-4.24.85.52Zm5.28-8.49-.85-.53,2.64-4.24.85.52Zm5.28-8.49-.85-.53,2.64-4.25.85.53Zm5.28-8.5-.85-.52,2.64-4.25.85.53Zm5.28-8.49-.85-.52,2.64-4.25.85.53Zm5.28-8.49-.84-.53,2.64-4.24.84.52Z"/><path class="cls-34" d="M274.19,247.57l-2.81-4.14.83-.56L275,247Zm-5.61-8.28-2.81-4.14.83-.56,2.8,4.14ZM263,231l-2.81-4.14.83-.56,2.8,4.14Zm-5.62-8.27-2.8-4.14.83-.56,2.8,4.13Zm-5.61-8.28-1-1.44H248v-1h3.26l1.27,1.88ZM243,213h-5v-1h5Zm-10,0h-5v-1h5Zm-10,0h-5v-1h5Zm-10,0h-5v-1h5Zm-10,0h-5v-1h5Zm-10,0h-5v-1h5Zm-10,0h-5v-1h5Zm-10,0h-5v-1h5Zm-10,0h-5v-1h5Zm-10,0h-5v-1h5Zm-10,0h-1.62v-1H143Z"/><rect class="cls-66" x="141.42" y="36.48" width="61.1" height="15.71" rx="7.86"/><rect class="cls-66" x="410.98" y="2.73" width="66.49" height="19.74" rx="9.87" transform="translate(888.44 25.2) rotate(180)"/><rect class="cls-66" x="75.07" y="201.91" width="66.49" height="19.74" rx="9.87" transform="translate(216.64 423.57) rotate(180)"/><rect class="cls-66" x="538.27" y="155.95" width="66.49" height="19.74" rx="9.87" transform="translate(1143.02 331.63) rotate(180)"/><g class="cls-67"><rect class="cls-66" x="138.08" y="42.37" width="61.1" height="15.71" rx="7.86"/><rect class="cls-66" x="407.63" y="8.62" width="66.49" height="19.74" rx="9.87" transform="translate(881.76 36.98) rotate(180)"/><rect class="cls-66" x="71.73" y="207.81" width="66.49" height="19.74" rx="9.87" transform="translate(209.95 435.35) rotate(180)"/><rect class="cls-66" x="534.92" y="161.84" width="66.49" height="19.74" rx="9.87" transform="translate(1136.34 343.42) rotate(180)"/></g><g class="cls-67"><rect class="cls-66" x="130.06" y="33.75" width="61.1" height="15.71" rx="7.86"/><rect class="cls-66" x="399.62" width="66.49" height="19.74" rx="9.87" transform="translate(865.73 19.74) rotate(180)"/><rect class="cls-66" x="63.71" y="199.19" width="66.49" height="19.74" rx="9.87" transform="translate(193.92 418.11) rotate(180)"/><rect class="cls-66" x="526.91" y="153.22" width="66.49" height="19.74" rx="9.87" transform="translate(1120.31 326.18) rotate(180)"/></g><path class="cls-34" d="M481.09,213.37l-.85-.53,2.64-4.24.85.52Zm5.28-8.49-.85-.53,2.64-4.25.85.53Zm5.28-8.49-.85-.53,2.64-4.25.85.53Zm5.28-8.5-.85-.52,2.64-4.25.85.53Zm5.28-8.49-.85-.53,2.64-4.24.85.53Zm5.28-8.49-.85-.53,2.64-4.24.85.52Zm31.12-4h-3.93v-1h3.93Zm-8.93,0h-5v-1h5Zm-10,0h-5v-1h5Z"/></g></g></svg>