<svg xmlns="http://www.w3.org/2000/svg" viewBox="0 0 205.396 35.502"><defs><style>.a,.b{fill:#c0d562;}.b{opacity:0.5;}.c{fill:#fff;}</style></defs><path class="a" d="M37.1,56.972a20.132,20.132,0,0,0,7.716-12.913,20.07,20.07,0,0,0-15.512,0A20.234,20.234,0,0,0,37.1,56.972Z" transform="translate(-17.586 -25.509)"/><path class="b" d="M19.51,59.513A19.57,19.57,0,0,1,11.834,46.6,19.735,19.735,0,0,0,0,61.872a19.649,19.649,0,0,0,7.676,1.559A19.916,19.916,0,0,0,19.51,59.513Z" transform="translate(0 -27.97)"/><path class="b" d="M56.376,46.6A19.664,19.664,0,0,1,48.7,59.513a19.672,19.672,0,0,0,19.51,2.4A19.734,19.734,0,0,0,56.376,46.6Z" transform="translate(-29.23 -27.97)"/><path class="b" d="M29,15.752a23.217,23.217,0,0,0,.2,2.878h.04c0-.08-.04-.12-.04-.2a19.674,19.674,0,0,1,15.352,0c0,.08-.04.12-.04.2h.04a22.184,22.184,0,0,0,.2-2.878A19.6,19.6,0,0,0,36.916,0,19.666,19.666,0,0,0,29,15.752Z" transform="translate(-17.406)"/><g transform="translate(62.128)"><path class="c" d="M413.935,23.7h-.04a9.678,9.678,0,0,0-6.677,2.679.312.312,0,0,0-.16.16l-.12.12-.08.08-.08.08-.04.04A9.888,9.888,0,0,0,404.1,33.3v.32a9.944,9.944,0,0,0,.2,1.839v.04c.04.24.12.48.16.72l.04.08c0,.04.04.12.04.16.04.16.12.32.16.48l.08.2c.04.08.08.2.12.28s.08.2.12.28l.08.16a4.337,4.337,0,0,0,.24.44c.04.04.04.08.08.12l.04.08c.12.2.24.4.4.64l.04.04a8.186,8.186,0,0,0,1.2,1.4,12.071,12.071,0,0,0,1.279,1.079l.08.04c.04.04.08.08.12.08a5.909,5.909,0,0,0,.52.32l.08.04.24.12c.12.08.28.12.4.2l.08.04a4.69,4.69,0,0,0,.44.2c.08.04.2.08.28.12l.08.04c.2.08.4.12.6.2.08,0,.12.04.2.04l.08.04c.24.04.44.12.68.16a.24.24,0,0,1,.16.04h.08a5.463,5.463,0,0,0,.76.08h1.159a9.719,9.719,0,0,0,6.8-3.078,1.712,1.712,0,0,0,.32-1.919,1.738,1.738,0,0,0-1.639-1.079h0a1.725,1.725,0,0,0-1.279.56,6.156,6.156,0,0,1-4.4,1.959h-.72a4.849,4.849,0,0,1-1.319-.28h-.04a3.755,3.755,0,0,1-.6-.24l-.08-.04c-.2-.08-.36-.2-.56-.28-.04-.04-.08-.04-.12-.08l-.04-.04-.36-.24-.04-.04a.7.7,0,0,1-.2-.16c-.16-.12-.28-.24-.44-.36l-.16-.16-.04-.04a1.736,1.736,0,0,1-.24-.28,5.989,5.989,0,0,1-1-1.6l-.04-.04-.12-.36c-.04-.08-.04-.16-.08-.24l14.233-.08h.32v-.04a1.846,1.846,0,0,0,1.359-1.759A10.063,10.063,0,0,0,413.935,23.7Zm6,8.076-12.034.04a6.546,6.546,0,0,1,.919-1.919,4.008,4.008,0,0,1,.56-.64,6.2,6.2,0,0,1,4.558-1.959,4.345,4.345,0,0,1,.72.04A6.33,6.33,0,0,1,419.932,31.776Z" transform="translate(-304.672 -14.225)"/><path class="c" d="M280.99,33.4h0v-.12a9.841,9.841,0,0,0-2.839-6.557l-.08-.08a14.014,14.014,0,0,0-1.439-1.159l-.04-.04a2.585,2.585,0,0,0-.64-.36l-.08-.04c-.04-.04-.08-.04-.16-.08a3.894,3.894,0,0,0-.44-.2l-.16-.08c-.08-.04-.2-.08-.28-.12s-.2-.08-.28-.12l-.16-.08c-.16-.04-.32-.12-.48-.16-.04,0-.12-.04-.16-.04l-.08-.04a4.65,4.65,0,0,0-.72-.16h-.04a9.808,9.808,0,0,0-1.839-.16,7.846,7.846,0,0,0-1.639.16h-.08a.24.24,0,0,0-.16.04,3.33,3.33,0,0,0-.6.16l-.12.04c-.08.04-.2.04-.28.08a1.949,1.949,0,0,0-.44.16l-.08.04c-.16.04-.28.12-.44.16-.08.04-.2.08-.28.12l-.08.04a3.655,3.655,0,0,0-.56.28c-.08.04-.12.08-.2.12l-.08.04-.6.36c-.04.04-.08.08-.12.08l-.08.04c-.24.16-.4.32-.6.48-.04.04-.08.08-.12.08l-.08.08c-.08.04-.12.12-.2.16-.04.04-.08.04-.08.08l-.28.28-.04.04-.04.04a2.752,2.752,0,0,0-.44.52.874.874,0,0,0-.12.2l-.12.16-.36.48a.874.874,0,0,1-.12.2l-.12.2c-.08.16-.16.28-.24.44l-.12.24-.08.2a4.682,4.682,0,0,1-.2.44.568.568,0,0,0-.08.24l-.08.2c-.04.16-.12.32-.16.48a2.542,2.542,0,0,0-.08.28l-.04.16c-.04.16-.08.32-.12.52,0,.08-.04.16-.04.28v.12c-.04.2-.04.36-.08.56v1.039h0v.08a9.31,9.31,0,0,0,.16,1.519v.04c.04.24.12.48.16.72l.04.08c0,.04.04.12.04.16.04.16.12.32.16.48l.08.16c.04.08.08.2.12.28s.08.2.12.28l.08.16a4.349,4.349,0,0,0,.24.44c.04.04.04.08.08.16l.04.08c.12.2.24.4.4.64l.04.04a9.352,9.352,0,0,0,1,1.2c.04.04.04.08.12.12l.08.08a6.148,6.148,0,0,0,.76.68c.04.04.12.08.16.12s.08.04.08.08l.04.04a2.2,2.2,0,0,1,.36.28l.16.12a.874.874,0,0,1,.2.12l.12.08c.08.04.12.08.2.12l.08.04c.04.04.08.04.16.08l.12.08.24.12.28.08a1.949,1.949,0,0,0,.28.12l.12.04c.08.04.12.04.2.08l.2.08c.12.04.28.08.4.12l.12.04c.08,0,.12.04.2.04l.16.04.48.12h.12a.24.24,0,0,1,.16.04h.08a5.462,5.462,0,0,0,.76.08h1.239a3.439,3.439,0,0,0,.64-.04,2.007,2.007,0,0,0,.48-.08l.24-.04a.24.24,0,0,0,.16-.04,3.33,3.33,0,0,0,.6-.16l.12-.04a2.551,2.551,0,0,1,.28-.08,1.671,1.671,0,0,0,.4-.16l.12-.04c.16-.04.28-.12.44-.16.12-.04.2-.08.32-.12l.08-.04a3.655,3.655,0,0,0,.56-.28c.08-.04.12-.08.2-.12l.08-.04.6-.36a.552.552,0,0,1,.16-.12l.04-.04c.24-.16.4-.32.6-.48l.12-.12.16-.16c.12-.08.2-.2.32-.28.04-.04.04-.08.08-.08l.08-.08c0-.04.04-.04.04-.08a9.97,9.97,0,0,0,2.639-6.517v-.2h0V33.4Zm-3.558.12v.72a6.073,6.073,0,0,1-1.719,3.758,3.608,3.608,0,0,1-.4.36l-.08.08-.08.08a5.806,5.806,0,0,1-1.159.76c-.2.08-.36.16-.6.24l-.08.04c-.2.08-.4.12-.6.2-.04,0-.08.04-.12.04h-.08c-.12.04-.28.04-.44.08-.08,0-.16.04-.24.04-.16,0-.36.04-.52.04h-.52l-.28-.04a2.006,2.006,0,0,1-.48-.08l-.16-.04a3.331,3.331,0,0,1-.6-.16l-.12-.04a2.447,2.447,0,0,1-.48-.2c-.04-.04-.12-.04-.16-.08a2.154,2.154,0,0,1-.52-.28c-.04-.04-.08-.04-.12-.08l-.04-.04-.36-.24a.7.7,0,0,1-.2-.16c-.16-.12-.28-.24-.44-.36l-.16-.16-.04-.04a1.74,1.74,0,0,1-.24-.28l-.04-.04c-.08-.08-.12-.16-.2-.24-.2-.28-.4-.56-.56-.84a5.355,5.355,0,0,1-.24-.48v-.04l-.12-.36c-.04-.08-.04-.12-.08-.2l-.04-.08c0-.04-.04-.12-.04-.16-.04-.12-.04-.24-.08-.36l-.04-.12a1.361,1.361,0,0,1-.04-.4v-.08c0-.16-.04-.32-.04-.48V33a2.008,2.008,0,0,1,.08-.48l.04-.16a3.328,3.328,0,0,1,.16-.6l.04-.12a2.444,2.444,0,0,1,.2-.48c.04-.04.04-.12.08-.16a2.549,2.549,0,0,1,.32-.56,2.033,2.033,0,0,1,.36-.52l.12-.16c.12-.12.24-.28.36-.4a3.6,3.6,0,0,1,.4-.36l.08-.08.08-.08h0a6.9,6.9,0,0,1,1.119-.76h.04c.2-.08.36-.16.6-.28l.08-.04c.2-.08.4-.12.6-.2a.147.147,0,0,0,.12-.04h.08c.12-.04.28-.04.44-.08.08,0,.16-.04.24-.04a2.832,2.832,0,0,1,.56-.04h.64a6.558,6.558,0,0,1,1.8.4l.08.04c.12.04.24.12.36.16a1.331,1.331,0,0,0,.24.12l.04.04c.04.04.08.04.16.08.12.08.2.12.32.2l.12.08c.08.08.2.16.28.24l.12.12c.08.08.2.16.28.24l.08.08.28.28.08.08a2.819,2.819,0,0,1,.28.36l.04.04a6.271,6.271,0,0,1,1.159,2.759A2.939,2.939,0,0,0,277.431,33.515Z" transform="translate(-218.902 -14.285)"/><path class="c" d="M352.49,33.4h0v-.12a9.841,9.841,0,0,0-2.839-6.557l-.08-.08a14.014,14.014,0,0,0-1.439-1.159l-.04-.04a2.585,2.585,0,0,0-.64-.36l-.08-.04c-.04-.04-.08-.04-.16-.08a3.894,3.894,0,0,0-.44-.2l-.16-.08c-.08-.04-.2-.08-.28-.12s-.2-.08-.28-.12l-.16-.08c-.16-.04-.32-.12-.48-.16-.04,0-.12-.04-.16-.04l-.08-.04a4.649,4.649,0,0,0-.72-.16h-.04a9.808,9.808,0,0,0-1.839-.16,7.846,7.846,0,0,0-1.639.16h-.08a.24.24,0,0,0-.16.04,3.33,3.33,0,0,0-.6.16l-.12.04c-.08.04-.2.04-.28.08a1.949,1.949,0,0,0-.44.16l-.08.04c-.16.04-.28.12-.44.16-.08.04-.2.08-.28.12l-.08.04a3.655,3.655,0,0,0-.56.28c-.08.04-.12.08-.2.12l-.08.04-.6.36c-.04.04-.08.08-.12.08l-.08.04c-.24.16-.4.32-.6.48-.04.04-.08.08-.12.08l-.08.08c-.08.04-.12.12-.2.16-.04.04-.08.04-.08.08l-.28.28-.04.04-.04.04a2.753,2.753,0,0,0-.44.52.873.873,0,0,0-.12.2l-.12.16-.36.48a.874.874,0,0,1-.12.2l-.12.2c-.08.16-.16.28-.24.44l-.12.24-.08.2a4.682,4.682,0,0,1-.2.44.568.568,0,0,0-.08.24l-.08.2c-.04.16-.12.32-.16.48a2.556,2.556,0,0,0-.08.28l-.04.16c-.04.16-.08.32-.12.52,0,.08-.04.16-.04.28v.12c-.04.2-.04.36-.08.56v1.039h0v.08a9.31,9.31,0,0,0,.16,1.519v.04c.04.24.12.48.16.72l.04.08c0,.04.04.12.04.16.04.16.12.32.16.48l.08.16c.04.08.08.2.12.28s.08.2.12.28l.08.16a4.355,4.355,0,0,0,.24.44c.04.04.04.08.08.16l.04.08c.12.2.24.4.4.64l.04.04a9.355,9.355,0,0,0,1,1.2c.04.04.04.08.12.12l.08.08a6.149,6.149,0,0,0,.76.68c.04.04.12.08.16.12s.08.04.08.08l.04.04a2.2,2.2,0,0,1,.36.28l.16.12a.874.874,0,0,1,.2.12l.12.08c.08.04.12.08.2.12l.08.04c.04.04.08.04.16.08l.12.08.24.12.28.12a1.949,1.949,0,0,0,.28.12l.12.04c.08.04.12.04.2.08l.2.08c.12.04.28.08.4.12l.12.04c.08,0,.12.04.2.04l.16.04.48.12h.12a.24.24,0,0,1,.16.04h.08a5.464,5.464,0,0,0,.76.08h1.239a3.439,3.439,0,0,0,.64-.04,2.007,2.007,0,0,0,.48-.08l.24-.04a.24.24,0,0,0,.16-.04,3.331,3.331,0,0,0,.6-.16l.12-.04a2.551,2.551,0,0,1,.28-.08,1.67,1.67,0,0,0,.4-.16l.12-.04c.16-.04.28-.12.44-.16.12-.04.2-.08.32-.12l.08-.04a3.656,3.656,0,0,0,.56-.28c.08-.04.12-.08.2-.12l.08-.04.6-.36a.552.552,0,0,1,.16-.12l.04-.04c.24-.16.4-.32.6-.48l.12-.12.16-.16c.12-.08.2-.2.32-.28.04-.04.04-.08.08-.08l.08-.08c0-.04.04-.04.04-.08a9.97,9.97,0,0,0,2.639-6.517v-.2h0v-.12Zm-3.558.12v.72a6.073,6.073,0,0,1-1.719,3.758,3.608,3.608,0,0,1-.4.36l-.08.08-.08.08a5.8,5.8,0,0,1-1.159.76c-.2.08-.36.16-.6.24l-.08.04c-.2.08-.4.12-.6.2-.04,0-.08.04-.12.04h-.08c-.12.04-.28.04-.44.08-.08,0-.16.04-.24.04-.16,0-.36.04-.52.04h-.52l-.28-.04a2.006,2.006,0,0,1-.48-.08l-.16-.04a3.331,3.331,0,0,1-.6-.16l-.12-.04a2.446,2.446,0,0,1-.48-.2c-.04-.04-.12-.04-.16-.08a2.154,2.154,0,0,1-.52-.28c-.04-.04-.08-.04-.12-.08l-.04-.04-.36-.24a.7.7,0,0,1-.2-.16c-.16-.12-.28-.24-.44-.36l-.16-.16-.04-.04a1.742,1.742,0,0,1-.24-.28l-.04-.04c-.08-.08-.12-.16-.2-.24-.2-.28-.4-.56-.56-.84a5.363,5.363,0,0,1-.24-.48v-.04l-.12-.36c-.04-.08-.04-.12-.08-.2l-.04-.08c0-.04-.04-.12-.04-.16-.04-.12-.04-.24-.08-.36l-.04-.12a1.36,1.36,0,0,1-.04-.4v-.08c0-.16-.04-.32-.04-.48V33a2.007,2.007,0,0,1,.08-.48l.04-.16a3.331,3.331,0,0,1,.16-.6l.04-.12a2.444,2.444,0,0,1,.2-.48c.04-.04.04-.12.08-.16a2.549,2.549,0,0,1,.32-.56,2.033,2.033,0,0,1,.36-.52l.12-.16c.12-.12.24-.28.36-.4a3.6,3.6,0,0,1,.4-.36l.08-.08.08-.08h0a6.9,6.9,0,0,1,1.119-.76h.04c.2-.08.36-.16.6-.28l.08-.04c.2-.08.4-.12.6-.2a.147.147,0,0,0,.12-.04h.08c.12-.04.28-.04.44-.08.08,0,.16-.04.24-.04a2.832,2.832,0,0,1,.56-.04h.64a6.558,6.558,0,0,1,1.8.4l.08.04c.12.04.24.12.36.16a1.331,1.331,0,0,0,.24.12l.04.04c.04.04.08.04.16.08.12.08.2.12.32.2l.12.08c.08.08.2.16.28.24l.12.12c.08.08.2.16.28.24l.08.08.28.28.08.08a2.819,2.819,0,0,1,.28.36l.04.04a6.272,6.272,0,0,1,1.159,2.759A2.939,2.939,0,0,0,348.931,33.515Z" transform="translate(-261.817 -14.285)"/><path class="c" d="M172.191,24.622a1.9,1.9,0,0,0-1.6-.84h-.04a1.919,1.919,0,0,0-1.919,1.919v9.715a.535.535,0,0,1-.88.2l-6.876-8.755-1.559-2.279-.08-.12a2.231,2.231,0,0,0-1.159-.64l-.24-.04a2.232,2.232,0,0,0-2.439,2.079V41.613a1.919,1.919,0,0,0,1.919,1.919h.04a1.919,1.919,0,0,0,1.919-1.919V31.9a.5.5,0,0,1,.84-.2l8.436,11.074.08.12a2.231,2.231,0,0,0,1.159.64l.24.04a2.232,2.232,0,0,0,2.439-2.079V25.7h0A1.69,1.69,0,0,0,172.191,24.622Z" transform="translate(-155.4 -14.267)"/><path class="c" d="M227.979,43.55h0a2.065,2.065,0,0,0,2.079-2.079V25.879a2.065,2.065,0,0,0-2.079-2.079h0a2.065,2.065,0,0,0-2.079,2.079V41.471A2.065,2.065,0,0,0,227.979,43.55Z" transform="translate(-197.715 -14.285)"/><path class="c" d="M374.339,23.468h1.279c.76,0,1.279-2.8,1.279-3.558V1.8A1.792,1.792,0,0,0,375.1,0h0a1.792,1.792,0,0,0-1.8,1.8v18.51C373.3,20.829,373.82,23.468,374.339,23.468Z" transform="translate(-286.185 0)"/><path class="c" d="M482.36,32.875l5.317-7a1.3,1.3,0,0,0-1.039-2.079h-1.559a1.326,1.326,0,0,0-1.039.52l-4.158,5.717a.411.411,0,0,1-.68,0l-4.118-5.717a1.326,1.326,0,0,0-1.039-.52h-1.559a1.3,1.3,0,0,0-1.039,2.079l5.277,7a1.142,1.142,0,0,1,0,1.319l-5.517,7.276a1.3,1.3,0,0,0,1.039,2.079H473.8a1.326,1.326,0,0,0,1.039-.52l4.318-6a.411.411,0,0,1,.68,0l4.318,6a1.326,1.326,0,0,0,1.039.52h1.559a1.3,1.3,0,0,0,1.039-2.079l-5.477-7.276A1.215,1.215,0,0,1,482.36,32.875Z" transform="translate(-344.792 -14.285)"/></g></svg>