<svg xmlns="http://www.w3.org/2000/svg" viewBox="0 0 161.268 41.428">
  <defs>
    <style>
      .cls-1 {
        fill: #c0d562;
      }
    </style>
  </defs>
  <g id="Groupe_1066" data-name="Groupe 1066" transform="translate(0.1)">
    <path id="Tracé_1916" data-name="Tracé 1916" class="cls-1" d="M182.037,21.7h-.062a13.718,13.718,0,0,0-9.436,3.762c-.062.062-.185.123-.247.185l-.185.185-.123.123-.123.123-.062.062a13.9,13.9,0,0,0-3.7,9.127v.493a18.4,18.4,0,0,0,.247,2.59v.062c.062.37.185.678.247.987l.062.123c0,.062.062.123.062.247a3.006,3.006,0,0,0,.247.678l.123.247a.877.877,0,0,1,.123.37l.185.37.123.247c.123.247.185.432.308.678.062.062.062.123.123.185l.062.123a6.776,6.776,0,0,0,.555.863l.062.062a10.442,10.442,0,0,0,1.665,1.973,15.219,15.219,0,0,0,1.788,1.48l.123.123c.062.062.123.123.185.123.247.123.493.308.74.432l.123.062.37.185a2.19,2.19,0,0,0,.555.247l.123.062a6.4,6.4,0,0,0,.617.247.891.891,0,0,0,.432.123l.123.062a3.989,3.989,0,0,0,.8.247c.123,0,.185.062.308.062l.123.062c.308.062.617.123.987.185a.466.466,0,0,1,.247.062h.123a7.873,7.873,0,0,0,1.048.123h1.542a13.633,13.633,0,0,0,9.621-4.379,2.521,2.521,0,0,0-1.85-4.255h0a2.674,2.674,0,0,0-1.85.8,8.848,8.848,0,0,1-6.229,2.775H181.3a8.191,8.191,0,0,1-1.85-.37h-.062a7.482,7.482,0,0,1-.863-.308l-.123-.062a5.1,5.1,0,0,1-.8-.432c-.062-.062-.123-.062-.185-.123l-.062-.062c-.185-.123-.308-.185-.493-.308l-.062-.062c-.062-.062-.185-.123-.247-.185-.185-.185-.432-.308-.617-.493a.851.851,0,0,1-.185-.247l-.062-.062a1.635,1.635,0,0,1-.308-.37,9.487,9.487,0,0,1-1.418-2.282v-.062c-.062-.185-.123-.308-.185-.493-.062-.123-.062-.185-.123-.308,0,0,19.858-.123,20.1-.123a2.333,2.333,0,0,0,.493-.062,2.572,2.572,0,0,0,1.912-2.467A14.18,14.18,0,0,0,182.037,21.7Zm-8.51,11.471a10.023,10.023,0,0,1,1.3-2.713,9.719,9.719,0,0,1,.74-.925,8.877,8.877,0,0,1,6.414-2.775,6.342,6.342,0,0,1,1.048.062,8.9,8.9,0,0,1,7.462,6.229Z" transform="translate(-64.471 -8.318)"/>
    <path id="Tracé_1917" data-name="Tracé 1917" class="cls-1" d="M122.878,0a2.54,2.54,0,0,0-2.528,2.528V16.589a14.409,14.409,0,0,0-4.564-2.528,13.778,13.778,0,0,0-8.634.062,2.581,2.581,0,0,0-.8,4.379,2.512,2.512,0,0,0,2.343.493,9.037,9.037,0,0,1,11.039,4.934,10.056,10.056,0,0,1,.678,2.59v1.11a9.026,9.026,0,0,1-5.242,7.832,9.217,9.217,0,0,1-6.784.185,1.143,1.143,0,0,0-.432-.123c-3.084-1.85-4.5-6.845-5.057-8.819a11.12,11.12,0,0,1-.308-1.172,14.259,14.259,0,0,0-1.172-3.454A16.01,16.01,0,0,0,94.2,14.616a3.006,3.006,0,0,0-.432-.185,4.251,4.251,0,0,1-.493-.185.371.371,0,0,0-.247-.062,13.91,13.91,0,0,0-17.206,8.14,14.32,14.32,0,0,0,.432,11.162,14.076,14.076,0,0,0,8.325,7.277,13.778,13.778,0,0,0,8.634-.062,2.581,2.581,0,0,0,.8-4.379,2.512,2.512,0,0,0-2.343-.493A8.885,8.885,0,0,1,85.2,19.3a8.847,8.847,0,0,1,6.167-.37h0A10.005,10.005,0,0,1,97.038,24.3a8.89,8.89,0,0,1,.8,2.467c.123.432.185.863.37,1.357.8,2.9,2.775,9.744,8.325,12.272h0a.06.06,0,0,1,.062.062,13.617,13.617,0,0,0,9.867.062,13.723,13.723,0,0,0,9.066-12.951h0V2.528A2.785,2.785,0,0,0,122.878,0Z" transform="translate(-28.746)"/>
    <path id="Tracé_1918" data-name="Tracé 1918" class="cls-1" d="M21.423,21.7h0a2.751,2.751,0,0,0-2.775,2.713V38.166a.731.731,0,0,1-1.233.247L7.794,25.955,5.512,22.872l-.123-.123a2.811,2.811,0,0,0-1.665-.925l-.37-.062A3.175,3.175,0,0,0-.1,24.722v22.2a2.834,2.834,0,0,0,2.775,2.713h.062A2.738,2.738,0,0,0,5.45,46.923V33.171a.72.72,0,0,1,1.172-.308l11.9,15.6.123.123a2.811,2.811,0,0,0,1.665.925l.37.062a3.175,3.175,0,0,0,3.454-2.96V24.475a2.7,2.7,0,0,0-.493-1.542A2.591,2.591,0,0,0,21.423,21.7Z" transform="translate(0 -8.318)"/>
    <path id="Tracé_1919" data-name="Tracé 1919" class="cls-1" d="M56.16,21.7a2.961,2.961,0,0,0-2.96,2.96V46.676a2.96,2.96,0,0,0,5.92,0V24.66A3,3,0,0,0,56.16,21.7Z" transform="translate(-20.43 -8.318)"/>
    <path id="Tracé_1920" data-name="Tracé 1920" class="cls-1" d="M239.555,36.265a.741.741,0,0,1,0-.863l7.03-9.065a2.611,2.611,0,1,0-4.07-3.269L236.41,30.9a.693.693,0,0,1-1.11,0l-6.105-7.832a2.611,2.611,0,1,0-4.07,3.269l7.092,9.065a.741.741,0,0,1,0,.863l-7.03,9.065a2.685,2.685,0,0,0,.308,3.7,2.542,2.542,0,0,0,1.665.617,2.824,2.824,0,0,0,2.1-.987l6.105-7.832a.693.693,0,0,1,1.11,0l6.105,7.832a2.649,2.649,0,0,0,3.762.37,2.632,2.632,0,0,0,.308-3.7Z" transform="translate(-86.097 -8.452)"/>
  </g>
</svg>
