<svg xmlns="http://www.w3.org/2000/svg" viewBox="0 0 79.444 20.408">
  <defs>
    <style>
      .cls-1 {
        fill: #fff;
      }
    </style>
  </defs>
  <g id="Groupe_1068" data-name="Groupe 1068" transform="translate(0.1)">
    <path id="Tracé_1916" data-name="Tracé 1916" class="cls-1" d="M174.966,21.7h-.03a6.758,6.758,0,0,0-4.648,1.853c-.03.03-.091.061-.122.091l-.091.091-.061.061-.061.061-.03.03a6.845,6.845,0,0,0-1.823,4.5v.243a9.065,9.065,0,0,0,.122,1.276v.03c.03.182.091.334.122.486l.03.061c0,.03.03.061.03.122a1.481,1.481,0,0,0,.122.334l.061.122a.432.432,0,0,1,.061.182l.091.182.061.122c.061.122.091.213.152.334.03.03.03.061.061.091l.03.061a3.337,3.337,0,0,0,.273.425l.03.03a5.143,5.143,0,0,0,.82.972,7.5,7.5,0,0,0,.881.729l.061.061c.03.03.061.061.091.061.122.061.243.152.365.213l.061.03.182.091a1.079,1.079,0,0,0,.273.122l.061.03a3.153,3.153,0,0,0,.3.122.439.439,0,0,0,.213.061l.061.03a1.966,1.966,0,0,0,.395.122c.061,0,.091.03.152.03l.061.03c.152.03.3.061.486.091a.23.23,0,0,1,.122.03h.061a3.879,3.879,0,0,0,.516.061h.76a6.716,6.716,0,0,0,4.739-2.157,1.242,1.242,0,0,0-.911-2.1h0a1.317,1.317,0,0,0-.911.395,4.359,4.359,0,0,1-3.068,1.367H174.6a4.036,4.036,0,0,1-.911-.182h-.03a3.685,3.685,0,0,1-.425-.152l-.061-.03a2.51,2.51,0,0,1-.395-.213c-.03-.03-.061-.03-.091-.061l-.03-.03c-.091-.061-.152-.091-.243-.152l-.03-.03c-.03-.03-.091-.061-.122-.091-.091-.091-.213-.152-.3-.243a.42.42,0,0,1-.091-.122l-.03-.03a.8.8,0,0,1-.152-.182,4.674,4.674,0,0,1-.7-1.124v-.03c-.03-.091-.061-.152-.091-.243-.03-.061-.03-.091-.061-.152l9.9-.061a1.149,1.149,0,0,0,.243-.03,1.267,1.267,0,0,0,.942-1.215A6.985,6.985,0,0,0,174.966,21.7Zm-4.192,5.651a4.938,4.938,0,0,1,.638-1.337,4.789,4.789,0,0,1,.365-.456,4.373,4.373,0,0,1,3.16-1.367,3.124,3.124,0,0,1,.516.03,4.382,4.382,0,0,1,3.676,3.068Z" transform="translate(-117.101 -15.108)"/>
    <path id="Tracé_1917" data-name="Tracé 1917" class="cls-1" d="M98.534,0a1.251,1.251,0,0,0-1.246,1.246V8.172A7.1,7.1,0,0,0,95.04,6.927a6.788,6.788,0,0,0-4.253.03,1.271,1.271,0,0,0-.395,2.157,1.237,1.237,0,0,0,1.154.243,4.452,4.452,0,0,1,5.438,2.43,4.954,4.954,0,0,1,.334,1.276v.547a4.446,4.446,0,0,1-2.582,3.858,4.54,4.54,0,0,1-3.342.091.563.563,0,0,0-.213-.061c-1.519-.911-2.218-3.372-2.491-4.344a5.479,5.479,0,0,1-.152-.577,7.025,7.025,0,0,0-.577-1.7A7.887,7.887,0,0,0,84.407,7.2a1.481,1.481,0,0,0-.213-.091,2.094,2.094,0,0,1-.243-.091.183.183,0,0,0-.122-.03A6.852,6.852,0,0,0,75.354,11a7.054,7.054,0,0,0,.213,5.5,6.934,6.934,0,0,0,4.1,3.585,6.787,6.787,0,0,0,4.253-.03,1.271,1.271,0,0,0,.395-2.157,1.237,1.237,0,0,0-1.154-.243,4.377,4.377,0,0,1-3.19-8.142,4.358,4.358,0,0,1,3.038-.182h0A4.929,4.929,0,0,1,85.8,11.97a4.379,4.379,0,0,1,.395,1.215c.061.213.091.425.182.668.395,1.428,1.367,4.8,4.1,6.046h0a.03.03,0,0,1,.03.03,6.708,6.708,0,0,0,4.861.03,6.76,6.76,0,0,0,4.466-6.38h0V1.246A1.372,1.372,0,0,0,98.534,0Z" transform="translate(-52.213)"/>
    <path id="Tracé_1918" data-name="Tracé 1918" class="cls-1" d="M10.5,21.7h0a1.355,1.355,0,0,0-1.367,1.337v6.775a.36.36,0,0,1-.608.122L3.789,23.8,2.665,22.277,2.6,22.216a1.385,1.385,0,0,0-.82-.456L1.6,21.73A1.564,1.564,0,0,0-.1,23.189V34.125a1.4,1.4,0,0,0,1.367,1.337H1.3a1.349,1.349,0,0,0,1.337-1.337V27.351a.355.355,0,0,1,.577-.152l5.863,7.686.061.061a1.385,1.385,0,0,0,.82.456l.182.03a1.564,1.564,0,0,0,1.7-1.458V23.067a1.329,1.329,0,0,0-.243-.76A1.276,1.276,0,0,0,10.5,21.7Z" transform="translate(0 -15.108)"/>
    <path id="Tracé_1919" data-name="Tracé 1919" class="cls-1" d="M54.658,21.7A1.459,1.459,0,0,0,53.2,23.158V34a1.458,1.458,0,0,0,2.916,0V23.158A1.479,1.479,0,0,0,54.658,21.7Z" transform="translate(-37.107 -15.108)"/>
    <path id="Tracé_1920" data-name="Tracé 1920" class="cls-1" d="M231.927,29.053a.365.365,0,0,1,0-.425l3.463-4.466a1.286,1.286,0,1,0-2.005-1.61l-3.008,3.858a.341.341,0,0,1-.547,0l-3.008-3.858a1.286,1.286,0,1,0-2.005,1.61l3.494,4.466a.365.365,0,0,1,0,.425l-3.463,4.466A1.323,1.323,0,0,0,225,35.341a1.252,1.252,0,0,0,.82.3,1.391,1.391,0,0,0,1.033-.486l3.008-3.858a.341.341,0,0,1,.547,0l3.008,3.858a1.3,1.3,0,0,0,1.853.182,1.3,1.3,0,0,0,.152-1.823Z" transform="translate(-156.38 -15.351)"/>
  </g>
</svg>
