<svg xmlns="http://www.w3.org/2000/svg" viewBox="0 0 147.893 25.563"><defs><style>.a,.b{fill:#fff;}.b{opacity:0.5;}</style></defs><path class="a" d="M34.913,52.921a14.5,14.5,0,0,0,5.556-9.3,14.451,14.451,0,0,0-11.169,0A14.57,14.57,0,0,0,34.913,52.921Z" transform="translate(-20.866 -30.266)"/><path class="b" d="M14.048,55.9a14.091,14.091,0,0,1-5.527-9.3A14.21,14.21,0,0,0,0,57.6a14.148,14.148,0,0,0,5.527,1.123A14.34,14.34,0,0,0,14.048,55.9Z" transform="translate(0 -33.185)"/><path class="b" d="M54.227,46.6A14.159,14.159,0,0,1,48.7,55.9a14.164,14.164,0,0,0,14.048,1.727A14.209,14.209,0,0,0,54.227,46.6Z" transform="translate(-34.681 -33.185)"/><path class="b" d="M29,11.342a16.717,16.717,0,0,0,.144,2.073h.029c0-.058-.029-.086-.029-.144a14.166,14.166,0,0,1,11.054,0c0,.058-.029.086-.029.144H40.2a15.973,15.973,0,0,0,.144-2.073A14.109,14.109,0,0,0,34.7,0,14.16,14.16,0,0,0,29,11.342Z" transform="translate(-20.652)"/><g transform="translate(44.734)"><path class="a" d="M411.182,23.7h-.029a6.969,6.969,0,0,0-4.807,1.929.224.224,0,0,0-.115.115l-.086.086-.058.058-.058.058-.029.029a7.119,7.119,0,0,0-1.9,4.635v.23a7.159,7.159,0,0,0,.144,1.324v.029c.029.173.086.345.115.518l.029.058c0,.029.029.086.029.115.029.115.086.23.115.345l.058.144c.029.058.058.144.086.2s.058.144.086.2l.058.115a3.128,3.128,0,0,0,.173.317c.029.029.029.058.058.086l.029.058c.086.144.173.288.288.461l.029.029a5.9,5.9,0,0,0,.864,1.008,8.691,8.691,0,0,0,.921.777l.058.029c.029.029.058.058.086.058a4.26,4.26,0,0,0,.374.23l.058.029.173.086c.086.058.2.086.288.144l.058.029a3.375,3.375,0,0,0,.317.144c.058.029.144.058.2.086l.058.029c.144.058.288.086.432.144.058,0,.086.029.144.029l.058.029c.173.029.317.086.489.115a.173.173,0,0,1,.115.029h.058a3.934,3.934,0,0,0,.547.058h.835a7,7,0,0,0,4.894-2.217,1.233,1.233,0,0,0,.23-1.382,1.251,1.251,0,0,0-1.18-.777h0a1.242,1.242,0,0,0-.921.4,4.432,4.432,0,0,1-3.167,1.411h-.518a3.492,3.492,0,0,1-.95-.2h-.029a2.7,2.7,0,0,1-.432-.173l-.058-.029c-.144-.058-.259-.144-.4-.2-.029-.029-.058-.029-.086-.058l-.029-.029-.259-.173-.029-.029a.505.505,0,0,1-.144-.115c-.115-.086-.2-.173-.317-.259l-.115-.115-.029-.029a1.249,1.249,0,0,1-.173-.2,4.313,4.313,0,0,1-.72-1.151l-.029-.029-.086-.259c-.029-.058-.029-.115-.058-.173l10.248-.058h.23v-.029a1.329,1.329,0,0,0,.979-1.267A7.246,7.246,0,0,0,411.182,23.7Zm4.318,5.815-8.665.029a4.714,4.714,0,0,1,.662-1.382,2.888,2.888,0,0,1,.4-.461,4.465,4.465,0,0,1,3.282-1.411,3.128,3.128,0,0,1,.518.029A4.558,4.558,0,0,1,415.5,29.515Z" transform="translate(-332.508 -16.878)"/><path class="a" d="M275.449,30.709h0v-.086a7.086,7.086,0,0,0-2.044-4.721l-.058-.058a10.091,10.091,0,0,0-1.036-.835l-.029-.029a1.862,1.862,0,0,0-.461-.259l-.058-.029c-.029-.029-.058-.029-.115-.058a2.8,2.8,0,0,0-.317-.144l-.115-.058c-.058-.029-.144-.058-.2-.086s-.144-.058-.2-.086L270.7,24.2c-.115-.029-.23-.086-.345-.115-.029,0-.086-.029-.115-.029l-.058-.029a3.349,3.349,0,0,0-.518-.115h-.029a7.062,7.062,0,0,0-1.324-.115,5.65,5.65,0,0,0-1.18.115h-.058a.173.173,0,0,0-.115.029,2.4,2.4,0,0,0-.432.115l-.086.029c-.058.029-.144.029-.2.058a1.4,1.4,0,0,0-.317.115l-.058.029c-.115.029-.2.086-.317.115-.058.029-.144.058-.2.086l-.058.029a2.632,2.632,0,0,0-.4.2c-.058.029-.086.058-.144.086l-.058.029-.432.259c-.029.029-.058.058-.086.058l-.058.029c-.173.115-.288.23-.432.345-.029.029-.058.058-.086.058l-.058.058c-.058.029-.086.086-.144.115-.029.029-.058.029-.058.058l-.2.2-.029.029-.029.029a1.981,1.981,0,0,0-.317.374.628.628,0,0,0-.086.144l-.086.115-.259.345a.628.628,0,0,1-.086.144l-.086.144c-.058.115-.115.2-.173.317l-.086.173-.058.144a3.369,3.369,0,0,1-.144.317.409.409,0,0,0-.058.173l-.058.144c-.029.115-.086.23-.115.345a1.822,1.822,0,0,0-.058.2l-.029.115c-.029.115-.058.23-.086.374,0,.058-.029.115-.029.2v.086c-.029.144-.029.259-.058.4v.748h0v.058a6.706,6.706,0,0,0,.115,1.094v.029c.029.173.086.345.115.518l.029.058c0,.029.029.086.029.115.029.115.086.23.115.345l.058.115c.029.058.058.144.086.2s.058.144.086.2l.058.115a3.134,3.134,0,0,0,.173.317c.029.029.029.058.058.115l.029.058c.086.144.173.288.288.461l.029.029a6.74,6.74,0,0,0,.72.864c.029.029.029.058.086.086l.058.058a4.426,4.426,0,0,0,.547.489c.029.029.086.058.115.086s.058.029.058.058l.029.029a1.582,1.582,0,0,1,.259.2l.115.086a.63.63,0,0,1,.144.086l.086.058c.058.029.086.058.144.086l.058.029c.029.029.058.029.115.058l.086.058.173.086.2.058a1.4,1.4,0,0,0,.2.086l.086.029c.058.029.086.029.144.058l.144.058c.086.029.2.058.288.086l.086.029c.058,0,.086.029.144.029l.115.029.345.086h.086a.173.173,0,0,1,.115.029h.058a3.932,3.932,0,0,0,.547.058h.892a2.476,2.476,0,0,0,.461-.029,1.446,1.446,0,0,0,.345-.058l.173-.029a.173.173,0,0,0,.115-.029,2.4,2.4,0,0,0,.432-.115l.086-.029a1.838,1.838,0,0,1,.2-.058,1.2,1.2,0,0,0,.288-.115l.086-.029c.115-.029.2-.086.317-.115.086-.029.144-.058.23-.086l.058-.029a2.632,2.632,0,0,0,.4-.2c.058-.029.086-.058.144-.086l.058-.029.432-.259a.4.4,0,0,1,.115-.086l.029-.029c.173-.115.288-.23.432-.345l.086-.086.115-.115c.086-.058.144-.144.23-.2.029-.029.029-.058.058-.058l.058-.058c0-.029.029-.029.029-.058a7.179,7.179,0,0,0,1.9-4.692V30.8h0v-.086Zm-2.562.086v.518a4.373,4.373,0,0,1-1.238,2.706,2.6,2.6,0,0,1-.288.259l-.058.058-.058.058a4.18,4.18,0,0,1-.835.547c-.144.058-.259.115-.432.173l-.058.029c-.144.058-.288.086-.432.144-.029,0-.058.029-.086.029h-.058c-.086.029-.2.029-.317.058-.058,0-.115.029-.173.029-.115,0-.259.029-.374.029h-.374l-.2-.029a1.445,1.445,0,0,1-.345-.058l-.115-.029a2.4,2.4,0,0,1-.432-.115l-.086-.029a1.762,1.762,0,0,1-.345-.144c-.029-.029-.086-.029-.115-.058a1.551,1.551,0,0,1-.374-.2c-.029-.029-.058-.029-.086-.058l-.029-.029-.259-.173a.506.506,0,0,1-.144-.115c-.115-.086-.2-.173-.317-.259l-.115-.115-.029-.029a1.254,1.254,0,0,1-.173-.2l-.029-.029c-.058-.058-.086-.115-.144-.173-.144-.2-.288-.4-.4-.6-.058-.115-.115-.2-.173-.345v-.029l-.086-.259c-.029-.058-.029-.086-.058-.144l-.029-.058c0-.029-.029-.086-.029-.115-.029-.086-.029-.173-.058-.259l-.029-.086a.98.98,0,0,1-.029-.288v-.058c0-.115-.029-.23-.029-.345v-.576a1.445,1.445,0,0,1,.058-.345l.029-.115a2.394,2.394,0,0,1,.115-.432l.029-.086a1.759,1.759,0,0,1,.144-.345c.029-.029.029-.086.058-.115a1.837,1.837,0,0,1,.23-.4,1.464,1.464,0,0,1,.259-.374l.086-.115c.086-.086.173-.2.259-.288a2.588,2.588,0,0,1,.288-.259l.058-.058.058-.058h0a4.969,4.969,0,0,1,.806-.547h.029c.144-.058.259-.115.432-.2l.058-.029c.144-.058.288-.086.432-.144a.106.106,0,0,0,.086-.029h.058c.086-.029.2-.029.317-.058.058,0,.115-.029.173-.029a2.04,2.04,0,0,1,.4-.029h.461a4.722,4.722,0,0,1,1.3.288l.058.029c.086.029.173.086.259.115a.958.958,0,0,0,.173.086l.029.029c.029.029.058.029.115.058.086.058.144.086.23.144l.086.058c.058.058.144.115.2.173l.086.086c.058.058.144.115.2.173l.058.058.2.2.058.058a2.032,2.032,0,0,1,.2.259l.029.029a4.516,4.516,0,0,1,.835,1.986A2.114,2.114,0,0,0,272.887,30.8Z" transform="translate(-230.744 -16.949)"/><path class="a" d="M346.949,30.709h0v-.086a7.086,7.086,0,0,0-2.044-4.721l-.058-.058a10.091,10.091,0,0,0-1.036-.835l-.029-.029a1.862,1.862,0,0,0-.461-.259l-.058-.029c-.029-.029-.058-.029-.115-.058a2.8,2.8,0,0,0-.317-.144l-.115-.058c-.058-.029-.144-.058-.2-.086s-.144-.058-.2-.086L342.2,24.2c-.115-.029-.23-.086-.345-.115-.029,0-.086-.029-.115-.029l-.058-.029a3.348,3.348,0,0,0-.518-.115h-.029a7.062,7.062,0,0,0-1.324-.115,5.649,5.649,0,0,0-1.18.115h-.058a.173.173,0,0,0-.115.029,2.4,2.4,0,0,0-.432.115l-.086.029c-.058.029-.144.029-.2.058a1.4,1.4,0,0,0-.317.115l-.058.029c-.115.029-.2.086-.317.115-.058.029-.144.058-.2.086l-.058.029a2.632,2.632,0,0,0-.4.2c-.058.029-.086.058-.144.086l-.058.029-.432.259c-.029.029-.058.058-.086.058l-.058.029c-.173.115-.288.23-.432.345-.029.029-.058.058-.086.058l-.058.058c-.058.029-.086.086-.144.115-.029.029-.058.029-.058.058l-.2.2-.029.029-.029.029a1.983,1.983,0,0,0-.317.374.629.629,0,0,0-.086.144l-.086.115-.259.345a.629.629,0,0,1-.086.144l-.086.144c-.058.115-.115.2-.173.317l-.086.173-.058.144a3.369,3.369,0,0,1-.144.317.409.409,0,0,0-.058.173l-.058.144c-.029.115-.086.23-.115.345a1.843,1.843,0,0,0-.058.2l-.029.115c-.029.115-.058.23-.086.374,0,.058-.029.115-.029.2v.086c-.029.144-.029.259-.058.4v.748h0v.058a6.7,6.7,0,0,0,.115,1.094v.029c.029.173.086.345.115.518l.029.058c0,.029.029.086.029.115.029.115.086.23.115.345l.058.115c.029.058.058.144.086.2s.058.144.086.2l.058.115a3.134,3.134,0,0,0,.173.317c.029.029.029.058.058.115l.029.058c.086.144.173.288.288.461l.029.029a6.733,6.733,0,0,0,.72.864c.029.029.029.058.086.086l.058.058a4.428,4.428,0,0,0,.547.489c.029.029.086.058.115.086s.058.029.058.058l.029.029a1.581,1.581,0,0,1,.259.2l.115.086a.63.63,0,0,1,.144.086l.086.058c.058.029.086.058.144.086l.058.029c.029.029.058.029.115.058l.086.058.173.086.2.086a1.4,1.4,0,0,0,.2.086l.086.029c.058.029.086.029.144.058l.144.058c.086.029.2.058.288.086l.086.029c.058,0,.086.029.144.029l.115.029.345.086h.086a.173.173,0,0,1,.115.029h.058a3.935,3.935,0,0,0,.547.058h.892a2.476,2.476,0,0,0,.461-.029,1.445,1.445,0,0,0,.345-.058l.173-.029a.173.173,0,0,0,.115-.029,2.4,2.4,0,0,0,.432-.115l.086-.029a1.837,1.837,0,0,1,.2-.058,1.2,1.2,0,0,0,.288-.115l.086-.029c.115-.029.2-.086.317-.115.086-.029.144-.058.23-.086l.058-.029a2.632,2.632,0,0,0,.4-.2c.058-.029.086-.058.144-.086l.058-.029.432-.259a.4.4,0,0,1,.115-.086l.029-.029c.173-.115.288-.23.432-.345l.086-.086.115-.115c.086-.058.144-.144.23-.2.029-.029.029-.058.058-.058l.058-.058c0-.029.029-.029.029-.058a7.179,7.179,0,0,0,1.9-4.692v-.144h0v-.086Zm-2.562.086v.518a4.373,4.373,0,0,1-1.238,2.706,2.6,2.6,0,0,1-.288.259l-.058.058-.058.058a4.178,4.178,0,0,1-.835.547c-.144.058-.259.115-.432.173l-.058.029c-.144.058-.288.086-.432.144-.029,0-.058.029-.086.029h-.058c-.086.029-.2.029-.317.058-.058,0-.115.029-.173.029-.115,0-.259.029-.374.029h-.374l-.2-.029a1.445,1.445,0,0,1-.345-.058l-.115-.029a2.4,2.4,0,0,1-.432-.115l-.086-.029a1.761,1.761,0,0,1-.345-.144c-.029-.029-.086-.029-.115-.058a1.551,1.551,0,0,1-.374-.2c-.029-.029-.058-.029-.086-.058l-.029-.029-.259-.173a.505.505,0,0,1-.144-.115c-.115-.086-.2-.173-.317-.259l-.115-.115-.029-.029a1.254,1.254,0,0,1-.173-.2l-.029-.029c-.058-.058-.086-.115-.144-.173-.144-.2-.288-.4-.4-.6a3.856,3.856,0,0,1-.173-.345v-.029l-.086-.259c-.029-.058-.029-.086-.058-.144l-.029-.058c0-.029-.029-.086-.029-.115-.029-.086-.029-.173-.058-.259l-.029-.086a.979.979,0,0,1-.029-.288v-.058c0-.115-.029-.23-.029-.345v-.576a1.444,1.444,0,0,1,.058-.345l.029-.115a2.4,2.4,0,0,1,.115-.432l.029-.086a1.759,1.759,0,0,1,.144-.345c.029-.029.029-.086.058-.115a1.835,1.835,0,0,1,.23-.4,1.464,1.464,0,0,1,.259-.374l.086-.115c.086-.086.173-.2.259-.288a2.593,2.593,0,0,1,.288-.259l.058-.058.058-.058h0a4.969,4.969,0,0,1,.806-.547h.029c.144-.058.259-.115.432-.2l.058-.029c.144-.058.288-.086.432-.144a.106.106,0,0,0,.086-.029h.058c.086-.029.2-.029.317-.058.058,0,.115-.029.173-.029a2.039,2.039,0,0,1,.4-.029h.461a4.722,4.722,0,0,1,1.3.288l.058.029c.086.029.173.086.259.115a.958.958,0,0,0,.173.086l.029.029c.029.029.058.029.115.058.086.058.144.086.23.144l.086.058c.058.058.144.115.2.173l.086.086c.058.058.144.115.2.173l.058.058.2.2.058.058a2.03,2.03,0,0,1,.2.259l.029.029a4.516,4.516,0,0,1,.835,1.986A2.114,2.114,0,0,0,344.387,30.8Z" transform="translate(-281.661 -16.949)"/><path class="a" d="M167.49,24.383a1.368,1.368,0,0,0-1.151-.6h-.029a1.382,1.382,0,0,0-1.382,1.382v7a.385.385,0,0,1-.633.144L159.344,26l-1.123-1.641-.058-.086a1.607,1.607,0,0,0-.835-.461l-.173-.029a1.607,1.607,0,0,0-1.756,1.5V36.618A1.382,1.382,0,0,0,156.782,38h.029a1.382,1.382,0,0,0,1.382-1.382v-7a.36.36,0,0,1,.6-.144l6.074,7.974.058.086a1.607,1.607,0,0,0,.835.461l.173.029a1.607,1.607,0,0,0,1.756-1.5V25.161h0A1.217,1.217,0,0,0,167.49,24.383Z" transform="translate(-155.4 -16.928)"/><path class="a" d="M227.4,38.021h0a1.487,1.487,0,0,0,1.5-1.5V25.3a1.487,1.487,0,0,0-1.5-1.5h0a1.487,1.487,0,0,0-1.5,1.5V36.524A1.487,1.487,0,0,0,227.4,38.021Z" transform="translate(-205.605 -16.949)"/><path class="a" d="M374.048,16.9h.921c.547,0,.921-2.015.921-2.562V1.3A1.29,1.29,0,0,0,374.6,0h0a1.29,1.29,0,0,0-1.3,1.3V14.624C373.3,15,373.674,16.9,374.048,16.9Z" transform="translate(-310.574 0)"/><path class="a" d="M479.164,30.335l3.829-5.038a.936.936,0,0,0-.748-1.5h-1.123a.955.955,0,0,0-.748.374l-2.994,4.116a.3.3,0,0,1-.489,0l-2.965-4.116a.955.955,0,0,0-.748-.374h-1.123a.936.936,0,0,0-.748,1.5l3.8,5.038a.822.822,0,0,1,0,.95l-3.973,5.239a.936.936,0,0,0,.748,1.5H473a.955.955,0,0,0,.748-.374l3.109-4.318a.3.3,0,0,1,.489,0l3.109,4.318a.955.955,0,0,0,.748.374h1.123a.936.936,0,0,0,.748-1.5l-3.944-5.239A.875.875,0,0,1,479.164,30.335Z" transform="translate(-380.109 -16.949)"/></g></svg>